<svg xmlns="http://www.w3.org/2000/svg" xmlns:xlink="http://www.w3.org/1999/xlink" version="1.1" x="0px" y="0px" viewBox="0 0 100 125" enable-background="new 0 0 100 100" xml:space="preserve"><g><path d="M59.36,63.776v1.656v0.274v1.583l1.006-1.841l-0.001-0.001C59.716,64.927,59.36,64.364,59.36,63.776z"/><path d="M92.372,65.447l-0.001,0.002l1.004,1.841v-3.514C93.375,64.364,93.021,64.926,92.372,65.447z"/><path d="M92.366,65.452c-2.365,1.899-8.635,3.256-15.998,3.256c-7.364,0-13.633-1.356-15.999-3.256   c-0.648,0.574-1.009,1.192-1.009,1.838c0,2.997,7.615,5.427,17.008,5.427s17.007-2.43,17.007-5.427   C93.375,66.646,93.015,66.027,92.366,65.452z"/><ellipse cx="76.118" cy="60.354" rx="17.007" ry="5.427"/><ellipse cx="76.118" cy="56.841" rx="17.007" ry="4.931"/><polyline points="59.11,58.497 59.11,58.771 59.11,60.354 60.115,58.514 59.11,56.841  "/><polygon points="93.125,60.354 93.125,56.841 92.121,58.514  "/><ellipse cx="76.118" cy="60.354" rx="17.007" ry="5.427"/><ellipse cx="76.118" cy="56.841" rx="17.007" ry="4.931"/><polyline points="59.11,58.497 59.11,58.771 59.11,60.354 60.115,58.514 59.11,56.841  "/><polygon points="93.125,60.354 93.125,56.841 92.121,58.514  "/></g><g><defs><path id="b" d="M42.218,57.991v7.978v2.237l-0.009,2.352l17.151,4.171l3.729-51.106l-42.12,2.333l1.921,27.844    L42.218,57.991z"/></defs><clipPath id="a"><use xlink:href="#b" overflow="visible"/></clipPath><g clip-path="url(#a)"><polyline points="24.844,63.274 24.844,63.549 24.844,65.133 25.849,63.29 24.844,61.618   "/><path d="M57.855,63.289L57.855,63.289l1.003,1.844v-3.515C58.858,62.205,58.503,62.768,57.855,63.289z"/><path d="M57.849,63.294c-2.365,1.899-8.634,3.256-15.998,3.256c-7.364,0-13.633-1.357-15.999-3.256    c-0.649,0.574-1.008,1.192-1.008,1.839c0,2.996,7.614,5.427,17.007,5.427s17.007-2.431,17.007-5.427    C58.858,64.486,58.498,63.868,57.849,63.294z"/><polyline points="25.095,56.091 25.095,56.365 25.095,57.948 26.1,56.107 25.095,54.435   "/><path d="M58.106,56.105l-0.002,0.002l1.006,1.841v-3.514C59.11,55.022,58.755,55.584,58.106,56.105z"/><path d="M58.101,56.11c-2.366,1.899-8.635,3.256-15.999,3.256S28.469,58.01,26.104,56.11c-0.648,0.574-1.009,1.192-1.009,1.838    c0,2.997,7.614,5.427,17.007,5.427s17.008-2.43,17.008-5.427C59.11,57.304,58.749,56.686,58.101,56.11z"/><path d="M24.844,47.103v1.656v0.274v1.583l1.005-1.841C25.199,48.252,24.844,47.69,24.844,47.103z"/><path d="M57.855,48.773L57.855,48.773l1.003,1.842v-3.513C58.858,47.689,58.503,48.251,57.855,48.773z"/><path d="M57.849,48.778c-2.365,1.898-8.634,3.256-15.998,3.256c-7.364,0-13.633-1.357-15.999-3.256    c-0.649,0.574-1.008,1.192-1.008,1.838c0,2.998,7.614,5.427,17.007,5.427s17.007-2.43,17.007-5.427    C58.858,49.97,58.498,49.353,57.849,48.778z"/><path d="M25.095,39.919v1.656v0.274v1.583l1.005-1.841v0C25.451,41.068,25.095,40.505,25.095,39.919z"/><path d="M58.106,41.59l-0.002,0.001l1.006,1.841v-3.513C59.11,40.505,58.755,41.068,58.106,41.59z"/><path d="M58.101,41.595c-2.366,1.898-8.635,3.255-15.999,3.255s-13.633-1.357-15.999-3.256c-0.648,0.574-1.009,1.192-1.009,1.838    c0,2.997,7.614,5.427,17.007,5.427s17.008-2.431,17.008-5.427C59.11,42.787,58.749,42.169,58.101,41.595z"/><ellipse cx="41.851" cy="36.496" rx="17.007" ry="5.427"/><ellipse cx="41.851" cy="32.983" rx="17.007" ry="4.931"/><polyline points="24.844,34.639 24.844,34.913 24.844,36.496 25.849,34.655 24.844,32.983   "/><polygon points="58.858,36.496 58.858,32.983 57.854,34.655   "/><path d="M58.858,58.35"/></g></g><g><g><path d="M42.209,68.222c0.01,0.069,0.018,0.14,0.018,0.209v-0.24L42.209,68.222z"/><path d="M41.31,70.029l0.917,1.675v-3.273C42.228,68.99,41.902,69.527,41.31,70.029z"/></g><path d="M8.213,68.431c0-0.009,0.002-0.018,0.003-0.027L8.088,68.19v1.656v0.274v1.583l0.956-1.75   C8.507,69.474,8.213,68.963,8.213,68.431z"/><path d="M41.355,69.989c-2.25,1.96-8.622,3.373-16.135,3.373c-7.581,0-14-1.438-16.196-3.425c-0.601,0.555-0.934,1.148-0.934,1.767   c0,2.997,7.642,5.427,17.068,5.427c9.427,0,17.069-2.43,17.069-5.427C42.228,71.105,41.919,70.528,41.355,69.989z"/><path d="M41.475,62.918v0.002l1.004,1.841v-3.514C42.479,61.835,42.124,62.397,41.475,62.918z"/><path d="M8.464,61.247v1.656v0.274v1.583l1.005-1.841C8.82,62.397,8.464,61.835,8.464,61.247z"/><path d="M41.47,62.924c-2.366,1.898-8.635,3.256-15.999,3.256c-7.364,0-13.633-1.357-15.999-3.257   c-0.648,0.574-1.008,1.192-1.008,1.838c0,2.997,7.615,5.427,17.007,5.427c9.393,0,17.007-2.43,17.007-5.427   C42.479,64.115,42.118,63.497,41.47,62.924z"/><ellipse cx="25.22" cy="57.825" rx="17.007" ry="5.427"/><ellipse cx="25.22" cy="54.312" rx="17.007" ry="4.933"/><polyline points="8.213,55.968 8.213,56.242 8.213,57.825 9.218,55.984 8.213,54.312  "/><polygon points="42.228,57.825 42.228,54.312 41.223,55.984  "/></g><text x="0" y="115" fill="#000000" font-size="5px" font-weight="bold" font-family="'Helvetica Neue', Helvetica, Arial-Unicode, Arial, Sans-serif">Created by Anton Håkanson</text><text x="0" y="120" fill="#000000" font-size="5px" font-weight="bold" font-family="'Helvetica Neue', Helvetica, Arial-Unicode, Arial, Sans-serif">from the Noun Project</text></svg>