<svg xmlns="http://www.w3.org/2000/svg" xmlns:xlink="http://www.w3.org/1999/xlink" version="1.1" x="0px" y="0px" viewBox="0 0 66 82.5" style="enable-background:new 0 0 66 66;" xml:space="preserve"><style type="text/css">
	.st0{fill-rule:evenodd;clip-rule:evenodd;}
</style><path d="M13.59,51.73c-2.28-1.44-4.07-3.09-5.29-4.89l-0.02,3.74c-0.01,3.12,1.86,6.12,5.31,8.58V51.73z"/><path d="M33.95,64.49c2.45-0.05,4.88-0.31,7.22-0.78v-7.77c-2.35,0.44-4.78,0.68-7.22,0.73V64.49z"/><path d="M43.14,63.26c2.61-0.67,5.07-1.61,7.22-2.83v-7.52c-2.2,1.12-4.64,2-7.22,2.62V63.26z"/><path d="M32.96,42.36c11.26,0,20.42-9.16,20.42-20.42S44.22,1.51,32.96,1.51s-20.42,9.16-20.42,20.42S21.7,42.36,32.96,42.36z   M32.96,5.66c8.97,0,16.27,7.3,16.27,16.27c0,8.97-7.3,16.28-16.27,16.28c-8.97,0-16.28-7.3-16.28-16.28  C16.69,12.96,23.99,5.66,32.96,5.66z"/><path d="M32.96,44.32c-6.35,0-12.09-2.66-16.17-6.93c-0.95,1.35-1.35,2.8-1.12,4.25c0.34,2.19,2.07,4.28,4.86,5.9  c6.91,3.99,18.12,3.99,24.98,0c2.76-1.61,4.46-3.68,4.79-5.85c0.22-1.46-0.19-2.93-1.17-4.29C45.05,41.66,39.31,44.32,32.96,44.32z"/><path d="M57.61,40.58c-0.13-2.88-1.88-5.66-4.97-7.97c-0.63,1.16-1.37,2.25-2.18,3.28c1.49,1.88,2.11,3.98,1.79,6.1  c-0.42,2.77-2.46,5.35-5.74,7.26c-3.71,2.15-8.58,3.23-13.47,3.23c-4.88,0-9.77-1.07-13.49-3.23c-3.32-1.92-5.39-4.52-5.82-7.3  c-0.33-2.11,0.28-4.19,1.74-6.07c-0.82-1.03-1.56-2.13-2.19-3.3c-3.18,2.38-4.93,5.26-4.94,8.22c0,0,0,0.01,0,0.01c0,0,0,0,0,0v0  c-0.01,3.62,2.5,7.07,7.07,9.71c9.76,5.64,25.59,5.63,35.28,0c4.47-2.59,6.93-5.98,6.96-9.54v-0.03v0v0c0-0.13,0.03-0.25,0.08-0.37  C57.68,40.58,57.65,40.58,57.61,40.58z"/><path d="M32.96,36.24c7.89,0,14.31-6.42,14.31-14.31c0-7.89-6.42-14.31-14.31-14.31c-7.89,0-14.31,6.42-14.31,14.31  C18.66,29.82,25.07,36.24,32.96,36.24z M32.96,22.74c-2.67,0-4.84-1.93-4.84-4.29c0-2.07,1.66-3.8,3.86-4.2v-0.9  c0-0.54,0.44-0.98,0.98-0.98s0.98,0.44,0.98,0.98v0.9c2.2,0.4,3.86,2.13,3.86,4.2c0,0.54-0.44,0.98-0.98,0.98s-0.98-0.44-0.98-0.98  c0-1.28-1.29-2.32-2.87-2.32c-1.58,0-2.87,1.04-2.87,2.32c0,1.28,1.29,2.32,2.87,2.32c2.67,0,4.84,1.92,4.84,4.29  c0,2.07-1.66,3.8-3.86,4.2v1.26c0,0.54-0.44,0.98-0.98,0.98s-0.98-0.44-0.98-0.98v-1.26c-1.05-0.19-2.01-0.68-2.72-1.42  c-0.74-0.77-1.14-1.76-1.14-2.77c0-0.54,0.44-0.98,0.98-0.98s0.98,0.44,0.98,0.98c0,0.65,0.32,1.13,0.6,1.41  c0.55,0.58,1.38,0.91,2.28,0.91c1.58,0,2.87-1.04,2.87-2.32C35.83,23.78,34.55,22.74,32.96,22.74z"/><path d="M24.75,63.69c2.34,0.47,4.77,0.74,7.23,0.8v-7.83c-2.45-0.06-4.88-0.31-7.23-0.76V63.69z"/><path d="M52.33,51.82v7.37c3.4-2.43,5.25-5.39,5.26-8.48l0.02-3.71C56.38,48.78,54.6,50.41,52.33,51.82z"/><path d="M15.56,60.4c2.16,1.22,4.61,2.16,7.22,2.84v-7.76c-2.59-0.63-5.02-1.52-7.22-2.65V60.4z"/><text x="0" y="81" fill="#000000" font-size="5px" font-weight="bold" font-family="'Helvetica Neue', Helvetica, Arial-Unicode, Arial, Sans-serif">Created by Design Circle</text><text x="0" y="86" fill="#000000" font-size="5px" font-weight="bold" font-family="'Helvetica Neue', Helvetica, Arial-Unicode, Arial, Sans-serif">from the Noun Project</text></svg>