<svg xmlns="http://www.w3.org/2000/svg" xmlns:xlink="http://www.w3.org/1999/xlink" version="1.1" x="0px" y="0px" viewBox="0 0 64 80" enable-background="new 0 0 64 64" xml:space="preserve"><g><g><path d="M32,28c10.665,0,22-3.505,22-10S42.665,8,32,8s-22,3.505-22,10S21.335,28,32,28z"/><path d="M52,24c-1.104,0-2,0.896-2,2c0,2.446-7.012,6-18,6c-10.988,0-18-3.554-18-6c0-1.104-0.896-2-2-2s-2,0.896-2,2v6    c0,6.495,11.335,10,22,10s22-3.505,22-10v-6C54,24.896,53.104,24,52,24z"/><path d="M52,38c-1.104,0-2,0.896-2,2c0,2.446-7.012,6-18,6c-10.988,0-18-3.554-18-6c0-1.104-0.896-2-2-2s-2,0.896-2,2v6    c0,6.495,11.335,10,22,10s22-3.505,22-10v-6C54,38.896,53.104,38,52,38z"/></g></g><text x="0" y="79" fill="#000000" font-size="5px" font-weight="bold" font-family="'Helvetica Neue', Helvetica, Arial-Unicode, Arial, Sans-serif">Created by Ralf Schmitzer</text><text x="0" y="84" fill="#000000" font-size="5px" font-weight="bold" font-family="'Helvetica Neue', Helvetica, Arial-Unicode, Arial, Sans-serif">from the Noun Project</text></svg>