<svg xmlns="http://www.w3.org/2000/svg" version="1.1" viewBox="-5.0 -10.0 110.0 135.0">
 <path d="m89.324 58.508c0.34375 0 0.96484-0.042968 1.2539-0.32812 0.48828-0.48828 0.61719-2.5-1.0352-6.0391-1.7891-3.8281-4.9961-8.1562-9.0273-12.191-7.1406-7.1406-13.809-10.395-16.984-10.395-0.34375 0-0.96094 0.042968-1.25 0.32812-1.4414 1.4414 1.2852 9.457 10.062 18.238 7.1367 7.1367 13.805 10.387 16.98 10.387z"/>
 <path d="m89.324 63.195c-0.99609 0-2.0938-0.17187-3.2656-0.5-4.9453-1.3711-11.258-5.4883-17.031-11.266-5.3828-5.3828-9.8281-11.785-11.266-17.031-0.78125-2.8516-0.67188-5.3555 0.65234-7.1758-0.15625 0.09375-0.30859 0.20703-0.44531 0.34375l-4.2109 4.2109c-0.28906-2.2109-2.0234-5.043-8.0391-7.2305-4.4727-1.625-10.367-2.5195-16.605-2.5195-12.273 0-24.699 3.5938-24.699 10.465 0 0.29297 0.03125 0.57422 0.074219 0.85547-0.042969 0.17969-0.074219 0.36328-0.074219 0.55859v10.105c0 0.28906 0.03125 0.57031 0.074219 0.85156-0.042969 0.17969-0.074219 0.36328-0.074219 0.55859v10.105c0 0.39453 0.046876 0.77344 0.125 1.1484-0.074218 0.23047-0.125 0.46875-0.125 0.72266v10.105c0 6.8711 12.426 10.465 24.699 10.465 12.273 0 24.695-3.5938 24.695-10.465l-0.007813-10.105c0-0.25391-0.050781-0.49609-0.125-0.72266 0.085938-0.40234 0.125-0.78516 0.125-1.1445v-4.4688c1.957 2.9141 4.4023 5.8398 7.0781 8.5156 4.4102 4.4102 9.2109 7.9453 13.523 9.9609 2.8281 1.3203 5.0469 1.8125 6.7852 1.8125 2.2188 0 3.6484-0.80469 4.5547-1.7109l7.1445-7.1445c0.13672-0.13672 0.24609-0.28516 0.33984-0.44531-0.83594 0.60156-2.0898 1.1445-3.9023 1.1445zm-45.215-27.16c-3.9727 1.4453-9.3008 2.2383-15.004 2.2383-12.414 0-20.008-3.7422-20.008-5.7812 0-2.0352 7.5977-5.7773 20.012-5.7773 5.7031 0 11.035 0.79297 15.004 2.2383 3.6719 1.332 5.0039 2.8477 5.0039 3.5391 0 0.59766-1.0469 2.1055-5.0078 3.543z"/>
<text x="0.0" y="117.5" font-size="5.0" font-weight="bold" font-family="Arbeit Regular, Helvetica, Arial-Unicode, Arial, Sans-serif" fill="#000000">Created by verry poernomo</text><text x="0.0" y="122.5" font-size="5.0" font-weight="bold" font-family="Arbeit Regular, Helvetica, Arial-Unicode, Arial, Sans-serif" fill="#000000">from Noun Project</text></svg>