<svg xmlns="http://www.w3.org/2000/svg" xmlns:xlink="http://www.w3.org/1999/xlink" version="1.1" x="0px" y="0px" viewBox="0 0 100 125" style="enable-background:new 0 0 100 100;" xml:space="preserve"><style type="text/css">
	.st0{fill-rule:evenodd;clip-rule:evenodd;}
</style><path class="st0" d="M65.461,34.539C51.722,20.8,28.135,30.581,28.135,50c0,19.42,23.589,29.199,37.327,15.461  C74,56.923,74,43.077,65.461,34.539L65.461,34.539z M23.362,28.294c-5.345,4.166-9.708,9.659-12.53,16.154  c2.728-18.996,18.61-33.284,37.618-34.042c0.662-0.026,1.181-0.571,1.181-1.228h0.004V6.657l8.227,7.907l-8.268,8.56  c-0.02-1.593,0.327-3.653-1.272-3.632C39.155,19.623,30.405,22.805,23.362,28.294L23.362,28.294z M76.638,71.706  c5.345-4.165,9.708-9.659,12.53-16.154c-2.728,18.996-18.61,33.284-37.618,34.042c-0.662,0.026-1.181,0.571-1.181,1.228h-0.004  v2.521l-8.227-7.907l8.268-8.56c0.02,1.593-0.327,3.653,1.272,3.632C60.845,80.377,69.594,77.195,76.638,71.706L76.638,71.706z   M51.233,65.06c0,1.623-2.466,1.623-2.466,0v-2.07c-3.389-0.591-5.932-3.546-5.932-7.058c0-1.623,2.466-1.623,2.466,0  c0,4.182,5.074,6.27,8.022,3.323c0.85-0.85,1.376-2.025,1.376-3.323c0-5.468-11.864-4.241-11.864-11.863  c0-1.872,0.842-3.93,2.101-5.063l-0.002-0.002c1.021-1.021,2.349-1.735,3.834-1.993c0-1.377-0.335-3.302,1.233-3.302  c1.568,0,1.233,1.927,1.233,3.304c3.413,0.573,5.932,3.456,5.932,7.017c0,1.674-2.466,1.677-2.466,0  c0-4.322-5.168-6.137-8.022-3.283l-0.002-0.002c-0.848,0.85-1.374,2.025-1.374,3.325c0,5.468,11.864,4.241,11.864,11.863  c0,3.509-2.537,6.469-5.932,7.059V65.06z"/><text x="0" y="115" fill="#000000" font-size="5px" font-weight="bold" font-family="'Helvetica Neue', Helvetica, Arial-Unicode, Arial, Sans-serif">Created by Purwanto</text><text x="0" y="120" fill="#000000" font-size="5px" font-weight="bold" font-family="'Helvetica Neue', Helvetica, Arial-Unicode, Arial, Sans-serif">from the Noun Project</text></svg>