<svg xmlns="http://www.w3.org/2000/svg" xmlns:xlink="http://www.w3.org/1999/xlink" xmlns:lucid="lucid" width="2241" height="1141"><g transform="translate(780.5 -719.5)" lucid:page-tab-id="0_0"><path d="M-1000 500h2500v1500h-2500z" fill="#fff"/><path d="M-780 720h2240v1140H-780z" stroke="#fff" fill="#fff"/><path d="M-398.8 1120h242.1v120h-242.1z" stroke="#000" fill="#fff"/><use xlink:href="#a" transform="matrix(1,0,0,1,-386.8121007283562,1132) translate(58.921657986111114 36.13888888888889)"/><use xlink:href="#b" transform="matrix(1,0,0,1,-386.8121007283562,1132) translate(142.50238715277777 36.13888888888889)"/><use xlink:href="#c" transform="matrix(1,0,0,1,-386.8121007283562,1132) translate(45.75108506944444 81.3107638888889)"/><path d="M700 1204h242.1v152H700z" stroke="#000" fill="#fff"/><use xlink:href="#d" transform="matrix(1,0,0,1,712,1216.0065104166667) translate(-16.881293402777786 30.14539930555555)"/><use xlink:href="#e" transform="matrix(1,0,0,1,712,1216.0065104166667) translate(39.492404513888886 75.31727430555556)"/><use xlink:href="#b" transform="matrix(1,0,0,1,712,1216.0065104166667) translate(161.931640625 75.31727430555556)"/><use xlink:href="#f" transform="matrix(1,0,0,1,712,1216.0065104166667) translate(45.42447916666667 120.48914930555557)"/><path d="M0 1320h242.1v120H0z" stroke="#000" fill="#fff"/><use xlink:href="#g" transform="matrix(1,0,0,1,12,1332) translate(-7.2502170138889 36.73133680555555)"/><use xlink:href="#h" transform="matrix(1,0,0,1,12,1332) translate(59.49131944444444 81.90321180555556)"/><path d="M804.2 1558.5h242.12v120h-242.1z" stroke="#000" fill="#fff"/><use xlink:href="#i" transform="matrix(1,0,0,1,816.2116043700371,1570.5) translate(14.928602430555543 36.13888888888889)"/><use xlink:href="#j" transform="matrix(1,0,0,1,816.2116043700371,1570.5) translate(54.40234375 81.3107638888889)"/><path d="M402.1 1439.5h242.1v120H402.1z" stroke="#000" fill="#fff"/><use xlink:href="#k" transform="matrix(1,0,0,1,414.10580218501855,1451.5) translate(-14.579861111111114 36.73133680555555)"/><use xlink:href="#l" transform="matrix(1,0,0,1,414.10580218501855,1451.5) translate(59.49131944444444 81.90321180555556)"/><path d="M-340 1817.5V1259M-340 1817.47v1.03" stroke="#e81313" stroke-width="2" fill="none"/><path d="M-340 1243.74l4.63 14.26h-9.26z" stroke="#e81313" stroke-width="2" fill="#e81313"/><use xlink:href="#m" transform="matrix(1,0,0,1,-462.3120659722222,1759.5836776728115) translate(0 30.138888888888893)"/><path d="M-220 1817.5V1259M-220 1817.47v1.03" stroke="#54c45e" stroke-width="2" fill="none"/><path d="M-220 1243.74l4.63 14.26h-9.26z" stroke="#54c45e" stroke-width="2" fill="#54c45e"/><use xlink:href="#n" transform="matrix(1,0,0,1,-211.9999999999999,1688.0468443339225) translate(0 30.138888888888893)"/><path d="M-219 1475.04H88.38a6 6 0 0 0 6-6V1459M-218.97 1475.04H-220" stroke="#54c45e" stroke-width="2" fill="none"/><path d="M94.38 1443.74L99 1458h-9.26z" stroke="#54c45e" stroke-width="2" fill="#54c45e"/><path d="M481.9 1578.5v14.5a6 6 0 0 1-6 6H-214a6 6 0 0 0-6 6v26" stroke="#54c45e" stroke-width="2" fill="none"/><path d="M481.9 1563.24l4.63 14.26h-9.27z" stroke="#54c45e" stroke-width="2" fill="#54c45e"/><path d="M-220 1630.98v1.02M878.53 1697.5v36.5a6 6 0 0 1-6 6H-219.8" stroke="#54c45e" stroke-width="2" fill="none"/><path d="M878.53 1682.24l4.64 14.26h-9.27z" stroke="#54c45e" stroke-width="2" fill="#54c45e"/><path d="M-220 1740.2v-1" stroke="#54c45e" stroke-width="2" fill="none"/><path d="M-339 1499.07h508.48a6 6 0 0 0 6-6V1459M-338.97 1499.07H-340" stroke="#e81313" stroke-width="2" fill="none"/><path d="M175.47 1443.74l4.64 14.26h-9.26z" stroke="#e81313" stroke-width="2" fill="#e81313"/><path d="M-339.6 1618.5h902.16a6 6 0 0 0 6-6v-34M-340 1618.06v1.03" stroke="#e81313" stroke-width="2" fill="none"/><path d="M568.56 1563.24l4.63 14.26h-9.28z" stroke="#e81313" stroke-width="2" fill="#e81313"/><path d="M-339 1758.5H997.54a6 6 0 0 0 6-6v-55M-338.97 1758.5H-340" stroke="#e81313" stroke-width="2" fill="none"/><path d="M1003.54 1682.24l4.63 14.26h-9.27z" stroke="#e81313" stroke-width="2" fill="#e81313"/><path d="M-279.02 1101h-1.96V823.38h1.96zm0-315.26h-1.96V761h1.96z" stroke="#5e5e5e" stroke-width=".05" fill="#5e5e5e"/><path d="M-279.02 761.03h-1.96V760h1.96z" stroke="#5e5e5e" stroke-width=".05" fill="#5e5e5e"/><path d="M-280 1116.26l-4.63-14.26h9.26z" fill="#5e5e5e"/><path d="M-280 1119.42l-5.98-18.4h11.96zm-3.3-16.45l3.3 10.14 3.3-10.13z" stroke="#5e5e5e" stroke-width=".05" fill="#5e5e5e"/><use xlink:href="#o" transform="matrix(1,0,0,1,-452.99479166666663,785.7371678086994) translate(0 30.138888888888893)"/><use xlink:href="#p" transform="matrix(1,0,0,1,-452.99479166666663,785.7371678086994) translate(142.74956597222223 30.138888888888893)"/><path d="M121.05 1301v-255.93a6 6 0 0 0-6-6H-279" stroke="#5e5e5e" stroke-width="2" fill="none"/><path d="M121.05 1316.26l-4.63-14.26h9.27z" stroke="#5e5e5e" stroke-width="2" fill="#5e5e5e"/><path d="M-278.97 1039.07H-280M523.16 1420.5v-392.66a6 6 0 0 0-6-6H-279" stroke="#5e5e5e" stroke-width="2" fill="none"/><path d="M523.16 1435.76l-4.64-14.26h9.27z" stroke="#5e5e5e" stroke-width="2" fill="#5e5e5e"/><path d="M-278.97 1021.84H-280M821.05 1185V1006.8a6 6 0 0 0-6-6H-279" stroke="#5e5e5e" stroke-width="2" fill="none"/><path d="M821.05 1200.27l-4.63-14.26h9.27z" stroke="#5e5e5e" stroke-width="2" fill="#5e5e5e"/><path d="M-278.97 1000.78H-280" stroke="#5e5e5e" stroke-width="2" fill="none"/><path d="M1002.62 1539.5h-1.95v-240.68h1.95zm-5.88-480.82l1.06.25 1 .42.95.58.83.7.7.84.58.93.42 1 .26 1.08.08 1.05v195.65h-1.95V1065.6l-.06-.8-.18-.78-.3-.73-.4-.68-.52-.6-.6-.5-.67-.42-.73-.3-.77-.2-.82-.05H-279v-1.95H995.68z" stroke="#5e5e5e" stroke-width=".05" fill="#5e5e5e"/><path d="M1001.65 1554.76L997 1540.5h9.28z" fill="#5e5e5e"/><path d="M1001.65 1557.92l-5.98-18.4h11.95zm-3.3-16.45l3.3 10.14 3.3-10.13zM-278.97 1060.55H-280v-1.95h1.03zM776.45 981.7l.08 203.3h-1.95l-.08-203.3V813.6h1.95zm0-205.73h-1.95V761h1.95z" stroke="#5e5e5e" stroke-width=".05" fill="#5e5e5e"/><path d="M776.45 761.03h-1.95V760h1.95z" stroke="#5e5e5e" stroke-width=".05" fill="#5e5e5e"/><path d="M775.55 1200.27l-4.63-14.26h9.27z" fill="#5e5e5e"/><path d="M775.55 1203.43l-5.98-18.4h11.96zm-3.3-16.45l3.3 10.13 3.3-10.12z" stroke="#5e5e5e" stroke-width=".05" fill="#5e5e5e"/><use xlink:href="#q" transform="matrix(1,0,0,1,601.6266198811866,775.967426740488) translate(0 30.138888888888893)"/><use xlink:href="#r" transform="matrix(1,0,0,1,601.6266198811866,775.967426740488) translate(301.54079861111114 30.138888888888893)"/><path d="M962.5 1539.5V930.65a6 6 0 0 0-6-6H776.48" stroke="#5e5e5e" stroke-width="2" fill="none"/><path d="M962.5 1554.76l-4.62-14.26h9.27z" stroke="#5e5e5e" stroke-width="2" fill="#5e5e5e"/><path d="M776.5 924.65h-1.03M604.78 1420.5V916.18a6 6 0 0 1 6-6h163.7" stroke="#5e5e5e" stroke-width="2" fill="none"/><path d="M604.78 1435.76l-4.63-14.26h9.27z" stroke="#5e5e5e" stroke-width="2" fill="#5e5e5e"/><path d="M774.45 910.18h1.02M163.5 1301V891.36a6 6 0 0 1 6-6h604.97" stroke="#5e5e5e" stroke-width="2" fill="none"/><path d="M163.5 1316.26L158.9 1302h9.27z" stroke="#5e5e5e" stroke-width="2" fill="#5e5e5e"/><path d="M774.45 885.36h1.02M-196.36 1101V864.48a6 6 0 0 1 6-6h964.83" stroke="#5e5e5e" stroke-width="2" fill="none"/><path d="M-196.36 1116.26L-201 1102h9.28z" stroke="#5e5e5e" stroke-width="2" fill="#5e5e5e"/><path d="M774.45 858.48h1.02" stroke="#5e5e5e" stroke-width="2" fill="none"/><path d="M994.66 1280.97H943.6v-1.94h51.06z" stroke="#5e5e5e" stroke-width=".05" fill="#5e5e5e"/><path d="M943.63 1280.97h-1.02v-1.94h1.03z" fill="#5e5e5e"/><path stroke="#5e5e5e" stroke-width=".05" fill="#5e5e5e"/><path fill="#5e5e5e"/><path stroke="#5e5e5e" stroke-width=".05" fill="#5e5e5e"/><use xlink:href="#s" transform="matrix(1,0,0,1,994.6620762583002,1261.1783854166667) translate(0 30.138888888888893)"/><use xlink:href="#t" transform="matrix(1,0,0,1,994.6620762583002,1261.1783854166667) translate(201.31076388888889 30.138888888888893)"/><path d="M-417.8 1180H-619" stroke="#5e5e5e" stroke-width="2" fill="none"/><path d="M-402.55 1180l-14.26 4.63v-9.27z" stroke="#5e5e5e" stroke-width="2" fill="#5e5e5e"/><path d="M-618.97 1180H-620" stroke="#5e5e5e" stroke-width="2" fill="none"/><use xlink:href="#u" transform="matrix(1,0,0,1,-639.6944763320585,1093.1848958333335) translate(37.010208333333324 30.138888888888893)"/><use xlink:href="#v" transform="matrix(1,0,0,1,-639.6944763320585,1093.1848958333335) translate(0.0049999999999954525 75.3107638888889)"/><path d="M243.6 1380h221.45a6 6 0 0 0 6-6v-45.86a6 6 0 0 1 6-6H681" stroke="#5e5e5e" stroke-width="2" fill="none"/><path d="M243.63 1380.97h-1.02v-1.94h1.03z" stroke="#5e5e5e" stroke-width=".05" fill="#5e5e5e"/><path d="M696.26 1322.14l-14.26 4.64v-9.27z" stroke="#5e5e5e" stroke-width="2" fill="#5e5e5e"/><use xlink:href="#w" transform="matrix(1,0,0,1,250.27796191377035,1247.4129364771109) translate(0 30.138888888888893)"/><use xlink:href="#x" transform="matrix(1,0,0,1,250.27796191377035,1247.4129364771109) translate(121.58854166666666 30.138888888888893)"/><use xlink:href="#y" transform="matrix(1,0,0,1,250.27796191377035,1247.4129364771109) translate(0 75.3107638888889)"/><path d="M732.43 1740a2.67 2.67 0 0 1-2.68-2.67v-340.76a.08.08 0 0 1 .08-.08.08.08 0 0 0 .08-.1V1375M732.4 1740h1.03" stroke="#54c45e" stroke-width="2" fill="none"/><path d="M729.9 1359.73l4.65 14.26h-9.27z" stroke="#54c45e" stroke-width="2" fill="#54c45e"/><path d="M778.83 1757.5v-199.97a.04.04 0 0 1 .04-.03.04.04 0 0 0 .03-.04V1375M778.83 1757.47v1.03" stroke="#e81313" stroke-width="2" fill="none"/><path d="M778.9 1359.73l4.64 14.26h-9.27z" stroke="#e81313" stroke-width="2" fill="#e81313"/><path d="M645.7 1499.5h8.3a6 6 0 0 1 6 6v107a6 6 0 0 0 6 6h119.2" stroke="#5e5e5e" stroke-width="2" fill="none"/><path d="M645.74 1500.47h-1.03v-1.94h1.04z" stroke="#5e5e5e" stroke-width=".05" fill="#5e5e5e"/><path d="M800.48 1618.5l-14.27 4.63v-9.27z" stroke="#5e5e5e" stroke-width="2" fill="#5e5e5e"/><use xlink:href="#z" transform="matrix(1,0,0,1,393.49495398147985,1616.00892409321) translate(0.009999999999990905 30.138888888888893)"/><use xlink:href="#A" transform="matrix(1,0,0,1,393.49495398147985,1616.00892409321) translate(254.7018402777777 75.3107638888889)"/><path d="M-155.2 1180h70.85a6 6 0 0 1 6 6v188a6 6 0 0 0 6 6H-19" stroke="#5e5e5e" stroke-width="2" fill="none"/><path d="M-155.18 1180.97h-1.03v-1.94h1.02z" stroke="#5e5e5e" stroke-width=".05" fill="#5e5e5e"/><path d="M-3.74 1380l-14.26 4.63v-9.27z" stroke="#5e5e5e" stroke-width="2" fill="#5e5e5e"/><use xlink:href="#w" transform="matrix(1,0,0,1,-70.35314936417811,1175.9954790227982) translate(0 30.138888888888893)"/><use xlink:href="#B" transform="matrix(1,0,0,1,-70.35314936417811,1175.9954790227982) translate(121.58854166666666 30.138888888888893)"/><use xlink:href="#C" transform="matrix(1,0,0,1,-70.35314936417811,1175.9954790227982) translate(0 75.3107638888889)"/><path d="M243.6 1413.35h33a6 6 0 0 1 6 6v92.5a6 6 0 0 0 6 6h94.5" stroke="#5e5e5e" stroke-width="2" fill="none"/><path d="M243.63 1414.33h-1.02v-1.95h1.03z" stroke="#5e5e5e" stroke-width=".05" fill="#5e5e5e"/><path d="M398.37 1517.85l-14.27 4.64v-9.28z" stroke="#5e5e5e" stroke-width="2" fill="#5e5e5e"/><g><use xlink:href="#w" transform="matrix(1,0,0,1,147.63525566375387,1525.30112235844) translate(0 30.138888888888893)"/><use xlink:href="#B" transform="matrix(1,0,0,1,147.63525566375387,1525.30112235844) translate(121.58854166666666 30.138888888888893)"/><use xlink:href="#D" transform="matrix(1,0,0,1,147.63525566375387,1525.30112235844) translate(0 75.3107638888889)"/></g><path d="M1047.82 1618.5h213.68" stroke="#5e5e5e" stroke-width="2" fill="none"/><path d="M1047.84 1619.47h-1.02v-1.94h1.02z" stroke="#5e5e5e" stroke-width=".05" fill="#5e5e5e"/><path d="M1276.76 1618.5l-14.26 4.63v-9.27z" stroke="#5e5e5e" stroke-width="2" fill="#5e5e5e"/><g><use xlink:href="#E" transform="matrix(1,0,0,1,1046.7448576989084,1572.2215159177092) translate(0 30.138888888888893)"/><use xlink:href="#F" transform="matrix(1,0,0,1,1046.7448576989084,1572.2215159177092) translate(209.31640625000003 30.138888888888893)"/></g><path d="M786.3 1679H-605.42" stroke="#5e5e5e" stroke-width="2" fill="none"/><path d="M801.57 1679l-14.27 4.63v-9.27z" stroke="#5e5e5e" stroke-width="2" fill="#5e5e5e"/><path d="M-605.4 1679h-1.02" stroke="#5e5e5e" stroke-width="2" fill="none"/><g><use xlink:href="#G" transform="matrix(1,0,0,1,-639.9786683161873,1637.356770833333) translate(0 30.138888888888893)"/><use xlink:href="#H" transform="matrix(1,0,0,1,-639.9786683161873,1637.356770833333) translate(146.0004340277778 30.138888888888893)"/></g><path d="M681 1280H-616.66" stroke="#5e5e5e" stroke-width="2" fill="none"/><path d="M696.26 1280l-14.26 4.63v-9.27z" stroke="#5e5e5e" stroke-width="2" fill="#5e5e5e"/><path d="M-616.63 1280h-1.03" stroke="#5e5e5e" stroke-width="2" fill="none"/><g><use xlink:href="#I" transform="matrix(1,0,0,1,-622.8906548719544,1238.3567708333333) translate(0 30.138888888888893)"/><use xlink:href="#J" transform="matrix(1,0,0,1,-622.8906548719544,1238.3567708333333) translate(111.25868055555557 30.138888888888893)"/></g><defs><path d="M180 0v-1490h528c311 0 458 177 458 395 0 191-114 278-244 313v14c139 9 302 137 302 371 0 225-148 397-499 397H180zm190-168h350c232 0 321-102 321-231 0-149-120-277-311-277H370v508zm0-668h328c160 0 286-101 286-255 0-129-87-231-280-231H370v486" id="K"/><path d="M65 0l393-574-370-544h210c88 136 192 297 267 435 67-142 176-302 264-435h206L661-564 1053 0H844c-94-144-206-310-287-458C484-308 366-142 273 0H65" id="L"/><path d="M613 24c-304 0-509-231-509-576 0-350 205-580 509-580 305 0 511 230 511 580 0 345-206 576-511 576zm0-161c226 0 329-195 329-415 0-222-103-419-329-419-223 0-326 196-326 419 0 220 103 415 326 415" id="M"/><path d="M38 321v-487h92c91-92 130-206 156-514l37-438h721v952h170v487h-179V0H218v321H38zm296-487h531v-786H486c-25 270-41 659-152 786" id="N"/><g id="a"><use transform="matrix(0.015190972222222224,0,0,0.015190972222222224,0,0)" xlink:href="#K"/><use transform="matrix(0.015190972222222224,0,0,0.015190972222222224,20.35590277777778,0)" xlink:href="#L"/><use transform="matrix(0.015190972222222224,0,0,0.015190972222222224,36.640625,0)" xlink:href="#M"/><use transform="matrix(0.015190972222222224,0,0,0.015190972222222224,55.295138888888886,0)" xlink:href="#N"/></g><path d="M158 0v-1118h457c242 0 397 118 397 298 0 131-85 205-218 232 129 19 261 115 261 288S916 0 686 0H158zm171-164h357c115 0 184-58 184-152 0-114-70-182-184-182H329v334zm0-485h287c134 0 215-60 215-156 0-93-82-149-216-149H329v305" id="O"/><use transform="matrix(0.015190972222222224,0,0,0.015190972222222224,0,0)" xlink:href="#O" id="b"/><path d="M613 24c-304 0-509-231-509-576 0-350 205-580 509-580 216 0 392 114 453 309l-173 49c-33-115-133-197-280-197-223 0-326 196-326 419 0 220 103 415 326 415 150 0 252-85 285-206l172 49C1010-95 832 24 613 24" id="P"/><path d="M1053 0H872v-806h-13L329 0H158v-1118h180v809h13l532-809h170V0" id="Q"/><path d="M388 0v-957H20v-161h914v161H568V0H388" id="R"/><path d="M628 24c-324 0-524-230-524-574 0-343 198-582 503-582 237 0 487 146 487 559v75H286c9 234 145 362 343 362 132 0 231-58 273-172l174 48C1024-91 857 24 628 24zM287-650h624c-17-190-120-322-304-322-192 0-309 151-320 322" id="S"/><path d="M158 0v-1118h270c115 298 279 624 361 942 79-316 244-646 356-942h274V0h-181c1-327-2-645 4-968-88 330-255 658-376 968H708C586-305 423-627 332-951c8 309 4 634 5 951H158" id="T"/><path d="M140 405l46-156c120 36 205 19 263-150l32-93L54-1118h197c107 313 237 620 324 950 87-331 219-637 326-950h196L606 167c-68 178-176 259-334 259-64 0-113-12-132-21" id="U"/><g id="c"><use transform="matrix(0.015190972222222224,0,0,0.015190972222222224,0,0)" xlink:href="#P"/><use transform="matrix(0.015190972222222224,0,0,0.015190972222222224,17.773437500000004,0)" xlink:href="#Q"/><use transform="matrix(0.015190972222222224,0,0,0.015190972222222224,36.169704861111114,0)" xlink:href="#P"/><use transform="matrix(0.015190972222222224,0,0,0.015190972222222224,53.943142361111114,0)" xlink:href="#R"/><use transform="matrix(0.015190972222222224,0,0,0.015190972222222224,67.91883680555556,0)" xlink:href="#S"/><use transform="matrix(0.015190972222222224,0,0,0.015190972222222224,86.05685763888889,0)" xlink:href="#T"/><use transform="matrix(0.015190972222222224,0,0,0.015190972222222224,110.01302083333333,0)" xlink:href="#U"/></g><path d="M180 0v-1490h510c348 0 508 209 508 474 0 266-160 477-507 477H370V0H180zm190-706h312c236 0 327-133 327-310 0-176-91-307-329-307H370v617" id="V"/><path d="M471 26C259 26 90-98 90-318c0-256 228-303 435-329 202-27 287-16 287-108 0-139-79-219-234-219-161 0-248 86-283 164l-173-57c86-203 278-265 451-265 150 0 419 46 419 395V0H815v-152h-12C765-73 660 26 471 26zm31-159c199 0 310-134 310-271v-155c-30 35-226 55-295 64-131 17-246 59-246 186 0 116 97 176 231 176" id="W"/><path d="M158 0v-1118h180v484h112l398-484h228L630-577 1082 0H854L493-468H338V0H158" id="X"/><path d="M158 418v-1536h174v179h20c37-59 106-193 324-193 279 0 474 222 474 576 0 356-194 580-473 580-213 0-288-135-325-197h-14v591H158zm492-555c209 0 317-186 317-421 0-232-105-413-317-413-206 0-314 166-314 413 0 249 111 421 314 421" id="Y"/><path d="M338-1118v477h534v-477h181V0H872v-475H338V0H158v-1118h180" id="Z"/><g id="d"><use transform="matrix(0.015190972222222224,0,0,0.015190972222222224,0,0)" xlink:href="#V"/><use transform="matrix(0.015190972222222224,0,0,0.015190972222222224,19.702690972222225,0)" xlink:href="#S"/><use transform="matrix(0.015190972222222224,0,0,0.015190972222222224,37.84071180555556,0)" xlink:href="#N"/><use transform="matrix(0.015190972222222224,0,0,0.015190972222222224,57.376302083333336,0)" xlink:href="#W"/><use transform="matrix(0.015190972222222224,0,0,0.015190972222222224,74.84592013888889,0)" xlink:href="#X"/><use transform="matrix(0.015190972222222224,0,0,0.015190972222222224,91.70789930555556,0)" xlink:href="#R"/><use transform="matrix(0.015190972222222224,0,0,0.015190972222222224,106.68619791666667,0)" xlink:href="#Q"/><use transform="matrix(0.015190972222222224,0,0,0.015190972222222224,125.08246527777779,0)" xlink:href="#Y"/><use transform="matrix(0.015190972222222224,0,0,0.015190972222222224,144.13194444444446,0)" xlink:href="#M"/><use transform="matrix(0.015190972222222224,0,0,0.015190972222222224,162.78645833333334,0)" xlink:href="#O"/><use transform="matrix(0.015190972222222224,0,0,0.015190972222222224,180.36241319444446,0)" xlink:href="#W"/><use transform="matrix(0.015190972222222224,0,0,0.015190972222222224,197.83203125,0)" xlink:href="#Z"/><use transform="matrix(0.015190972222222224,0,0,0.015190972222222224,216.22829861111111,0)" xlink:href="#Q"/><use transform="matrix(0.015190972222222224,0,0,0.015190972222222224,234.62456597222223,0)" xlink:href="#S"/></g><path d="M338-717h293c264 0 409 149 409 355C1040-160 894 0 631 0H158v-1118h180v401zM1170 0v-1118h180V0h-180zM338-550v384h293c132 0 227-77 227-188 0-116-95-196-227-196H338" id="aa"/><g id="e"><use transform="matrix(0.015190972222222224,0,0,0.015190972222222224,0,0)" xlink:href="#N"/><use transform="matrix(0.015190972222222224,0,0,0.015190972222222224,19.53559027777778,0)" xlink:href="#W"/><use transform="matrix(0.015190972222222224,0,0,0.015190972222222224,37.005208333333336,0)" xlink:href="#Z"/><use transform="matrix(0.015190972222222224,0,0,0.015190972222222224,55.40147569444445,0)" xlink:href="#Z"/><use transform="matrix(0.015190972222222224,0,0,0.015190972222222224,73.79774305555557,0)" xlink:href="#aa"/><use transform="matrix(0.015190972222222224,0,0,0.015190972222222224,96.70572916666669,0)" xlink:href="#L"/></g><g id="f"><use transform="matrix(0.015190972222222224,0,0,0.015190972222222224,0,0)" xlink:href="#P"/><use transform="matrix(0.015190972222222224,0,0,0.015190972222222224,17.773437500000004,0)" xlink:href="#Q"/><use transform="matrix(0.015190972222222224,0,0,0.015190972222222224,36.169704861111114,0)" xlink:href="#P"/><use transform="matrix(0.015190972222222224,0,0,0.015190972222222224,53.943142361111114,0)" xlink:href="#R"/><use transform="matrix(0.015190972222222224,0,0,0.015190972222222224,67.91883680555556,0)" xlink:href="#S"/><use transform="matrix(0.015190972222222224,0,0,0.015190972222222224,86.05685763888889,0)" xlink:href="#T"/><use transform="matrix(0.015190972222222224,0,0,0.015190972222222224,110.01302083333333,0)" xlink:href="#S"/></g><path d="M753 88v-195c-389-12-631-256-631-638s242-626 631-638v-195h190v195c389 12 631 256 631 638s-242 626-631 638V88H753zm0-371v-924c-289 13-448 176-448 462s159 449 448 462zm190-924v924c289-13 448-176 448-462s-159-449-448-462" id="ab"/><g id="g"><use transform="matrix(0.015190972222222224,0,0,0.015190972222222224,0,0)" xlink:href="#ab"/><use transform="matrix(0.015190972222222224,0,0,0.015190972222222224,25.763888888888893,0)" xlink:href="#M"/><use transform="matrix(0.015190972222222224,0,0,0.015190972222222224,44.418402777777786,0)" xlink:href="#Y"/><use transform="matrix(0.015190972222222224,0,0,0.015190972222222224,63.46788194444445,0)" xlink:href="#T"/><use transform="matrix(0.015190972222222224,0,0,0.015190972222222224,87.4240451388889,0)" xlink:href="#Q"/><use transform="matrix(0.015190972222222224,0,0,0.015190972222222224,105.82031250000001,0)" xlink:href="#Y"/><use transform="matrix(0.015190972222222224,0,0,0.015190972222222224,124.86979166666669,0)" xlink:href="#M"/><use transform="matrix(0.015190972222222224,0,0,0.015190972222222224,143.52430555555557,0)" xlink:href="#O"/><use transform="matrix(0.015190972222222224,0,0,0.015190972222222224,161.10026041666669,0)" xlink:href="#W"/><use transform="matrix(0.015190972222222224,0,0,0.015190972222222224,178.56987847222223,0)" xlink:href="#Z"/><use transform="matrix(0.015190972222222224,0,0,0.015190972222222224,196.96614583333334,0)" xlink:href="#Q"/><use transform="matrix(0.015190972222222224,0,0,0.015190972222222224,215.36241319444446,0)" xlink:href="#S"/></g><path d="M504 13C281 13 99-100 94-275h184c5 76 107 135 226 135 133 0 226-77 226-180 0-109-97-184-251-184h-73v-134h73c126 0 221-70 221-175 0-100-77-170-191-170-112 0-213 61-216 153H119c4-179 180-300 392-300 224 0 365 139 365 309 0 133-94 218-214 241v8c171 27 258 126 258 264 0 186-174 321-416 321" id="ac"/><g id="h"><use transform="matrix(0.015190972222222224,0,0,0.015190972222222224,0,0)" xlink:href="#ac"/><use transform="matrix(0.015190972222222224,0,0,0.015190972222222224,15.373263888888891,0)" xlink:href="#W"/><use transform="matrix(0.015190972222222224,0,0,0.015190972222222224,32.84288194444445,0)" xlink:href="#X"/><use transform="matrix(0.015190972222222224,0,0,0.015190972222222224,49.704861111111114,0)" xlink:href="#W"/><use transform="matrix(0.015190972222222224,0,0,0.015190972222222224,67.17447916666667,0)" xlink:href="#ac"/><use transform="matrix(0.015190972222222224,0,0,0.015190972222222224,82.54774305555556,0)" xlink:href="#W"/></g><path d="M1342-1490V0h-190v-1322H370V0H180v-1490h1162" id="ad"/><g id="i"><use transform="matrix(0.015190972222222224,0,0,0.015190972222222224,0,0)" xlink:href="#ad"/><use transform="matrix(0.015190972222222224,0,0,0.015190972222222224,23.120659722222225,0)" xlink:href="#Y"/><use transform="matrix(0.015190972222222224,0,0,0.015190972222222224,42.17013888888889,0)" xlink:href="#M"/><use transform="matrix(0.015190972222222224,0,0,0.015190972222222224,60.824652777777786,0)" xlink:href="#O"/><use transform="matrix(0.015190972222222224,0,0,0.015190972222222224,78.4006076388889,0)" xlink:href="#S"/><use transform="matrix(0.015190972222222224,0,0,0.015190972222222224,96.53862847222223,0)" xlink:href="#N"/><use transform="matrix(0.015190972222222224,0,0,0.015190972222222224,116.07421875,0)" xlink:href="#S"/><use transform="matrix(0.015190972222222224,0,0,0.015190972222222224,134.21223958333334,0)" xlink:href="#Z"/><use transform="matrix(0.015190972222222224,0,0,0.015190972222222224,152.60850694444446,0)" xlink:href="#Q"/><use transform="matrix(0.015190972222222224,0,0,0.015190972222222224,171.00477430555557,0)" xlink:href="#S"/></g><path d="M1046-1118V0H866v-952H339V0H158v-1118h888" id="ae"/><path d="M20 0v-166h40c130 0 171-81 186-454l20-498h754V0H839v-952H437l-17 394C398-160 328 21 20 0" id="af"/><g id="j"><use transform="matrix(0.015190972222222224,0,0,0.015190972222222224,0,0)" xlink:href="#M"/><use transform="matrix(0.015190972222222224,0,0,0.015190972222222224,18.65451388888889,0)" xlink:href="#ae"/><use transform="matrix(0.015190972222222224,0,0,0.015190972222222224,36.94444444444444,0)" xlink:href="#af"/><use transform="matrix(0.015190972222222224,0,0,0.015190972222222224,54.83940972222222,0)" xlink:href="#W"/><use transform="matrix(0.015190972222222224,0,0,0.015190972222222224,72.30902777777777,0)" xlink:href="#R"/><use transform="matrix(0.015190972222222224,0,0,0.015190972222222224,87.28732638888889,0)" xlink:href="#aa"/></g><path d="M65 0l449-569-443-549h213l368 475h89v-475h180v475h87l366-475h215l-442 549L1594 0h-217l-371-477h-85V0H741v-477h-85L283 0H65" id="ag"/><g id="k"><use transform="matrix(0.015190972222222224,0,0,0.015190972222222224,0,0)" xlink:href="#ad"/><use transform="matrix(0.015190972222222224,0,0,0.015190972222222224,23.120659722222225,0)" xlink:href="#M"/><use transform="matrix(0.015190972222222224,0,0,0.015190972222222224,41.775173611111114,0)" xlink:href="#N"/><use transform="matrix(0.015190972222222224,0,0,0.015190972222222224,61.31076388888889,0)" xlink:href="#R"/><use transform="matrix(0.015190972222222224,0,0,0.015190972222222224,76.28906250000001,0)" xlink:href="#O"/><use transform="matrix(0.015190972222222224,0,0,0.015190972222222224,93.86501736111113,0)" xlink:href="#S"/><use transform="matrix(0.015190972222222224,0,0,0.015190972222222224,112.00303819444446,0)" xlink:href="#Y"/><use transform="matrix(0.015190972222222224,0,0,0.015190972222222224,130.35373263888889,0)" xlink:href="#ag"/><use transform="matrix(0.015190972222222224,0,0,0.015190972222222224,155.55555555555554,0)" xlink:href="#N"/><use transform="matrix(0.015190972222222224,0,0,0.015190972222222224,175.09114583333331,0)" xlink:href="#S"/><use transform="matrix(0.015190972222222224,0,0,0.015190972222222224,193.22916666666666,0)" xlink:href="#Z"/><use transform="matrix(0.015190972222222224,0,0,0.015190972222222224,211.62543402777777,0)" xlink:href="#Q"/><use transform="matrix(0.015190972222222224,0,0,0.015190972222222224,230.02170138888889,0)" xlink:href="#S"/></g><g id="l"><use transform="matrix(0.015190972222222224,0,0,0.015190972222222224,0,0)" xlink:href="#ac"/><use transform="matrix(0.015190972222222224,0,0,0.015190972222222224,15.373263888888891,0)" xlink:href="#W"/><use transform="matrix(0.015190972222222224,0,0,0.015190972222222224,32.84288194444445,0)" xlink:href="#X"/><use transform="matrix(0.015190972222222224,0,0,0.015190972222222224,49.704861111111114,0)" xlink:href="#W"/><use transform="matrix(0.015190972222222224,0,0,0.015190972222222224,67.17447916666667,0)" xlink:href="#ac"/><use transform="matrix(0.015190972222222224,0,0,0.015190972222222224,82.54774305555556,0)" xlink:href="#W"/></g><path fill="#333" d="M135 0v-1490h305v605h172l423-605h362L867-765 1422 0h-362L611-636H440V0H135" id="ah"/><path fill="#333" d="M20 0v-239h36c106 0 151-84 162-364l19-515h872V0H809v-880H523l-14 327C491-151 357 0 119 0H20" id="ai"/><path fill="#333" d="M1148 0H847v-658h-9L382 0H128v-1118h300v655h8l453-655h259V0" id="aj"/><path fill="#333" d="M633 22C291 22 81-200 81-553c0-345 210-579 537-579 292 0 525 185 525 567v84H378c7 183 109 277 260 277 105 0 184-46 216-132l272 51C1071-99 893 22 633 22zM380-669h474c-15-146-94-237-233-237-143 0-229 99-241 237" id="ak"/><path fill="#333" d="M428-1118v439h419v-439h301V0H847v-440H428V0H128v-1118h300" id="al"/><path fill="#333" d="M373 0v-882H20v-236h1005v236H673V0H373" id="am"/><g id="m"><use transform="matrix(0.015190972222222224,0,0,0.015190972222222224,0,0)" xlink:href="#ah"/><use transform="matrix(0.015190972222222224,0,0,0.015190972222222224,22.376302083333336,0)" xlink:href="#ai"/><use transform="matrix(0.015190972222222224,0,0,0.015190972222222224,41.16753472222223,0)" xlink:href="#aj"/><use transform="matrix(0.015190972222222224,0,0,0.015190972222222224,60.536024305555564,0)" xlink:href="#ak"/><use transform="matrix(0.015190972222222224,0,0,0.015190972222222224,79.06901041666669,0)" xlink:href="#al"/><use transform="matrix(0.015190972222222224,0,0,0.015190972222222224,98.43750000000003,0)" xlink:href="#am"/></g><path fill="#333" d="M49 0l509-1490h400L1480 0h-339l-115-346H497L386 0H49zm524-585h374c-75-213-124-402-192-666-66 268-110 453-182 666" id="an"/><path fill="#333" d="M36 327v-566h86c97-65 120-281 138-507l30-372h847v879h172v566h-286V0H329v327H36zm388-566h430v-645H544l-11 138c-16 240-43 403-109 507" id="ao"/><path fill="#333" d="M128 0v-1118h458l155 440c37 111 69 283 91 428 24-144 58-317 92-428l151-440h460V0h-292c-1-328-1-552 10-898-80 355-187 591-296 898H705C597-299 487-543 409-886c11 337 11 564 10 886H128" id="ap"/><path fill="#333" d="M628 22C291 22 81-210 81-554c0-346 210-578 547-578 265 0 455 142 497 372l-279 52c-25-116-99-188-215-188-160 0-244 139-244 341 0 200 84 341 244 341 116 0 193-74 217-195l279 51C1085-123 896 22 628 22" id="aq"/><path fill="#333" d="M128 418v-1536h295v188h14c41-89 129-202 319-202 248 0 453 193 453 575 0 372-197 576-455 576-183 0-275-108-317-198h-9v597H128zm534-640c156 0 240-139 240-336 0-196-83-334-240-334-154 0-241 131-241 334 0 202 88 336 241 336" id="ar"/><path fill="#333" d="M440 22C227 22 68-92 68-313c0-250 202-322 422-343 195-21 271-24 271-105 0-95-63-149-175-149-116 0-187 57-211 129l-275-46c57-194 237-305 487-305 240 0 474 108 474 379V0H777v-155h-10C713-51 605 22 440 22zm85-211c140 0 238-93 238-211v-121c-37 26-156 42-222 51-111 16-185 59-185 149 0 87 70 132 169 132" id="as"/><path fill="#333" d="M628 22C291 22 81-210 81-554c0-346 210-578 547-578 336 0 547 232 547 578 0 344-211 576-547 576zm0-236c160 0 242-146 242-341 0-197-82-341-242-341S387-753 387-555c0 195 81 341 241 341" id="at"/><g id="n"><use transform="matrix(0.015190972222222224,0,0,0.015190972222222224,0,0)" xlink:href="#an"/><use transform="matrix(0.015190972222222224,0,0,0.015190972222222224,23.22699652777778,0)" xlink:href="#ao"/><use transform="matrix(0.015190972222222224,0,0,0.015190972222222224,44.008246527777786,0)" xlink:href="#ap"/><use transform="matrix(0.015190972222222224,0,0,0.015190972222222224,69.27083333333334,0)" xlink:href="#aj"/><use transform="matrix(0.015190972222222224,0,0,0.015190972222222224,88.63932291666669,0)" xlink:href="#al"/><use transform="matrix(0.015190972222222224,0,0,0.015190972222222224,108.00781250000003,0)" xlink:href="#aj"/><use transform="matrix(0.015190972222222224,0,0,0.015190972222222224,127.37630208333337,0)" xlink:href="#aq"/><use transform="matrix(0.015190972222222224,0,0,0.015190972222222224,145.68142361111114,0)" xlink:href="#am"/><use transform="matrix(0.015190972222222224,0,0,0.015190972222222224,161.7838541666667,0)" xlink:href="#ar"/><use transform="matrix(0.015190972222222224,0,0,0.015190972222222224,181.69921875000006,0)" xlink:href="#as"/><use transform="matrix(0.015190972222222224,0,0,0.015190972222222224,199.76128472222229,0)" xlink:href="#am"/><use transform="matrix(0.015190972222222224,0,0,0.015190972222222224,214.8763020833334,0)" xlink:href="#at"/><use transform="matrix(0.015190972222222224,0,0,0.015190972222222224,233.9561631944445,0)" xlink:href="#ar"/></g><path fill="#333" d="M1395-1490V0h-306v-1237H440V0H135v-1490h1260" id="au"/><path fill="#333" d="M128 0v-1118h474c273 0 443 110 443 302 0 121-92 205-252 233 195 15 313 130 313 279C1106-115 951 0 675 0H128zm279-228h268c88 0 141-44 141-117 0-82-53-132-141-132H407v249zm0-429h201c96 0 153-44 153-115s-61-113-159-113H407v228" id="av"/><g id="o"><use transform="matrix(0.015190972222222224,0,0,0.015190972222222224,0,0)" xlink:href="#au"/><use transform="matrix(0.015190972222222224,0,0,0.015190972222222224,23.242187500000004,0)" xlink:href="#ar"/><use transform="matrix(0.015190972222222224,0,0,0.015190972222222224,43.157552083333336,0)" xlink:href="#as"/><use transform="matrix(0.015190972222222224,0,0,0.015190972222222224,61.21961805555556,0)" xlink:href="#av"/><use transform="matrix(0.015190972222222224,0,0,0.015190972222222224,79.16015625,0)" xlink:href="#aj"/><use transform="matrix(0.015190972222222224,0,0,0.015190972222222224,98.52864583333334,0)" xlink:href="#ai"/><use transform="matrix(0.015190972222222224,0,0,0.015190972222222224,117.31987847222223,0)" xlink:href="#as"/></g><path fill="#333" d="M1128-1118V0H828v-880H428V0H128v-1118h1000" id="aw"/><path fill="#333" d="M428-769h228c295 0 470 154 470 385C1126-157 951 0 656 0H128v-1118h300v349zm0 238v293h228c108 0 177-56 177-143 0-92-69-150-177-150H428" id="ax"/><path fill="#333" d="M528 15C246 15 76-140 74-338h294c1 71 67 118 157 118 95 0 157-54 157-126 0-83-66-132-175-132h-89v-178h89c96 0 161-47 161-127 0-72-54-123-138-123s-148 44-150 115H96c2-198 181-341 438-341 250 0 418 136 418 319 0 130-97 216-227 230v5c177 20 267 124 267 260 0 194-189 333-464 333" id="ay"/><path fill="#333" d="M1055 0H771v-380H587L359 0H32l262-424C154-482 79-594 79-740c0-228 165-378 461-378h515V0zM771-593v-291H578c-141 0-203 52-203 147 0 93 63 144 206 144h190" id="az"/><g id="p"><use transform="matrix(0.015190972222222224,0,0,0.015190972222222224,0,0)" xlink:href="#aw"/><use transform="matrix(0.015190972222222224,0,0,0.015190972222222224,19.079861111111114,0)" xlink:href="#at"/><use transform="matrix(0.015190972222222224,0,0,0.015190972222222224,38.15972222222223,0)" xlink:href="#ai"/><use transform="matrix(0.015190972222222224,0,0,0.015190972222222224,56.950954861111114,0)" xlink:href="#ax"/><use transform="matrix(0.015190972222222224,0,0,0.015190972222222224,75.30164930555556,0)" xlink:href="#ay"/><use transform="matrix(0.015190972222222224,0,0,0.015190972222222224,91.44965277777779,0)" xlink:href="#at"/><use transform="matrix(0.015190972222222224,0,0,0.015190972222222224,110.5295138888889,0)" xlink:href="#av"/><use transform="matrix(0.015190972222222224,0,0,0.015190972222222224,128.47005208333334,0)" xlink:href="#as"/><use transform="matrix(0.015190972222222224,0,0,0.015190972222222224,146.53211805555557,0)" xlink:href="#al"/><use transform="matrix(0.015190972222222224,0,0,0.015190972222222224,165.9006076388889,0)" xlink:href="#aj"/><use transform="matrix(0.015190972222222224,0,0,0.015190972222222224,185.26909722222226,0)" xlink:href="#az"/></g><path fill="#333" d="M659 20C335 20 103-159 99-418h307c5 112 113 185 254 185 147 0 250-83 250-204 0-123-105-209-278-209H494v-227h138c145 0 246-81 246-200 0-115-87-193-216-193-130 0-237 73-240 189H128c4-255 233-433 536-433 306 0 510 185 510 418 0 167-114 285-279 317v11c217 29 333 162 333 347 0 254-237 437-569 437" id="aA"/><path fill="#333" d="M128 0v-1118h300v456h85l316-456h353L783-564 1186 0H829L543-424H428V0H128" id="aB"/><g id="q"><use transform="matrix(0.015190972222222224,0,0,0.015190972222222224,0,0)" xlink:href="#aA"/><use transform="matrix(0.015190972222222224,0,0,0.015190972222222224,20.08246527777778,0)" xlink:href="#as"/><use transform="matrix(0.015190972222222224,0,0,0.015190972222222224,38.14453125,0)" xlink:href="#aB"/><use transform="matrix(0.015190972222222224,0,0,0.015190972222222224,55.583767361111114,0)" xlink:href="#at"/><use transform="matrix(0.015190972222222224,0,0,0.015190972222222224,74.66362847222223,0)" xlink:href="#al"/><use transform="matrix(0.015190972222222224,0,0,0.015190972222222224,94.03211805555557,0)" xlink:href="#at"/><use transform="matrix(0.015190972222222224,0,0,0.015190972222222224,113.11197916666669,0)" xlink:href="#ao"/><use transform="matrix(0.015190972222222224,0,0,0.015190972222222224,133.89322916666669,0)" xlink:href="#as"/><use transform="matrix(0.015190972222222224,0,0,0.015190972222222224,151.9552951388889,0)" xlink:href="#am"/><use transform="matrix(0.015190972222222224,0,0,0.015190972222222224,167.07031250000003,0)" xlink:href="#ak"/><use transform="matrix(0.015190972222222224,0,0,0.015190972222222224,185.60329861111114,0)" xlink:href="#ai"/><use transform="matrix(0.015190972222222224,0,0,0.015190972222222224,204.39453125000003,0)" xlink:href="#ax"/><use transform="matrix(0.015190972222222224,0,0,0.015190972222222224,222.74522569444449,0)" xlink:href="#aq"/><use transform="matrix(0.015190972222222224,0,0,0.015190972222222224,241.05034722222226,0)" xlink:href="#am"/><use transform="matrix(0.015190972222222224,0,0,0.015190972222222224,257.1527777777778,0)" xlink:href="#av"/><use transform="matrix(0.015190972222222224,0,0,0.015190972222222224,275.0933159722223,0)" xlink:href="#at"/></g><path fill="#333" d="M135 0v-1490h581c339 0 533 210 533 503 0 295-197 500-540 500H440V0H135zm305-733h220c186 0 274-104 274-254s-88-251-275-251H440v505" id="aC"/><path fill="#333" d="M704 88v-192C318-135 94-376 94-745s224-611 610-642v-191h303v191c386 31 610 273 610 642s-224 610-610 641V88H704zm303-1222v777c211-28 310-157 310-388s-99-360-310-389zM704-357v-777c-210 29-310 158-310 389s100 360 310 388" id="aD"/><g id="r"><use transform="matrix(0.015190972222222224,0,0,0.015190972222222224,0,0)" xlink:href="#aC"/><use transform="matrix(0.015190972222222224,0,0,0.015190972222222224,20.15842013888889,0)" xlink:href="#aD"/></g><path fill="#333" d="M789 20C394 20 94-260 94-744c0-487 300-766 695-766s695 279 695 766c0 485-300 764-695 764zm0-271c231 0 385-174 385-493 0-321-154-495-385-495s-385 175-385 495c0 319 154 493 385 493" id="aE"/><path fill="#333" d="M1046-1528l95 196c-97 80-214 87-437 91-255 3-362 114-388 393h11c67-136 190-213 367-213 284 0 475 196 475 524 0 342-208 559-542 559C291 22 81-195 81-603v-92c8-571 223-795 705-795 119 0 206 1 260-38zM628-212c147 0 236-121 236-315s-89-304-237-304-239 110-239 304c0 193 90 315 240 315" id="aF"/><g id="s"><use transform="matrix(0.015190972222222224,0,0,0.015190972222222224,0,0)" xlink:href="#aE"/><use transform="matrix(0.015190972222222224,0,0,0.015190972222222224,23.971354166666668,0)" xlink:href="#aF"/><use transform="matrix(0.015190972222222224,0,0,0.015190972222222224,42.96006944444444,0)" xlink:href="#al"/><use transform="matrix(0.015190972222222224,0,0,0.015190972222222224,62.328559027777786,0)" xlink:href="#at"/><use transform="matrix(0.015190972222222224,0,0,0.015190972222222224,81.40842013888889,0)" xlink:href="#av"/><use transform="matrix(0.015190972222222224,0,0,0.015190972222222224,99.34895833333333,0)" xlink:href="#ai"/><use transform="matrix(0.015190972222222224,0,0,0.015190972222222224,118.14019097222221,0)" xlink:href="#ak"/><use transform="matrix(0.015190972222222224,0,0,0.015190972222222224,136.67317708333331,0)" xlink:href="#al"/><use transform="matrix(0.015190972222222224,0,0,0.015190972222222224,156.04166666666666,0)" xlink:href="#aj"/><use transform="matrix(0.015190972222222224,0,0,0.015190972222222224,175.41015625,0)" xlink:href="#ak"/></g><path fill="#333" d="M135 0v-1490h979v250H440v359h318c300 0 487 153 487 424 0 280-187 457-487 457H135zm305-241h274c147 0 237-83 237-213 0-123-90-204-237-204H440v417" id="aG"/><path fill="#333" d="M75 320v-573h140c101-74 179-213 211-607l50-630h1039v1237h188v573h-301V0H375v320H75zm490-573h647v-984H758l-31 377c-24 292-82 495-162 607" id="aH"/><g id="t"><use transform="matrix(0.015190972222222224,0,0,0.015190972222222224,0,0)" xlink:href="#aG"/><use transform="matrix(0.015190972222222224,0,0,0.015190972222222224,20.128038194444446,0)" xlink:href="#aH"/></g><path fill="#333" d="M655 380V22C317 22 81-213 81-554c0-343 236-578 574-578v-358h301v358c339 0 575 235 575 578 0 341-236 576-575 576v358H655zM956-896v682c170-1 267-151 267-340 0-190-97-342-267-342zM655-214v-682c-170 0-265 152-265 342 0 188 97 339 265 340" id="aI"/><g id="u"><use transform="matrix(0.015190972222222224,0,0,0.015190972222222224,0,0)" xlink:href="#au"/><use transform="matrix(0.015190972222222224,0,0,0.015190972222222224,23.242187500000004,0)" xlink:href="#ar"/><use transform="matrix(0.015190972222222224,0,0,0.015190972222222224,42.85373263888889,0)" xlink:href="#at"/><use transform="matrix(0.015190972222222224,0,0,0.015190972222222224,61.93359375000001,0)" xlink:href="#aI"/><use transform="matrix(0.015190972222222224,0,0,0.015190972222222224,86.42144097222223,0)" xlink:href="#aj"/><use transform="matrix(0.015190972222222224,0,0,0.015190972222222224,105.78993055555557,0)" xlink:href="#ai"/><use transform="matrix(0.015190972222222224,0,0,0.015190972222222224,124.58116319444446,0)" xlink:href="#ax"/></g><g id="v"><use transform="matrix(0.015190972222222224,0,0,0.015190972222222224,0,0)" xlink:href="#aw"/><use transform="matrix(0.015190972222222224,0,0,0.015190972222222224,19.079861111111114,0)" xlink:href="#at"/><use transform="matrix(0.015190972222222224,0,0,0.015190972222222224,38.15972222222223,0)" xlink:href="#ai"/><use transform="matrix(0.015190972222222224,0,0,0.015190972222222224,56.950954861111114,0)" xlink:href="#ax"/><use transform="matrix(0.015190972222222224,0,0,0.015190972222222224,75.30164930555556,0)" xlink:href="#ay"/><use transform="matrix(0.015190972222222224,0,0,0.015190972222222224,91.44965277777779,0)" xlink:href="#at"/><use transform="matrix(0.015190972222222224,0,0,0.015190972222222224,110.5295138888889,0)" xlink:href="#av"/><use transform="matrix(0.015190972222222224,0,0,0.015190972222222224,128.47005208333334,0)" xlink:href="#as"/><use transform="matrix(0.015190972222222224,0,0,0.015190972222222224,146.53211805555557,0)" xlink:href="#am"/><use transform="matrix(0.015190972222222224,0,0,0.015190972222222224,161.64713541666669,0)" xlink:href="#ak"/><use transform="matrix(0.015190972222222224,0,0,0.015190972222222224,180.1801215277778,0)" xlink:href="#ai"/><use transform="matrix(0.015190972222222224,0,0,0.015190972222222224,198.97135416666669,0)" xlink:href="#az"/></g><g id="w"><use transform="matrix(0.015190972222222224,0,0,0.015190972222222224,0,0)" xlink:href="#aA"/><use transform="matrix(0.015190972222222224,0,0,0.015190972222222224,20.08246527777778,0)" xlink:href="#as"/><use transform="matrix(0.015190972222222224,0,0,0.015190972222222224,38.14453125,0)" xlink:href="#aw"/><use transform="matrix(0.015190972222222224,0,0,0.015190972222222224,57.224392361111114,0)" xlink:href="#ar"/><use transform="matrix(0.015190972222222224,0,0,0.015190972222222224,76.8359375,0)" xlink:href="#at"/><use transform="matrix(0.015190972222222224,0,0,0.015190972222222224,95.91579861111111,0)" xlink:href="#aq"/></g><g id="x"><use transform="matrix(0.015190972222222224,0,0,0.015190972222222224,0,0)" xlink:href="#al"/><use transform="matrix(0.015190972222222224,0,0,0.015190972222222224,19.368489583333336,0)" xlink:href="#as"/></g><g id="y"><use transform="matrix(0.015190972222222224,0,0,0.015190972222222224,0,0)" xlink:href="#ar"/><use transform="matrix(0.015190972222222224,0,0,0.015190972222222224,19.61154513888889,0)" xlink:href="#ak"/><use transform="matrix(0.015190972222222224,0,0,0.015190972222222224,38.14453125,0)" xlink:href="#ao"/><use transform="matrix(0.015190972222222224,0,0,0.015190972222222224,58.92578125,0)" xlink:href="#as"/><use transform="matrix(0.015190972222222224,0,0,0.015190972222222224,76.98784722222223,0)" xlink:href="#aB"/><use transform="matrix(0.015190972222222224,0,0,0.015190972222222224,95.12586805555557,0)" xlink:href="#am"/><use transform="matrix(0.015190972222222224,0,0,0.015190972222222224,111.22829861111113,0)" xlink:href="#aj"/><use transform="matrix(0.015190972222222224,0,0,0.015190972222222224,130.59678819444446,0)" xlink:href="#ar"/><use transform="matrix(0.015190972222222224,0,0,0.015190972222222224,150.20833333333334,0)" xlink:href="#at"/><use transform="matrix(0.015190972222222224,0,0,0.015190972222222224,169.28819444444446,0)" xlink:href="#av"/><use transform="matrix(0.015190972222222224,0,0,0.015190972222222224,187.2287326388889,0)" xlink:href="#as"/><use transform="matrix(0.015190972222222224,0,0,0.015190972222222224,205.29079861111114,0)" xlink:href="#al"/><use transform="matrix(0.015190972222222224,0,0,0.015190972222222224,224.65928819444449,0)" xlink:href="#aj"/><use transform="matrix(0.015190972222222224,0,0,0.015190972222222224,244.02777777777783,0)" xlink:href="#ak"/></g><path fill="#333" d="M891-1118v238H428V0H128v-1118h763" id="aJ"/><path fill="#333" d="M428-769h228c295 0 470 154 470 385C1126-157 951 0 656 0H128v-1118h300v349zM1224 0v-1118h300V0h-300zM428-531v293h228c108 0 177-56 177-143 0-92-69-150-177-150H428" id="aK"/><path fill="#333" d="M1148 0H847v-658h-9L382 0H128v-1118h300v655h8l453-655h259V0zM637-1256c-195 0-345-137-345-311h176c0 84 73 147 169 147 97 0 169-63 169-147h176c0 174-149 311-345 311" id="aL"/><g id="z"><use transform="matrix(0.015190972222222224,0,0,0.015190972222222224,0,0)" xlink:href="#aA"/><use transform="matrix(0.015190972222222224,0,0,0.015190972222222224,20.08246527777778,0)" xlink:href="#as"/><use transform="matrix(0.015190972222222224,0,0,0.015190972222222224,38.14453125,0)" xlink:href="#ar"/><use transform="matrix(0.015190972222222224,0,0,0.015190972222222224,57.756076388888886,0)" xlink:href="#ak"/><use transform="matrix(0.015190972222222224,0,0,0.015190972222222224,76.2890625,0)" xlink:href="#aJ"/><use transform="matrix(0.015190972222222224,0,0,0.015190972222222224,90.59895833333333,0)" xlink:href="#aj"/><use transform="matrix(0.015190972222222224,0,0,0.015190972222222224,109.96744791666666,0)" xlink:href="#aq"/><use transform="matrix(0.015190972222222224,0,0,0.015190972222222224,128.27256944444443,0)" xlink:href="#am"/><use transform="matrix(0.015190972222222224,0,0,0.015190972222222224,144.375,0)" xlink:href="#ar"/><use transform="matrix(0.015190972222222224,0,0,0.015190972222222224,163.98654513888889,0)" xlink:href="#aj"/><use transform="matrix(0.015190972222222224,0,0,0.015190972222222224,183.35503472222223,0)" xlink:href="#ar"/><use transform="matrix(0.015190972222222224,0,0,0.015190972222222224,202.96657986111111,0)" xlink:href="#at"/><use transform="matrix(0.015190972222222224,0,0,0.015190972222222224,222.04644097222223,0)" xlink:href="#av"/><use transform="matrix(0.015190972222222224,0,0,0.015190972222222224,239.98697916666669,0)" xlink:href="#as"/><use transform="matrix(0.015190972222222224,0,0,0.015190972222222224,258.0490451388889,0)" xlink:href="#al"/><use transform="matrix(0.015190972222222224,0,0,0.015190972222222224,277.41753472222223,0)" xlink:href="#al"/><use transform="matrix(0.015190972222222224,0,0,0.015190972222222224,296.78602430555554,0)" xlink:href="#aK"/><use transform="matrix(0.015190972222222224,0,0,0.015190972222222224,321.88151041666663,0)" xlink:href="#aL"/></g><g id="A"><use transform="matrix(0.015190972222222224,0,0,0.015190972222222224,0,0)" xlink:href="#ay"/><use transform="matrix(0.015190972222222224,0,0,0.015190972222222224,16.148003472222225,0)" xlink:href="#as"/><use transform="matrix(0.015190972222222224,0,0,0.015190972222222224,34.21006944444445,0)" xlink:href="#aB"/><use transform="matrix(0.015190972222222224,0,0,0.015190972222222224,52.348090277777786,0)" xlink:href="#as"/><use transform="matrix(0.015190972222222224,0,0,0.015190972222222224,70.41015625000001,0)" xlink:href="#ay"/></g><g id="B"><use transform="matrix(0.015190972222222224,0,0,0.015190972222222224,0,0)" xlink:href="#al"/><use transform="matrix(0.015190972222222224,0,0,0.015190972222222224,19.368489583333336,0)" xlink:href="#as"/></g><g id="C"><use transform="matrix(0.015190972222222224,0,0,0.015190972222222224,0,0)" xlink:href="#aI"/><use transform="matrix(0.015190972222222224,0,0,0.015190972222222224,24.487847222222225,0)" xlink:href="#at"/><use transform="matrix(0.015190972222222224,0,0,0.015190972222222224,43.56770833333334,0)" xlink:href="#ar"/><use transform="matrix(0.015190972222222224,0,0,0.015190972222222224,63.17925347222223,0)" xlink:href="#ap"/><use transform="matrix(0.015190972222222224,0,0,0.015190972222222224,88.44184027777779,0)" xlink:href="#aj"/><use transform="matrix(0.015190972222222224,0,0,0.015190972222222224,107.81032986111111,0)" xlink:href="#ar"/><use transform="matrix(0.015190972222222224,0,0,0.015190972222222224,127.42187500000001,0)" xlink:href="#at"/><use transform="matrix(0.015190972222222224,0,0,0.015190972222222224,146.50173611111111,0)" xlink:href="#av"/><use transform="matrix(0.015190972222222224,0,0,0.015190972222222224,164.44227430555557,0)" xlink:href="#as"/><use transform="matrix(0.015190972222222224,0,0,0.015190972222222224,182.5043402777778,0)" xlink:href="#al"/><use transform="matrix(0.015190972222222224,0,0,0.015190972222222224,201.87282986111114,0)" xlink:href="#aj"/><use transform="matrix(0.015190972222222224,0,0,0.015190972222222224,221.24131944444449,0)" xlink:href="#ak"/></g><path fill="#333" d="M42 0l396-580-393-538h343l297 441h51v-441h299v441h50l296-441h344l-392 538L1727 0h-351l-293-440h-48V0H736v-440h-48L394 0H42" id="aM"/><g id="D"><use transform="matrix(0.015190972222222224,0,0,0.015190972222222224,0,0)" xlink:href="#aw"/><use transform="matrix(0.015190972222222224,0,0,0.015190972222222224,19.079861111111114,0)" xlink:href="#at"/><use transform="matrix(0.015190972222222224,0,0,0.015190972222222224,38.15972222222223,0)" xlink:href="#ao"/><use transform="matrix(0.015190972222222224,0,0,0.015190972222222224,58.94097222222223,0)" xlink:href="#am"/><use transform="matrix(0.015190972222222224,0,0,0.015190972222222224,75.04340277777779,0)" xlink:href="#av"/><use transform="matrix(0.015190972222222224,0,0,0.015190972222222224,92.98394097222223,0)" xlink:href="#ak"/><use transform="matrix(0.015190972222222224,0,0,0.015190972222222224,111.51692708333334,0)" xlink:href="#ar"/><use transform="matrix(0.015190972222222224,0,0,0.015190972222222224,130.50564236111111,0)" xlink:href="#aM"/><use transform="matrix(0.015190972222222224,0,0,0.015190972222222224,157.39366319444446,0)" xlink:href="#ao"/><use transform="matrix(0.015190972222222224,0,0,0.015190972222222224,178.17491319444446,0)" xlink:href="#ak"/><use transform="matrix(0.015190972222222224,0,0,0.015190972222222224,196.70789930555557,0)" xlink:href="#al"/><use transform="matrix(0.015190972222222224,0,0,0.015190972222222224,216.0763888888889,0)" xlink:href="#aj"/><use transform="matrix(0.015190972222222224,0,0,0.015190972222222224,235.44487847222226,0)" xlink:href="#ak"/></g><g id="E"><use transform="matrix(0.015190972222222224,0,0,0.015190972222222224,0,0)" xlink:href="#aD"/><use transform="matrix(0.015190972222222224,0,0,0.015190972222222224,25.991753472222225,0)" xlink:href="#aj"/><use transform="matrix(0.015190972222222224,0,0,0.015190972222222224,45.36024305555556,0)" xlink:href="#al"/><use transform="matrix(0.015190972222222224,0,0,0.015190972222222224,64.72873263888889,0)" xlink:href="#as"/><use transform="matrix(0.015190972222222224,0,0,0.015190972222222224,82.79079861111111,0)" xlink:href="#al"/><use transform="matrix(0.015190972222222224,0,0,0.015190972222222224,102.15928819444446,0)" xlink:href="#aq"/><use transform="matrix(0.015190972222222224,0,0,0.015190972222222224,120.46440972222223,0)" xlink:href="#at"/><use transform="matrix(0.015190972222222224,0,0,0.015190972222222224,139.54427083333334,0)" xlink:href="#av"/><use transform="matrix(0.015190972222222224,0,0,0.015190972222222224,157.4848090277778,0)" xlink:href="#aK"/><use transform="matrix(0.015190972222222224,0,0,0.015190972222222224,182.5802951388889,0)" xlink:href="#aL"/></g><path fill="#333" d="M120 396l69-226c123 42 245 23 254-107l8-60L31-1118h319c87 288 199 559 259 872 72-308 185-583 277-872h315L726 132c-68 181-186 294-410 294-79 0-153-13-196-30" id="aN"/><g id="F"><use transform="matrix(0.015190972222222224,0,0,0.015190972222222224,0,0)" xlink:href="#ao"/><use transform="matrix(0.015190972222222224,0,0,0.015190972222222224,20.781250000000004,0)" xlink:href="#at"/><use transform="matrix(0.015190972222222224,0,0,0.015190972222222224,39.861111111111114,0)" xlink:href="#aB"/><use transform="matrix(0.015190972222222224,0,0,0.015190972222222224,58.24218750000001,0)" xlink:href="#aN"/><use transform="matrix(0.015190972222222224,0,0,0.015190972222222224,76.97265625000001,0)" xlink:href="#ap"/><use transform="matrix(0.015190972222222224,0,0,0.015190972222222224,102.23524305555557,0)" xlink:href="#ak"/><use transform="matrix(0.015190972222222224,0,0,0.015190972222222224,120.76822916666669,0)" xlink:href="#al"/><use transform="matrix(0.015190972222222224,0,0,0.015190972222222224,140.13671875000003,0)" xlink:href="#am"/></g><path fill="#333" d="M135 0v-1490h591c327 0 492 160 492 383 0 177-115 286-268 320v15c168 8 326 140 326 361 0 236-176 411-512 411H135zm305-251h264c179 0 258-76 258-189 0-125-97-215-250-215H440v404zm0-613h241c131 0 228-74 228-194 0-109-79-183-222-183H440v377" id="aO"/><g id="G"><use transform="matrix(0.015190972222222224,0,0,0.015190972222222224,0,0)" xlink:href="#aO"/><use transform="matrix(0.015190972222222224,0,0,0.015190972222222224,20.583767361111114,0)" xlink:href="#aK"/><use transform="matrix(0.015190972222222224,0,0,0.015190972222222224,45.67925347222223,0)" xlink:href="#aw"/><use transform="matrix(0.015190972222222224,0,0,0.015190972222222224,64.75911458333334,0)" xlink:href="#aj"/><use transform="matrix(0.015190972222222224,0,0,0.015190972222222224,84.12760416666669,0)" xlink:href="#aq"/><use transform="matrix(0.015190972222222224,0,0,0.015190972222222224,102.43272569444446,0)" xlink:href="#aB"/><use transform="matrix(0.015190972222222224,0,0,0.015190972222222224,120.5707465277778,0)" xlink:href="#as"/></g><g id="H"><use transform="matrix(0.015190972222222224,0,0,0.015190972222222224,0,0)" xlink:href="#aF"/><use transform="matrix(0.015190972222222224,0,0,0.015190972222222224,18.98871527777778,0)" xlink:href="#as"/><use transform="matrix(0.015190972222222224,0,0,0.015190972222222224,37.05078125,0)" xlink:href="#al"/><use transform="matrix(0.015190972222222224,0,0,0.015190972222222224,56.419270833333336,0)" xlink:href="#aB"/><use transform="matrix(0.015190972222222224,0,0,0.015190972222222224,74.55729166666667,0)" xlink:href="#as"/></g><path fill="#333" d="M135 0v-1490h305v602h649v-602h306V0h-306v-635H440V0H135" id="aP"/><g id="I"><use transform="matrix(0.015190972222222224,0,0,0.015190972222222224,0,0)" xlink:href="#aP"/><use transform="matrix(0.015190972222222224,0,0,0.015190972222222224,23.242187500000004,0)" xlink:href="#at"/><use transform="matrix(0.015190972222222224,0,0,0.015190972222222224,42.322048611111114,0)" xlink:href="#av"/><use transform="matrix(0.015190972222222224,0,0,0.015190972222222224,60.26258680555556,0)" xlink:href="#aK"/><use transform="matrix(0.015190972222222224,0,0,0.015190972222222224,85.35807291666667,0)" xlink:href="#ak"/></g><g id="J"><use transform="matrix(0.015190972222222224,0,0,0.015190972222222224,0,0)" xlink:href="#ao"/><use transform="matrix(0.015190972222222224,0,0,0.015190972222222224,20.781250000000004,0)" xlink:href="#as"/><use transform="matrix(0.015190972222222224,0,0,0.015190972222222224,38.84331597222223,0)" xlink:href="#al"/><use transform="matrix(0.015190972222222224,0,0,0.015190972222222224,58.211805555555564,0)" xlink:href="#al"/><use transform="matrix(0.015190972222222224,0,0,0.015190972222222224,77.5802951388889,0)" xlink:href="#aK"/><use transform="matrix(0.015190972222222224,0,0,0.015190972222222224,102.67578125000001,0)" xlink:href="#ak"/></g></defs></g></svg>