<?xml version="1.0" encoding="utf-8"?>
<!DOCTYPE svg PUBLIC "-//W3C//DTD SVG 1.0//EN" "http://www.w3.org/TR/2001/REC-SVG-20010904/DTD/svg10.dtd">
<svg version="1.0" xmlns="http://www.w3.org/2000/svg" width="570px" height="365px" viewBox="0 0 570 365" preserveAspectRatio="xMidYMid meet">
 <g fill="#1f1f1f">
  <path d="M278.25 351.20 c-37.70 -1.50 -71.65 -14.10 -100.65 -37.35 -35.35 -28.40 -57.85 -70.75 -61.65 -116.15 -0.70 -8.65 -0.30 -29.75 0.75 -37.65 2.70 -20.10 7.70 -36.30 16.80 -54.30 18.40 -36.45 49.70 -64.90 88.05 -80.20 14.25 -5.65 29.85 -9.40 46.20 -11.05 7.20 -0.75 26.90 -0.75 34.50 0 43.85 4.30 83 24.45 111.80 57.50 20.75 23.85 34.05 52.90 38.95 85.25 1.40 8.90 1.95 31.20 1.05 41.30 -1.85 20.90 -7.55 41 -17.05 59.95 -8.15 16.45 -18.35 30.40 -31.75 43.75 -27.30 27.20 -61.80 43.65 -100.30 47.95 -7.05 0.75 -19.95 1.25 -26.70 1z m-3.55 -13.55 c-0.80 -2.30 -0.90 -5.75 -0.15 -8.30 0.60 -2.15 3 -5.15 4.55 -5.65 0.95 -0.30 0.90 -0.40 -0.75 -1.75 -0.95 -0.80 -2.20 -2.30 -2.70 -3.40 l-1 -2 -1.20 1.80 c-1.95 3 -4 3.90 -8.95 3.90 -5.60 0 -7.75 -0.80 -9 -3.25 -0.55 -1.10 -1 -2.50 -1 -3.10 0 -2.15 -0.70 -2.50 -2.05 -1.10 -2 2.15 -3.60 2.70 -7.70 2.70 -4.30 0 -6.30 -0.70 -8.55 -3.05 -1.35 -1.45 -1.45 -1.75 -1.45 -5.85 0.05 -3.95 0.20 -4.75 1.85 -8.35 1.10 -2.45 1.90 -5.05 2.05 -6.65 0.20 -2.60 0.10 -2.45 -5.45 7.95 l-5.70 10.65 0.75 2.15 c1.40 4.15 0.70 8.50 -1.80 11.40 -1.75 2 -1.90 1.85 4 3.95 3.60 1.30 5.20 1.45 3.10 0.35 -2.40 -1.30 -3.35 -5.75 -1.60 -7.50 1.40 -1.40 3.80 -1.70 10.95 -1.40 10.15 0.40 20.80 3.75 25 7.85 1.35 1.40 1.60 1.95 1.60 4.05 0 2.90 -0.65 3.40 -5.50 4.20 l-3.25 0.55 5.50 0.65 c3.05 0.35 5.85 0.70 6.25 0.80 0.40 0.05 1.25 0.15 1.80 0.20 1.05 0.05 1.05 -0.05 0.40 -1.80z m31.05 0.55 c7.10 -1 15.65 -2.80 22.35 -4.75 4.95 -1.45 5.35 -1.65 4.85 -2.55 -0.30 -0.55 -0.45 -2.35 -0.40 -4 0.10 -2.85 0.05 -3.05 -1.20 -3.70 -1.60 -0.85 -2.35 -2.15 -2.35 -4.05 l0 -1.45 -3.60 0 c-3.95 0 -5.25 -0.50 -7.75 -2.85 l-1.60 -1.50 -0.30 1.45 c-1.35 6.30 -2.80 7.35 -10 7.40 -5.20 0.05 -7.20 -0.75 -9.20 -3.85 l-1.20 -1.80 -1 2 c-0.55 1.10 -1.70 2.60 -2.60 3.30 l-1.65 1.30 1.55 1.05 c2.20 1.50 3.65 3.85 4.05 6.55 0.40 2.40 -0.05 6.40 -0.80 7.90 -0.40 0.80 -0.20 0.85 2.45 0.60 1.60 -0.20 5.40 -0.65 8.40 -1.05z m-45.05 -6.45 c0 -0.65 -3.25 -2.45 -6.60 -3.75 -5.30 -2 -14.10 -2.90 -14.10 -1.45 0 1.15 6.45 4.05 11.75 5.20 3.35 0.80 9 0.75 8.95 0z m82.80 -12.15 c0 -1.45 0.35 -2.25 1.45 -3.30 1.35 -1.30 1.65 -1.35 5.25 -1.20 l3.80 0.15 0 -1.30 c0 -2.75 3.65 -4.85 7.75 -4.35 1.60 0.20 1.75 0.10 2.05 -1.35 0.60 -3.15 2.35 -4.25 6.90 -4.25 3.80 0 5.65 1.15 6.20 3.95 l0.35 1.65 4.50 -3.55 c6.90 -5.50 14.40 -12.35 18.40 -16.80 4.10 -4.55 5.30 -6.05 4.60 -5.65 -0.25 0.15 -13.50 6.70 -29.45 14.55 -22.45 11.15 -29.35 14.35 -30.80 14.35 l-1.90 0 -5.60 -10.60 c-3.10 -5.85 -5.70 -10.70 -5.75 -10.75 -0.05 -0.10 0 1.15 0.15 2.75 0.15 1.55 0.75 3.85 1.35 5.10 1.55 3.05 2.75 7.25 2.75 9.55 0 1.75 0.10 1.85 1.95 2.15 1.10 0.15 2.45 0.85 3.25 1.60 1.15 1.20 1.30 1.70 1.30 4.95 0 1.95 0.15 3.75 0.35 3.90 0.75 0.80 1.15 0.25 1.15 -1.55z m-135.40 -3.10 c0.30 -3.15 2.20 -6.05 4.80 -7.35 l2.05 -1 -24.60 -12.15 c-13.55 -6.70 -24.80 -12.30 -25.05 -12.40 -0.85 -0.45 0.50 1.30 3.70 4.90 4.55 5.10 14.20 13.85 20.80 18.80 5.10 3.85 17.05 11.70 17.75 11.70 0.20 0 0.45 -1.10 0.55 -2.50z m3 -24.05 l0.20 -1.80 -2.05 0.85 c-1.10 0.50 -2.35 1 -2.75 1.10 -0.45 0.15 0.20 0.70 1.75 1.55 1.60 0.80 2.55 1.05 2.60 0.70 0.05 -0.35 0.15 -1.40 0.25 -2.40z m153.85 0.10 c5.05 -2.55 5.10 -2.70 0.80 -3.60 -1.10 -0.20 -3 -0.60 -4.25 -0.90 -1.25 -0.25 -2.25 -0.45 -2.25 -0.40 -0.15 1 0.45 7.35 0.65 7.30 0.20 0 2.45 -1.10 5.05 -2.40z m-79.45 -12.55 c0 -9.35 -0.20 -14.50 -0.50 -14.50 -0.30 0 -0.50 5.15 -0.50 14.50 0 9.35 0.20 14.50 0.50 14.50 0.30 0 0.50 -5.15 0.50 -14.50z m-52.35 -1.25 l7.25 -12.50 -3.45 -0.25 c-3.90 -0.30 -5.70 -1.35 -7.10 -4.15 -1.45 -2.90 -2.20 -2.40 -2.45 1.60 -0.20 3.95 -1.80 6.90 -4.35 8.15 -1.40 0.65 -1.50 0.85 -0.80 1.40 1.10 0.90 0.95 4.65 -0.30 7.10 -0.55 1.10 -2.05 3.10 -3.25 4.40 l-2.20 2.35 2.80 0.25 c2.45 0.20 3.10 0.50 4.30 1.85 0.75 0.85 1.40 2.05 1.40 2.70 0.05 0.85 0.10 0.95 0.50 0.35 0.25 -0.40 3.70 -6.35 7.65 -13.25z m11.85 7.25 c0 -1.15 0.80 -4.30 1.75 -7.05 0.95 -2.80 1.75 -5.20 1.75 -5.35 0 -0.55 -1.50 2.10 -4.90 8.55 l-3.15 5.85 2.30 0 2.25 0 0 -2z m81.40 -3.85 c-3.25 -6.25 -4.90 -9.10 -4.90 -8.60 0 0.15 0.80 2.60 1.75 5.45 0.95 2.85 1.75 6.05 1.75 7.10 l0 1.90 2.25 0 2.25 0 -3.10 -5.85z m-57.40 1.70 c0 -1.60 -0.05 -1.60 -2 -1.45 -1.10 0.10 -2.65 -0.05 -3.45 -0.30 -1.40 -0.50 -1.50 -0.45 -1.65 0.80 -0.15 1.25 0.05 1.40 2.60 1.90 4.40 0.95 4.50 0.90 4.50 -0.95z m36.80 0.90 c2.40 -0.35 2.50 -0.40 2.30 -1.75 -0.20 -1.30 -0.35 -1.40 -1.45 -0.95 -0.65 0.25 -2.20 0.45 -3.45 0.45 -2.15 0 -2.20 0.05 -2.20 1.55 0 1.35 0.15 1.50 1.15 1.30 0.60 -0.15 2.25 -0.45 3.65 -0.60z m49.30 -4.15 c-0.55 -2 -1.55 -4.20 -2.30 -5.10 -1.45 -1.80 -1.65 -3.80 -0.55 -5.95 0.65 -1.30 0.65 -1.50 0 -2.05 -0.45 -0.40 -0.75 -1.50 -0.75 -2.95 -0.05 -2 -0.10 -2.20 -0.70 -1.40 -0.50 0.60 -1.35 0.85 -3.30 0.85 -2.45 0 -2.60 0.05 -2.30 1.15 0.15 0.60 0.30 2.40 0.30 3.95 l0 2.85 2.25 1 c2.90 1.25 3.90 3.40 3.65 7.65 l-0.15 2.90 1.50 0 c0.85 0 1.85 0.20 2.25 0.50 0.40 0.25 0.80 0.35 0.90 0.30 0.05 -0.10 -0.30 -1.75 -0.80 -3.70z m35.65 -1.05 c-0.25 -0.10 -0.75 -0.50 -1.05 -0.85 -0.45 -0.55 -1.20 -0.20 -4.20 1.95 -2 1.40 -3.75 2.90 -3.90 3.25 -0.10 0.30 2.05 -0.45 4.75 -1.75 2.70 -1.35 4.70 -2.50 4.40 -2.60z m-115.75 -1.50 c-1.25 -0.20 -2.55 -0.50 -2.85 -0.70 -0.45 -0.25 -0.65 -0.15 -0.65 0.35 0 0.65 0.60 0.80 2.90 0.75 l2.85 -0.10 -2.25 -0.30z m23.50 -0.35 c0 -0.50 -0.20 -0.60 -0.60 -0.35 -0.35 0.20 -1.65 0.50 -2.90 0.70 l-2.25 0.30 2.90 0.10 c2.25 0.05 2.85 -0.10 2.85 -0.75z m-37.50 -2.10 c0 -0.60 -0.60 -1.05 -2 -1.45 -1.10 -0.25 -2 -0.45 -2 -0.35 0 0.05 -0.15 0.45 -0.30 0.90 -0.25 0.60 0.05 0.80 1.10 0.80 0.80 0 1.80 0.25 2.20 0.50 1 0.65 1 0.65 1 -0.40z m51.20 -0.10 c1.40 0 1.45 -0.05 1.05 -1.15 -0.45 -1.10 -4.25 0.05 -4.25 1.25 0 0.75 0.15 0.85 0.95 0.40 0.55 -0.25 1.55 -0.50 2.25 -0.50z m-142.25 -1.35 c-0.25 -0.80 -0.60 -1.65 -0.70 -2 -0.15 -0.40 -0.60 -0.25 -1.45 0.50 l-1.25 1.10 1.60 0.85 c2.20 1.15 2.40 1.10 1.80 -0.45z m233.30 -0.65 c-0.15 -0.20 -0.70 -0.50 -1.25 -0.65 -0.80 -0.20 -1 0 -1 0.95 0 1.05 0.10 1.15 1.25 0.60 0.65 -0.30 1.10 -0.70 1 -0.90z m-133.25 -1.70 c0 -0.80 -2.65 -1.55 -3.50 -1.05 -0.95 0.60 -0.50 1.20 1.15 1.40 0.85 0.10 1.75 0.25 2 0.25 0.20 0.05 0.35 -0.20 0.35 -0.60z m33.85 0 c0.05 -0.05 -0.10 -0.40 -0.30 -0.75 -0.55 -0.85 -3.55 -0.25 -3.55 0.70 0 0.50 0.50 0.60 1.90 0.40 1 -0.15 1.90 -0.30 1.95 -0.35z m26.85 -7.10 c0.30 -0.90 0.10 -1.10 -1.20 -1.30 -1.75 -0.25 -1.75 -0.25 -0.65 1.65 0.90 1.50 1.30 1.40 1.85 -0.35z m68.15 -2.95 c0.50 -1.15 0.45 -1.25 -0.65 -1.25 -1.25 0 -1.40 0.35 -0.90 1.70 0.45 1.10 0.85 1 1.55 -0.45z m-210.35 -1 c-0.90 -1.45 -1.05 -2.35 -0.90 -4.95 0.20 -3.75 -0.25 -3.80 -1.35 -0.20 -1 3.35 -1.05 3.10 1 5.15 2.25 2.20 2.60 2.20 1.25 0z m-10.25 -4.75 c0.50 -0.95 1.75 -2.80 2.80 -4.05 1.45 -1.75 1.80 -2.45 1.30 -2.80 -0.30 -0.30 -1.05 -0.35 -1.60 -0.20 -0.80 0.25 -1 0.75 -1 2.30 0 1.70 -0.15 2 -1.10 2.15 -0.85 0.15 -1.15 0.50 -1.15 1.45 0 0.80 -0.35 1.35 -1 1.50 -1.05 0.30 -1.25 1.35 -0.65 4.20 l0.35 1.70 0.55 -2.25 c0.35 -1.25 1 -3.05 1.50 -4z m-25.95 -1.05 c2.35 -4.80 3 -6.50 2.35 -6.20 -2.25 1 -6.65 1.40 -9.35 0.90 -1.55 -0.25 -2.80 -0.35 -2.80 -0.25 0 0.35 6.15 12.10 6.35 12.10 0.10 0 1.60 -2.95 3.45 -6.55z m15.95 3.95 c0.70 -6.15 2 -9.95 4.90 -14.80 l1.60 -2.70 3.05 0.20 c2.25 0.15 4.05 0.65 6.65 1.95 l3.55 1.75 0.75 -1.15 c0.45 -0.65 1.10 -1.15 1.50 -1.15 0.55 0 0.75 -0.65 0.75 -2.75 0 -3.90 1.35 -5.25 5.25 -5.25 2.30 0 3 0.20 4 1.25 0.70 0.65 1.25 1.55 1.25 1.95 0 0.55 0.70 0.80 2.85 0.90 2.65 0.15 2.95 0.30 3.90 1.75 0.90 1.45 1.25 1.60 3.30 1.65 2.60 0 4.95 1.45 4.95 3.05 0 0.85 0.35 0.95 3 0.95 2.40 0 3.15 0.20 4 1.10 0.55 0.60 1 1.40 1 1.75 0 0.45 0.70 0.65 2.15 0.65 1.15 0 2.60 0.35 3.25 0.75 0.95 0.70 1.20 0.70 2.55 0 0.85 -0.40 1.85 -0.75 2.30 -0.75 0.45 0 -0.50 -1.05 -2.10 -2.30 -4.50 -3.60 -9.95 -9.05 -13.40 -13.50 -2.75 -3.50 -9.20 -13.40 -9.90 -15.30 -0.15 -0.45 -0.50 -0.30 -1.10 0.50 -1.35 1.80 -3.45 2.60 -7.05 2.60 -5.70 0 -8.20 -2.45 -8.20 -8.10 0 -3.10 1.15 -5.65 3.15 -7.10 1.10 -0.85 2.15 -1.05 4.90 -1.05 1.90 0 3.45 -0.10 3.45 -0.25 0 -0.15 -0.45 -2.35 -1 -4.85 -2.30 -10.55 -2.40 -24.85 -0.20 -35.70 0.25 -1.30 0.20 -1.30 -3.20 -1.55 -5.95 -0.45 -7.80 -2.65 -7.50 -8.80 l0.15 -3.50 -3 0.30 c-1.65 0.10 -3.05 0.30 -3.15 0.35 -0.05 0.05 0.15 0.80 0.45 1.70 0.75 2.15 0.35 8 -0.60 8.60 -1.85 1.20 -5.25 0.50 -11 -2.30 l-5.70 -2.75 3.40 3.20 c2.75 2.55 3.80 3.25 5.50 3.45 2.45 0.35 4.85 2.60 4.85 4.60 0 1.25 0.05 1.25 1.25 0.45 1.80 -1.20 6.10 -0.75 7.35 0.80 0.80 1 0.90 2.35 0.90 15 0 13.40 -0.05 13.90 -1.05 15.20 -1 1.30 -1.30 1.35 -4.45 1.25 -2.50 -0.15 -3.65 0.05 -4.55 0.65 l-1.20 0.85 2 0.05 c3.25 0.05 3.50 0.40 3.50 5.10 0 3.45 -0.20 4.65 -1.35 7.05 l-1.35 2.85 2.85 0 c1.90 0 3.35 0.30 4.40 0.95 4.05 2.45 4.35 10 0.50 13.55 -1.10 1 -1.95 1.25 -4.70 1.40 -3.95 0.20 -6.25 -0.75 -7.90 -3.25 l-1.10 -1.60 -8.30 15.70 c-4.55 8.65 -8.30 15.85 -8.30 16 0 0.15 0.85 0.25 1.90 0.25 1 0 2.20 0.25 2.60 0.50 1.25 0.80 1.40 0.60 1.75 -2.10z m174.40 -4.05 c0.35 -9.10 0.55 -9.50 6.40 -12.65 9.10 -4.95 21.30 -10.20 23.70 -10.20 l1.25 0 -1 -1.60 c-0.75 -1.25 -1 -2.55 -1 -5.15 l0 -3.50 -3.85 0.15 c-3.55 0.15 -4.10 0.05 -5.85 -1.15 -1.55 -1.05 -2.05 -1.20 -2.35 -0.65 -0.25 0.35 -1.45 2.45 -2.70 4.65 -4.20 7.45 -11.95 16.55 -18.50 21.80 l-2.75 2.20 1.20 1 c0.65 0.55 1.45 1.50 1.75 2.10 0.65 1.35 0.70 7.10 0.05 8.15 -0.45 0.70 0.50 1.20 2.80 1.45 0.35 0.05 0.65 -2.20 0.85 -6.60z m82 0.25 l2.80 -5.35 -5.10 0 c-3.30 0 -5.50 -0.25 -6.25 -0.65 -0.65 -0.40 -1.25 -0.60 -1.40 -0.50 -0.10 0.10 1.25 3.05 2.95 6.50 2.10 4.30 3.30 6.15 3.65 5.85 0.30 -0.25 1.80 -2.85 3.35 -5.85z m-217.20 4.95 c-2.95 -0.30 -4.20 -1 -4.70 -2.60 -0.25 -0.75 -0.80 -0.95 -2.65 -0.95 -2.35 0 -4.60 -1.40 -4.60 -2.85 0 -0.35 -0.25 -0.65 -0.50 -0.65 -0.90 0 0.40 1.90 3.20 4.80 l2.60 2.70 4.75 -0.05 c4.05 -0.10 4.30 -0.15 1.90 -0.40z m146.85 -5.10 c0.95 -1.90 1.50 -2.45 2.40 -2.45 1.35 0 4.30 -0.95 4.30 -1.40 0 -0.15 -0.50 -0.80 -1.05 -1.40 l-1.10 -1.15 -3.40 1.75 c-2.70 1.35 -3.45 1.95 -3.45 2.85 0 0.60 -0.15 1.95 -0.30 3 -0.30 1.60 -0.20 1.85 0.50 1.55 0.45 -0.20 1.40 -1.40 2.10 -2.75z m25.30 -2.80 c-0.20 -3.10 -0.20 -3.15 -1.65 -3.15 -0.80 0 -1.45 0.15 -1.45 0.30 0 0.40 3.10 6.25 3.20 6.10 0.05 -0.10 0 -1.55 -0.10 -3.25z m-165.60 1.10 c0 -0.40 -0.20 -0.75 -0.50 -0.75 -0.25 0 -0.50 0.35 -0.50 0.75 0 0.40 0.25 0.75 0.50 0.75 0.30 0 0.50 -0.35 0.50 -0.75z m62.15 -0.95 c-0.60 -0.80 -1 -1 -1.25 -0.60 -0.60 0.90 -0.45 1.20 0.75 1.45 0.60 0.10 1.15 0.25 1.25 0.30 0.10 0 -0.25 -0.50 -0.75 -1.15z m19.35 0.35 c0 -0.25 -0.20 -0.70 -0.45 -1.10 -0.35 -0.55 -0.55 -0.45 -1 0.40 -0.50 0.90 -0.45 1.05 0.45 1.05 0.55 0 1 -0.15 1 -0.35z m92.70 -2.15 c0.25 -1.30 0.50 -1.50 2 -1.50 1.25 0 1.90 -0.30 2.30 -1 0.80 -1.50 2.65 -2.55 5.20 -2.90 l2.25 -0.35 -5.50 -10.25 -5.45 -10.25 0 2.60 c0 4.30 -3.25 7.15 -8.25 7.15 l-2.30 0 2.80 3.45 c2.30 2.85 2.75 3.75 2.75 5.40 0 1.40 -0.30 2.30 -1.05 2.95 l-1.05 0.95 1.20 0.25 c0.65 0.15 1.80 1.25 2.65 2.60 0.85 1.30 1.65 2.35 1.80 2.35 0.20 0.05 0.45 -0.60 0.65 -1.45z m-101.40 -3.10 c0.75 -0.90 1.80 -2.65 2.30 -3.90 1.30 -2.95 3.70 -12.45 4.15 -16.40 l0.35 -3.10 -1.95 -0.85 c-4.30 -1.80 -14.15 -1.05 -15 1.20 -0.45 1.15 1.20 10.05 2.90 15.30 1.50 4.90 3.95 9.35 5.15 9.35 0.40 0 1.30 -0.75 2.10 -1.60z m85.45 -0.40 l2 0 -2.05 -2.05 -2.05 -2.05 -1.70 0.85 c-0.95 0.50 -1.75 0.95 -1.85 1 -0.10 0.10 0.20 0.75 0.70 1.50 0.65 0.95 1.15 1.25 1.90 1.05 0.60 -0.15 1.95 -0.30 3.05 -0.30z m-99.50 -2.10 c-0.45 -1.45 -1.65 -2.40 -2.95 -2.40 -0.90 0 -7.85 -1.75 -11.05 -2.75 -0.90 -0.25 -0.85 -0.20 0.15 0.55 0.60 0.45 1.10 1.25 1.10 1.75 0 0.75 0.35 0.95 1.90 0.95 1.05 0 3.80 0.65 6.10 1.45 5.20 1.80 5.15 1.80 4.75 0.45z m29 -0.40 c2.45 -0.80 5.30 -1.50 6.35 -1.50 1.55 0 1.90 -0.20 1.90 -0.95 0 -0.50 0.50 -1.30 1.15 -1.75 0.95 -0.75 1 -0.80 0.10 -0.55 -3.20 1 -10.15 2.75 -11.05 2.75 -1.30 0 -2.50 0.95 -2.95 2.40 -0.15 0.60 -0.25 1.10 -0.15 1.10 0.15 0 2.20 -0.65 4.65 -1.50z m-57.25 -4.75 c0 -0.45 -0.45 -0.75 -1.10 -0.75 -1.10 0.05 -1.15 0.05 -0.20 0.75 1.25 0.95 1.30 0.95 1.30 0z m83 -0.50 c0 -0.15 -0.45 -0.25 -1 -0.25 -0.55 0 -1 0.35 -1 0.75 0 0.65 0.20 0.70 1 0.25 0.55 -0.30 1 -0.65 1 -0.75z m-78.25 -4.35 c-0.55 -0.30 -1.40 -0.90 -1.85 -1.30 -0.85 -0.70 -0.90 -0.65 -0.90 0.55 0 1.25 0.20 1.35 1.90 1.35 1.60 -0.05 1.75 -0.10 0.85 -0.60z m74.25 -0.65 l0 -1.30 -1.50 1.15 c-0.80 0.60 -1.50 1.15 -1.50 1.25 0 0.10 0.70 0.15 1.50 0.15 1.25 0 1.50 -0.20 1.50 -1.25z m-153.70 -14.65 c-0.10 -0.05 -1.40 0.35 -3 0.90 -1.55 0.50 -4.20 1.20 -5.95 1.50 -6.05 1.10 -5.75 0.80 -3.20 3.05 2.65 2.30 4.35 5.50 4.40 8.25 0 1.80 0.30 1.35 3.90 -5.80 2.20 -4.25 3.90 -7.80 3.85 -7.90z m239.80 8.65 c0.85 -1.60 3.05 -3.80 4.60 -4.60 0.70 -0.40 -0.05 -0.65 -3.55 -1.30 -2.45 -0.45 -5.70 -1.25 -7.30 -1.80 -1.55 -0.55 -2.85 -0.80 -2.85 -0.55 0 0.30 1.65 3.75 3.60 7.75 l3.60 7.25 0.55 -2.65 c0.30 -1.40 0.90 -3.25 1.35 -4.10z m-270.90 -3.10 c2.35 -2.05 2.45 -2.65 0.55 -2.65 -0.65 0 -2.60 -0.75 -4.45 -1.65 -2.50 -1.25 -3.25 -1.50 -3.10 -0.90 0.15 0.45 0.85 3 1.60 5.70 l1.40 4.90 0.90 -1.70 c0.45 -0.95 1.90 -2.65 3.10 -3.70z m298.50 -1.65 l1.25 -4.50 -1.40 0.95 c-0.75 0.55 -2.90 1.50 -4.75 2.10 l-3.30 1.10 1.40 0.85 c1.70 1.05 3.90 3.60 4.40 5.10 l0.35 1.15 0.40 -1.10 c0.20 -0.60 0.95 -3.15 1.65 -5.65z m-204.60 3.15 c0.30 -0.35 1.65 -0.65 3.05 -0.65 1.95 0 2.90 0.30 4.30 1.35 l1.80 1.35 -1.65 -1.85 c-4.50 -5.25 -5.70 -11.75 -3.30 -18.10 0.30 -0.70 0.05 -0.65 -1.45 0.30 l-1.85 1.20 0 6.85 c0 7.60 -0.15 7.90 -3.45 7.90 -0.85 0 -1.55 0.15 -1.55 0.30 0 0.15 0.75 1.15 1.65 2.30 1.50 1.90 1.60 1.95 1.75 0.85 0.10 -0.65 0.45 -1.50 0.70 -1.80z m108.55 -1.25 c-0.10 -0.25 -0.75 -0.40 -1.45 -0.40 -0.70 0 -1.70 -0.25 -2.25 -0.50 -0.85 -0.50 -0.95 -1.15 -0.95 -7.40 l0 -6.85 -1.85 -1.20 c-1.60 -1 -1.75 -1.05 -1.45 -0.25 2.35 6.10 1.35 12.10 -2.80 17.40 -1.20 1.50 -1.30 1.80 -0.50 1.35 0.60 -0.30 1.20 -0.80 1.35 -1.05 0.15 -0.30 1.60 -0.50 3.25 -0.50 3.05 0 3.50 0.35 3.50 2.65 0 0.95 0.25 0.80 1.70 -0.90 0.95 -1.10 1.60 -2.15 1.45 -2.35z m-72.15 1.10 c0 -0.95 -0.30 -1 -4.35 -0.95 -4.50 0.05 -4.55 0.15 -0.65 1.25 3.55 0.95 5 0.90 5 -0.30z m38.50 -0.20 l2.25 -0.70 -4.35 -0.05 c-4.15 -0.05 -4.40 0 -4.40 1 0 1 0.20 1.05 2.15 0.80 1.15 -0.20 3.10 -0.65 4.35 -1.05z m-81.50 -8 c-0.65 -0.65 -1.75 0.35 -1.25 1.20 0.25 0.40 0.55 0.40 1.05 -0.05 0.50 -0.40 0.60 -0.75 0.20 -1.15z m119.10 0.10 c-0.75 -0.75 -1.30 -0.20 -0.90 0.90 0.25 0.65 0.45 0.75 0.90 0.30 0.45 -0.45 0.45 -0.75 0 -1.20z m-73.60 -1.40 l2.25 -0.95 -8.75 -0.15 -8.75 -0.15 -0.25 -1.75 c-0.25 -1.65 -0.30 -1.70 -0.90 -0.65 -0.90 1.65 -0.75 2.45 0.70 3.60 1.20 0.95 2 1.05 7.40 1 4.75 0 6.55 -0.20 8.30 -0.95z m42.70 -0.05 c1.45 -1.15 1.60 -1.95 0.70 -3.60 -0.60 -1.05 -0.65 -1 -0.90 0.65 l-0.25 1.75 -8.75 0.15 -8.75 0.15 2.25 0.95 c1.75 0.75 3.55 0.95 8.30 0.95 5.40 0.05 6.20 -0.05 7.40 -1z m65.40 -0.35 c1.55 -0.10 3.55 0 4.35 0.30 l1.55 0.55 -1.35 -2.60 c-0.95 -1.90 -1.35 -3.60 -1.55 -6.40 -0.30 -5.05 0.20 -5.95 3.30 -5.95 l2.30 0 -1.20 -0.85 c-0.95 -0.65 -2 -0.85 -4.40 -0.70 -2.75 0.10 -3.35 0 -4.40 -1 l-1.20 -1.10 0 -14.40 0 -14.40 1.35 -1.05 c1.10 -0.85 1.90 -1.05 3.90 -0.90 1.35 0.15 2.90 0.40 3.40 0.60 0.65 0.30 0.85 0.15 0.85 -0.70 0 -1.75 3.10 -4.50 5.10 -4.50 1.35 0 2.30 -0.65 5.15 -3.30 l3.50 -3.25 -5.60 2.80 c-4.55 2.20 -6.10 2.75 -8.10 2.75 -3.65 0 -4.20 -0.75 -3.95 -5.45 0.15 -2.10 0.40 -4.15 0.60 -4.60 0.30 -0.65 -0.05 -0.85 -1.50 -1.10 -2.55 -0.45 -5.15 -3 -5.55 -5.55 l-0.30 -1.95 -1.90 3.70 c-2.25 4.35 -2.25 4.45 -0.95 4.45 1.70 0 4 1.45 5 3.15 1.40 2.25 1.40 7.95 0 10.25 -1.45 2.35 -4.90 3.80 -8.15 3.45 l-2.45 -0.30 0.25 2.35 c1.25 10.10 0.75 22.15 -1.35 30.75 l-1.15 4.85 2.20 0 c2.70 0 5 0.95 6.65 2.70 1.05 1.15 1.20 1.85 1.25 4.85 0 2.85 0.15 3.40 0.75 3.15 0.40 -0.20 2.05 -0.45 3.60 -0.60z m-131.45 -8.25 c1.20 -1.85 2.80 -3.30 5.10 -4.50 1.85 -1.05 2.90 -1.10 14.90 -1.35 l12.85 -0.25 -1.25 -1.90 c-1.10 -1.55 -1.45 -1.80 -2.25 -1.35 -0.50 0.25 -2.50 0.50 -4.45 0.50 -3.10 0 -3.60 -0.15 -4.10 -1.05 -1.55 -2.90 1 -10.55 5 -15.05 1.15 -1.25 2.45 -3.20 2.85 -4.25 0.90 -2.10 1.05 -8 0.25 -10.40 -0.40 -1.30 -0.45 -1.10 -0.50 1.70 -0.05 4.15 -1.25 6.10 -4.70 7.75 -3.70 1.80 -7.35 2.45 -12.40 2.20 -3.95 -0.20 -4.65 -0.35 -7.30 -2 -2.70 -1.70 -2.90 -1.95 -3.05 -3.95 l-0.15 -2.10 2.15 0.30 c1.20 0.15 2.60 0.45 3.20 0.60 0.90 0.30 1 0.15 0.80 -1.50 -0.20 -1.45 -0.40 -1.75 -1.05 -1.45 -0.45 0.20 -1.75 0.45 -2.90 0.60 l-2.15 0.20 0 -1.75 c0 -1.60 0.30 -2 2.80 -3.80 4.10 -2.95 7 -3.80 12.95 -3.80 5.60 0 8 0.85 10.45 3.75 0.70 0.85 1.30 1.30 1.30 0.95 0 -0.35 -0.95 -1.55 -2.15 -2.70 -5.45 -5.20 -14.45 -4.80 -23.20 1 -1.55 1.05 -3.25 1.75 -4.15 1.75 -1.40 0 -1.50 -0.15 -1.55 -1.85 0 -1.80 -0.05 -1.85 -0.55 -0.65 -0.80 2 -0.20 7 1.25 9.80 2.60 5.15 7.05 7.70 14.10 8.15 l4.50 0.30 0 5.75 0 5.75 -2.50 0.15 -2.50 0.15 0.15 1.95 c0.20 1.90 0.15 1.95 -1.95 2.50 -5.65 1.55 -11.40 5.65 -13 9.30 -1 2.20 -0.85 3.30 0.85 6.90 l0.95 1.95 0.30 -3.50 c0.15 -2.05 0.60 -4.05 1.10 -4.80z m76.90 4.05 c0.80 -2.35 0.80 -2.80 0.15 -4.40 -1.55 -3.65 -6.45 -7.25 -12.60 -9.30 -2.70 -0.85 -2.70 -0.85 -2.50 -2.75 l0.15 -1.90 -2.50 -0.15 -2.50 -0.15 -0.15 -5.85 -0.15 -5.90 3.70 0 c7.10 0 12.55 -2.95 15.10 -8.25 1.50 -3 2.15 -7.80 1.35 -9.75 -0.50 -1.20 -0.55 -1.15 -0.55 0.65 -0.05 1.70 -0.15 1.85 -1.55 1.85 -0.90 0 -2.60 -0.70 -4.15 -1.75 -8.75 -5.80 -17.75 -6.20 -23.10 -1.05 -1.25 1.15 -2.25 2.35 -2.25 2.65 0 0.25 1 -0.45 2.20 -1.60 2.50 -2.40 5.05 -3.25 9.95 -3.25 5.05 0 9.35 1.55 13.70 4.95 1.30 1 1.65 1.70 1.65 3 0 1.65 0 1.65 -2.10 1.45 -1.20 -0.15 -2.50 -0.40 -2.95 -0.60 -0.65 -0.30 -0.85 0 -1.05 1.45 -0.20 1.65 -0.10 1.80 0.80 1.50 0.60 -0.15 2 -0.45 3.20 -0.60 l2.10 -0.30 0 2 c0 1.80 -0.20 2.15 -2.05 3.35 -3.10 2.10 -5.70 2.80 -9.90 2.80 -6.65 0 -12.65 -2.15 -14.55 -5.30 -0.70 -1.10 -1 -2.55 -1.05 -4.75 -0.05 -2.80 -0.10 -3 -0.50 -1.70 -0.80 2.35 -0.65 8.30 0.20 10.35 0.40 1 1.80 3.05 3.05 4.60 3.30 4.10 4.90 7.45 5.20 11.15 0.30 4.20 -0.10 4.65 -4.50 4.65 -1.90 0 -3.90 -0.25 -4.40 -0.50 -0.80 -0.45 -1.15 -0.20 -2.25 1.35 l-1.25 1.90 12.85 0.25 c14.20 0.25 14.55 0.35 18.05 3.70 2.15 2 3.10 4.30 3.10 7.45 0 3.10 0.70 2.70 2.05 -1.25z m-170.05 0.55 c4.75 -0.90 16.95 -5.15 16.40 -5.70 -0.10 -0.10 -1.40 0.15 -2.90 0.55 -3.25 0.85 -15.30 0.95 -18.95 0.15 -3.80 -0.80 -5.05 -2 -5.05 -4.90 0 -3.95 0.65 -4.25 9.95 -4.60 7.10 -0.25 8 -0.40 10.30 -1.55 5.70 -2.95 6.20 -9.25 1.05 -13.80 -2.65 -2.30 -5.30 -2.90 -7.95 -1.70 -2.45 1.10 -6.55 5.30 -8.60 8.85 -0.80 1.40 -1.70 2.65 -2 2.85 -0.70 0.55 -2.85 0.50 -5.35 -0.10 -1.20 -0.25 -3.45 -0.75 -5.05 -1.05 -3.15 -0.70 -4.55 -1.90 -5.10 -4.45 -0.20 -0.85 -0.55 -1.50 -0.85 -1.50 -0.75 0 -0.05 8.35 1.10 12.80 1.35 5.15 3.05 8.15 6.25 11.10 1.55 1.45 3 2.60 3.15 2.60 0.20 0.05 1.50 0.35 2.85 0.75 2.55 0.70 5.60 0.65 10.75 -0.30z m273.85 -0.85 c2.50 -1.30 5.95 -5.05 7.20 -7.85 1.80 -4.10 2.95 -9.70 2.90 -14.20 0 -2.35 -0.15 -3.95 -0.30 -3.55 -1.70 4.80 -2.25 5.25 -7.90 5.85 -1.35 0.15 -2.70 0.45 -2.95 0.70 -0.30 0.25 -1.60 0.45 -2.90 0.45 l-2.40 0 -1.60 -2.85 c-2.10 -3.85 -7.10 -8.75 -9.55 -9.50 -2.70 -0.80 -5.15 0 -7.65 2.55 -5.20 5.40 -3.45 12 3.75 14 1.95 0.55 4.90 0.80 9.30 0.80 5.90 0 6.55 0.10 7.60 1.10 0.90 0.85 1.15 1.60 1.15 3.75 l0 2.70 -2.20 1 c-4.25 1.85 -15.75 2.35 -21.50 0.90 -3.40 -0.90 -2.45 -0.10 2.05 1.70 10.50 4.15 19.85 5.05 25 2.45z m-248.95 -9.50 c-0.80 -0.15 -5.90 2.65 -5.90 3.20 0 0.05 1.55 -0.55 3.40 -1.45 2.15 -1 3.05 -1.65 2.50 -1.75z m213.85 1.65 c-0.80 -0.65 -1.95 -1.20 -2.50 -1.20 -0.65 0 -0.25 0.40 1.25 1.20 2.85 1.55 3.10 1.55 1.25 0z m-151.40 -10.60 c0.85 -3.05 0.95 -3.15 2.60 -3.15 l1.70 0 -2.05 -1.50 c-4.30 -3.10 -7.15 -8.55 -8.30 -15.80 l-0.60 -3.95 -0.60 3.90 c-0.35 2.15 -0.60 6 -0.60 8.60 0 4.50 0.05 4.75 1.25 5.55 2.25 1.50 3.85 4.90 4.15 8.85 0.25 3.45 0.30 3.55 0.90 2.10 0.35 -0.80 1.05 -2.90 1.55 -4.60z m89.30 -3.30 c0.80 -1.30 2 -2.75 2.70 -3.20 l1.30 -0.85 -0.35 -6.55 c-0.15 -3.55 -0.45 -7.30 -0.65 -8.25 -0.25 -1.55 -0.40 -1.20 -1.20 2.85 -1.50 7.25 -3.90 11.65 -8.05 14.65 l-2.05 1.50 1.70 0 1.70 0 1.50 4.65 1.45 4.60 0.30 -3.55 c0.20 -2.55 0.65 -4.15 1.65 -5.85z m-111.90 -4.90 c1.10 -0.50 2.95 -0.95 4.10 -0.95 2.15 0 2.15 0 1.50 -1.35 -0.45 -1 -0.65 -1.15 -0.75 -0.50 -0.15 0.65 -0.70 0.85 -2.15 0.85 -1.85 0 -2.05 -0.15 -2.85 -1.85 -1.25 -2.90 -1.15 -15.30 0.25 -21.65 1.80 -8.20 4.45 -13.75 7.75 -16.05 1.85 -1.35 5.90 -1.95 5.90 -0.90 0 1 5.10 0.80 6.60 -0.25 1.10 -0.75 0.70 -0.80 -6.35 -0.70 l-7.50 0.15 -2.60 4.25 c-6.75 11.10 -11.10 27.45 -10.30 38.75 0.40 5.50 0.40 5.55 2.55 3.15 1 -1.10 2.75 -2.45 3.85 -2.95z m136.60 -4.90 c-0.50 -13.30 -3.50 -23.25 -10.50 -34.65 -1.95 -3.15 -2.20 -3.40 -3.85 -3.40 l-1.75 0 1.80 1.20 c3.50 2.40 6.15 7.60 8.05 16.05 1.40 6.10 1.60 19.05 0.30 21.90 -0.75 1.70 -1 1.85 -2.85 1.85 -1.45 0 -2 -0.20 -2.15 -0.85 -0.10 -0.65 -0.30 -0.50 -0.75 0.50 l-0.65 1.35 2.15 0 c2.75 0 7 2.05 8.40 4.10 1 1.35 1.15 1.45 1.60 0.65 0.30 -0.55 0.35 -3.90 0.20 -8.70z m-87.10 -10.05 c0.25 -0.45 -2.05 -2.50 -2.80 -2.50 -0.25 0 -0.45 1.15 -0.45 2.55 l0 2.50 1.50 -1.05 c0.80 -0.55 1.60 -1.25 1.75 -1.50z m34.35 -0.20 l-0.35 -2.40 -1.45 1.15 -1.45 1.10 1.70 1.40 c0.95 0.75 1.75 1.35 1.80 1.25 0.05 -0.05 -0.05 -1.15 -0.25 -2.50z m-166.70 -7.45 c6 -4.45 11.25 -5.85 22.80 -6.20 l8.95 -0.30 -2.95 -1.20 c-6.70 -2.70 -16.20 -4.40 -20.45 -3.60 -6.30 1.20 -10.65 5.70 -12.95 13.40 -1.15 3.95 -1 4.55 0.65 2 0.75 -1.25 2.55 -3.10 3.95 -4.10z m300.85 2.70 c-1.45 -5.60 -4.95 -10.55 -9 -12.70 -1.75 -0.95 -2.75 -1.10 -7.75 -1.05 -6 0.05 -10 0.85 -16.25 3.30 l-3 1.15 9 0.30 c7.85 0.25 9.50 0.45 13 1.60 5.35 1.75 10.05 4.65 12.50 7.70 1.10 1.35 2.05 2.45 2.10 2.40 0.05 0 -0.20 -1.25 -0.60 -2.70z m-184.50 -8.25 c6 -2.40 13.15 -3.35 27.35 -3.65 22.05 -0.50 34.25 1.40 41.55 6.40 1.55 1.05 1.55 1.05 -0.35 -0.90 -2.45 -2.60 -7.50 -4.95 -13.40 -6.25 -3.95 -0.85 -7 -1 -20.15 -1.20 -9.05 -0.10 -17.55 0 -20.40 0.35 -9.75 1.05 -16.15 3.40 -19.95 7.30 l-2.15 2.30 2.15 -1.55 c1.15 -0.80 3.55 -2.10 5.35 -2.80z m111.70 -4 c0.50 -0.55 0.40 -0.80 -0.35 -1 -0.50 -0.20 -1.20 -0.90 -1.55 -1.60 -0.95 -2.10 -1.10 -1.10 -0.20 1.20 0.85 2.25 1.20 2.50 2.10 1.40z m-150.75 -15.55 c2.75 -4.25 6.05 -8.45 9.70 -12.30 l3.15 -3.35 -3.90 1.50 c-2.15 0.85 -6.65 2.40 -10.05 3.40 l-6.10 1.80 1.30 1.25 c2.70 2.45 3.55 7.10 1.70 8.95 -0.70 0.70 -1.65 1 -3.25 1 -1.85 0 -2.25 0.15 -2.25 0.90 0 0.50 -0.55 1.45 -1.25 2.10 -1.05 0.95 -1.60 1.10 -3.95 0.90 l-2.70 -0.20 -0.20 1.75 -0.15 1.80 3.55 -0.15 c3.65 -0.20 5.75 0.45 7.20 2.15 0.60 0.70 0.95 0.25 3 -3.85 1.25 -2.55 3.15 -6 4.20 -7.65z m37.15 7.25 c1.45 -0.55 4.75 -1.40 7.30 -1.95 l4.60 -1 -8.85 0 -8.90 -0.05 0 1.55 c0 0.85 -0.60 2.50 -1.30 3.70 l-1.30 2.25 2.90 -1.75 c1.60 -0.95 4.10 -2.20 5.55 -2.75z m74.45 2.30 c-0.70 -1.25 -1.30 -2.80 -1.30 -3.50 l0 -1.30 -7.10 0.05 -7.15 0 3.75 1 c4.05 1.05 9.30 3.35 11.35 4.95 1.85 1.45 1.90 1.25 0.45 -1.20z m-186.40 -4.80 c1.20 0 1.20 -0.10 -0.65 -1.30 -1.10 -0.70 -2.60 -2.05 -3.35 -3.05 l-1.35 -1.75 -0.55 2.20 c-0.30 1.20 -0.90 3.25 -1.30 4.60 -0.40 1.35 -0.70 2.50 -0.70 2.55 0 0.05 1.50 -0.65 3.30 -1.60 1.85 -0.90 3.90 -1.65 4.60 -1.65z m297.80 -0.85 c-0.65 -2.45 -1.20 -4.55 -1.20 -4.75 0 -0.25 -1.30 0.90 -2.90 2.50 l-2.85 2.85 2.60 0.80 c1.40 0.45 3.20 1.30 4 1.85 0.75 0.60 1.45 1.10 1.50 1.10 0.05 0 -0.45 -1.95 -1.15 -4.35z m-271.60 -4.95 l-4.35 -8.75 -0.55 3.40 c-0.70 4.55 -2.45 7.70 -5.35 9.60 l-1.35 0.85 4.85 0.90 c2.70 0.45 6.05 1.25 7.40 1.75 1.40 0.50 2.80 0.95 3.10 1 0.35 0 -1.30 -3.90 -3.75 -8.75z m237.70 7.80 c2.50 -0.90 10.20 -2.50 11.85 -2.50 0.25 0 -0.15 -0.50 -0.95 -1.10 -3.50 -2.70 -4.80 -5.15 -5.15 -9.55 l-0.30 -3.40 -4.35 8.80 c-2.45 4.80 -4.30 8.75 -4.25 8.75 0.10 0 1.50 -0.45 3.15 -1z m-66.80 -1.25 c0 -0.60 -0.70 -0.75 -3.35 -0.75 -3.90 0 -3.80 0.85 0.10 1.15 1.40 0.10 2.65 0.20 2.90 0.25 0.20 0.05 0.35 -0.25 0.35 -0.65z m-152.20 -7.55 c0.95 -0.40 2.80 -0.70 4.20 -0.70 1.35 0 2.50 -0.20 2.50 -0.45 0 -1.40 -0.70 -2.05 -2.30 -2.05 -2.80 0 -4.15 -1.65 -4.85 -5.90 l-0.65 -3.65 -2.35 2.80 c-2 2.30 -2.70 2.75 -4.05 2.75 -0.85 0 -1.90 -0.30 -2.25 -0.60 -1 -0.95 -0.65 -0.20 2.70 6.05 l2.95 5.60 1.25 -1.60 c0.65 -0.85 1.95 -1.90 2.85 -2.25z m174.90 0.40 l1.80 -3.20 -1.55 1.30 c-0.85 0.70 -1.90 1.30 -2.35 1.30 -0.45 0 -1.15 0.20 -1.55 0.45 -0.55 0.35 -0.50 0.75 0.45 2.05 0.60 0.85 1.20 1.50 1.25 1.40 0.10 -0.10 0.95 -1.55 1.95 -3.30z m-120.30 0.15 c3.10 -0.40 5.80 -0.75 6.05 -0.75 0.25 0 -0.05 -0.95 -0.60 -2.10 -0.70 -1.45 -1.05 -3.10 -1.10 -5.20 l0 -3.10 -2 1.55 c-2.75 2.15 -10.75 9.95 -10.75 10.50 0 0.25 0.60 0.30 1.40 0.15 0.75 -0.15 3.90 -0.60 7 -1.05z m100.60 0.80 c0 -0.50 -7.95 -8.20 -10.85 -10.45 l-2.15 -1.70 0 3.45 c0 2.40 -0.30 4 -0.95 5.30 -0.60 1.20 -0.75 1.85 -0.35 1.90 0.55 0 13.20 1.75 13.95 1.90 0.20 0 0.35 -0.15 0.35 -0.40z m52.75 -2.40 c0.55 -1.05 1.05 -2 1.10 -2.15 0.10 -0.15 -1.05 -0.20 -2.45 -0.10 -2.65 0.15 -4.40 -0.70 -5 -2.50 -0.30 -0.90 -3.65 1.70 -4.60 3.50 l-0.70 1.40 3.30 -0.20 c2.60 -0.10 3.75 0.05 5.10 0.80 2.35 1.30 2.20 1.35 3.25 -0.75z m-119.25 -0.75 c-0.05 -0.35 -0.35 -2 -0.75 -3.65 -0.95 -3.90 -0.95 -9.20 -0.05 -10.55 0.65 -0.90 2.90 -2.10 5.35 -2.85 0.60 -0.20 0.90 -1 1 -2.80 0.10 -1.40 0.05 -2.55 -0.10 -2.55 -3.30 0 -17.95 3.75 -17.95 4.60 0 0.20 0.25 0.40 0.50 0.40 0.90 0 4.85 3.95 5.50 5.50 0.65 1.55 0.50 10.05 -0.20 11.65 -0.35 0.75 -0.05 0.85 3.15 0.85 2.50 0 3.55 -0.20 3.55 -0.60z m30.85 -0.10 c-2.60 -6.70 -1 -13.65 3.75 -16.50 l2.05 -1.20 -1.95 -0.85 c-2.15 -0.90 -10.70 -3 -14.20 -3.45 l-2.30 -0.35 0.30 2.65 c0.25 2.55 0.30 2.65 2.15 3.05 1 0.25 2.55 1.10 3.35 1.85 1.40 1.30 1.50 1.60 1.45 5.10 0 2 -0.40 5.15 -0.90 7.05 l-0.85 3.35 3.70 0 c3 0 3.65 -0.15 3.45 -0.70z m61.30 -8.70 c3.15 -5.85 3.30 -7.20 0.45 -5.25 -1 0.65 -2.50 1.35 -3.25 1.50 -1.25 0.25 -1.40 0.45 -1 1.60 0.20 0.70 0.40 2.90 0.40 4.90 0 1.95 0.15 3.30 0.30 3 0.20 -0.35 1.60 -2.90 3.10 -5.75z m-104.30 1.55 c-0.15 -0.50 -0.25 -0.10 -0.25 0.85 0 0.95 0.10 1.35 0.25 0.90 0.10 -0.50 0.10 -1.30 0 -1.75z m85.10 -4.15 c0.35 -0.85 1.45 -1.95 2.45 -2.45 l1.80 -0.90 -1.60 -0.85 c-0.85 -0.45 -2.80 -1.80 -4.25 -3 l-2.70 -2.20 -0.60 1.65 c-0.30 0.90 -1 2 -1.55 2.50 -0.95 0.90 -0.95 0.95 2.15 3.80 1.70 1.60 3.20 2.90 3.35 2.95 0.15 0 0.55 -0.70 0.95 -1.50z m-193.20 -11.55 c-1.85 -3.70 -3.50 -6.85 -3.70 -7.10 -0.20 -0.20 -1.75 2.35 -3.50 5.65 l-3.10 6 4.40 0 c3.65 0 4.85 0.20 6.65 1.15 1.25 0.60 2.30 1.10 2.40 1.05 0.10 -0.05 -1.35 -3.10 -3.15 -6.75z m270.35 4.30 l4.35 0 -2.90 -5.50 c-1.65 -3 -3.15 -5.55 -3.40 -5.60 -0.20 -0.10 -1.90 2.85 -3.75 6.55 l-3.35 6.75 2.35 -1.10 c1.80 -0.80 3.35 -1.05 6.70 -1.10z m-247.40 -5.95 c3.75 -4.25 6.80 -7.85 6.80 -8 0 -0.15 -0.55 -0.30 -1.25 -0.30 -1.55 0 -5.05 -1.70 -5.40 -2.60 -0.15 -0.35 -0.30 1 -0.30 3.05 -0.05 2.85 -0.30 4.10 -1.15 5.45 -1.30 2.10 -4.30 3.55 -7.30 3.60 -1.20 0 -2.10 0.20 -2 0.40 0.60 1.60 3.20 6.10 3.50 6.10 0.20 0 3.40 -3.45 7.10 -7.70z m18.15 6.50 c0.10 -0.05 -0.05 -1.05 -0.25 -2.20 l-0.35 -2.10 -2.10 2.45 -2.10 2.40 2.35 -0.25 c1.30 -0.10 2.40 -0.25 2.45 -0.30z m20.20 -1.70 c-0.35 -0.10 -1.15 0.30 -1.75 0.90 l-1.05 1.10 1.75 -0.90 c1.05 -0.50 1.50 -0.95 1.05 -1.10z m189.75 -4.85 c-1.75 -1.85 -2.35 -0.80 -1.95 3.50 l0.30 3.40 1.45 -2.80 1.40 -2.80 -1.20 -1.30z m-183.30 0.40 c0 -0.35 -0.45 -0.65 -1 -0.65 -0.80 0 -1 0.35 -1 1.60 0 1.50 0 1.55 1 0.65 0.55 -0.50 1 -1.20 1 -1.60z m157.65 -2.05 c0.75 -0.75 1.35 -1.55 1.35 -1.75 0 -0.55 -3.70 1.45 -4.45 2.35 -1.25 1.50 1.65 0.95 3.10 -0.60z m-12.45 -0.70 c0.25 -0.45 0.30 -1.05 0.10 -1.25 -0.25 -0.20 -0.55 -0.10 -0.65 0.25 -0.15 0.30 -0.55 0.60 -0.95 0.60 -0.40 0 -0.70 0.35 -0.70 0.80 0 1 1.45 0.75 2.20 -0.40z m-129.30 -3.10 c0.50 -0.50 1.45 -1.20 2.15 -1.50 l1.35 -0.55 -2.65 -4.90 -2.60 -4.90 -0.30 3.65 c-0.40 5.15 -0.60 5.55 -2.90 5.30 -1.85 -0.15 -1.95 -0.10 -1.95 1.20 0 1.20 0.20 1.40 1.45 1.40 1.45 0 3.95 2.25 4.10 3.65 0.05 0.35 0.20 -0.05 0.30 -0.90 0.15 -0.80 0.60 -1.90 1.05 -2.45z m-8.25 1 c0.20 -0.50 -0.20 -0.75 -1.45 -0.90 -1.40 -0.15 -1.70 -0.05 -1.70 0.70 0 1.10 2.75 1.30 3.15 0.20z m35.35 -30.55 c13.80 -39.75 14.90 -43 16.05 -46.10 l0.95 -2.65 -2.50 0 -2.50 0 0.80 1.25 c1.90 2.90 -0.75 8.25 -4.05 8.25 -2.25 0 -2.75 1.55 -2.75 9 0 7.55 -0.65 11.20 -2.65 14.75 -0.75 1.30 -1.35 3 -1.35 3.75 0 1.90 -1.70 3.85 -3.95 4.55 -1.60 0.45 -1.95 0.85 -2.35 2.35 -0.65 2.65 -3.05 4.10 -6.65 4.10 -5.20 0 -7.50 -2.75 -6.85 -8.15 0.35 -3 1.80 -4.75 4.35 -5.30 1.35 -0.25 1.70 -0.60 2 -1.95 0.50 -2.55 2.10 -3.95 5.10 -4.55 1 -0.20 1.65 -0.80 2.05 -1.80 l0.65 -1.55 -2.30 1.15 c-2.90 1.45 -8 2.55 -13.65 2.95 l-4.40 0.35 0 -2 c0 -1.60 0.25 -2.10 1.15 -2.55 1.10 -0.55 1.10 -0.55 -0.20 -0.55 -1.20 -0.05 -1.35 0.15 -1.60 2.30 -0.35 3.10 -1.25 3.75 -5.10 3.55 -2.85 -0.15 -3 -0.20 -3.15 -1.50 -0.15 -1.40 -0.65 -1.60 -2.15 -1 -0.85 0.35 -0.05 2.15 14 31.10 2.50 5.10 5.75 11.95 7.30 15.20 1.50 3.25 2.85 5.85 2.95 5.75 0.10 -0.10 4.95 -13.90 10.80 -30.70z m57.25 23.75 c1.80 -3.65 3.65 -7.45 4.05 -8.40 0.70 -1.70 0.70 -1.75 -0.20 -0.95 -2.65 2.40 -9.35 3.20 -11.65 1.40 -1.15 -0.85 -1.05 -0.40 1.50 7.05 1.45 4.35 2.75 7.85 2.85 7.75 0.10 -0.05 1.65 -3.15 3.45 -6.85z m21.45 5 c2.05 0 2.90 -2.55 3 -8.90 0.10 -5.75 0.30 -6.60 1.85 -6.60 0.65 0 0.95 -0.35 0.95 -1.05 0 -0.60 0.75 -1.80 1.70 -2.75 1.65 -1.65 1.85 -1.70 5.55 -1.70 2.90 0 4.30 0.25 5.45 0.95 1.25 0.75 3 1 8.55 1.25 9.70 0.45 11.95 1.25 17.55 6.40 1.90 1.75 2.15 1.85 3.75 1.40 2.50 -0.75 6.80 -0.60 8.40 0.25 1.55 0.75 2.05 1.65 2.05 3.50 0 1.15 0.10 1.20 5.40 1.35 4.25 0.10 5.50 0 6 -0.60 0.55 -0.65 0.30 -0.90 -1.75 -1.90 -1.30 -0.60 -13.10 -6.30 -26.15 -12.60 l-23.75 -11.50 -0.35 2.55 c-0.25 1.35 -0.75 3.15 -1.15 3.95 -1.05 2.05 -4.10 3.50 -7.25 3.50 -3.20 0 -5.45 -0.90 -7.15 -2.95 l-1.30 -1.60 -1.55 3 c-0.80 1.65 -1.95 3.85 -2.55 4.85 -1.15 2.10 -7.85 15.25 -8.75 17.20 l-0.55 1.25 3.35 0 c2.25 0 3.70 0.25 4.55 0.80 0.80 0.55 1.50 0.70 2.05 0.40 0.45 -0.25 1.40 -0.45 2.10 -0.45z m-79.65 -0.90 c0.50 -0.55 16.95 -47.35 16.95 -48.15 0 -0.25 -0.30 -0.45 -0.70 -0.45 -0.85 0 -0.30 -1.40 -10.55 26.25 -4.60 12.40 -8.50 22.70 -8.65 22.95 -0.30 0.50 2.45 -0.05 2.95 -0.60z m47.75 0.50 c-0.15 -0.20 -4.15 -10.95 -8.95 -23.90 -4.85 -12.90 -8.90 -23.85 -9.10 -24.30 -0.20 -0.50 -0.75 -0.90 -1.25 -0.90 -0.95 0 -0.95 -0.10 5.75 18.75 1.45 4.15 4.45 12.55 6.60 18.70 2.95 8.55 4.10 11.25 4.90 11.60 1.30 0.50 2.35 0.55 2.05 0.05z m82.15 -4.45 c0.10 -0.10 0 -0.15 -0.25 -0.15 -0.25 0 -1.10 0.60 -1.95 1.30 l-1.50 1.30 1.75 -1.15 c0.95 -0.60 1.85 -1.20 1.95 -1.30z m-99.55 1.30 c-0.10 -0.15 -1.85 -4.85 -3.90 -10.40 -2.05 -5.50 -3.85 -10.05 -4 -10.05 -0.30 0 -2.45 5.45 -5.75 14.75 l-2.15 6 7.95 0 c4.40 0 7.90 -0.15 7.85 -0.30z m-134.20 -3.70 c0.80 -1.20 0.80 -1.25 -0.40 -0.70 -0.70 0.35 -1.10 0.85 -0.95 1.25 0.35 0.95 0.40 0.90 1.35 -0.55z m15.55 -8.15 c-0.05 -0.05 -2.25 0.85 -4.80 2.10 l-4.70 2.25 2.30 0 c1.40 0.05 3.15 0.50 4.50 1.20 l2.20 1.20 0.30 -3.30 c0.20 -1.80 0.25 -3.35 0.20 -3.45z m34.45 -16 c1.40 -1.50 0.25 -1.05 -10.20 4.05 -6.45 3.10 -12.40 6.05 -13.25 6.50 l-1.50 0.80 1.70 0.05 c2.50 0 5.35 2.15 6.35 4.75 l0.80 2.15 7.30 -8.35 c4 -4.55 7.95 -9.05 8.80 -9.95z m112.25 10.80 c0.90 -0.90 2.25 -2.70 3.10 -3.95 1.40 -2.20 1.45 -2.35 0.65 -3.85 -0.40 -0.90 -1.10 -1.60 -1.45 -1.60 -0.40 0 -1.15 -0.50 -1.70 -1.05 -1 -1.10 -1.30 -1.10 -6 -0.15 l-1.65 0.35 0.30 2.50 c0.65 4.55 2.95 9.35 4.55 9.35 0.35 0 1.35 -0.75 2.20 -1.60z m-124.20 -16.55 c13.50 -6.75 24.10 -12.30 23.65 -12.30 -1.95 -0.10 -4.95 -1.70 -5.65 -3.10 -1.05 -2 -0.95 -5.40 0.30 -7.40 l1 -1.65 -5.40 2.85 c-14.60 7.80 -30.50 20.05 -41.05 31.70 -2.55 2.75 -4.60 5.15 -4.60 5.30 0 0.40 6.65 -2.80 31.75 -15.40z m206.65 13.55 c-4.25 -5.45 -16.35 -16.55 -24.80 -22.80 -4.40 -3.25 -12.35 -8.60 -12.80 -8.60 -0.20 0 -0.30 1.15 -0.30 2.55 0 2.30 -0.20 2.75 -1.75 4.25 -1 0.90 -2.70 1.95 -3.75 2.25 -1.10 0.35 -2 0.75 -2 0.95 0 0.25 45.95 23.20 46.90 23.45 0.10 0.05 -0.55 -0.90 -1.50 -2.05z m-178.35 -2.90 c1.55 0 1.75 -0.30 0.95 -1.50 -0.35 -0.60 -0.60 -0.60 -1.10 -0.10 -0.30 0.30 -1.10 0.60 -1.75 0.60 -0.70 0 -1.15 0.30 -1.15 0.80 0 0.55 0.25 0.70 0.80 0.50 0.45 -0.15 1.45 -0.30 2.25 -0.30z m81.80 -9.90 c0.05 -8.35 0.95 -14.60 2.90 -20.10 l0.70 -1.90 -1.70 0.70 c-0.95 0.40 -3.25 0.70 -5.15 0.70 -2.90 0 -3.75 -0.20 -5.65 -1.45 l-2.25 -1.40 2.50 7.30 c1.40 4 3.90 11.20 5.55 15.90 1.65 4.75 3 8.65 3 8.65 0 0 0.05 -3.75 0.10 -8.40z m20.95 -14.05 c-0.75 -0.70 -0.90 -0.70 -1.30 -0.05 -0.35 0.55 -0.20 1 0.65 1.70 1.05 0.85 1.10 0.85 1.25 0.05 0.10 -0.50 -0.15 -1.25 -0.60 -1.70z m-97.25 -9.05 c0.95 0 0.95 -0.05 0.15 -1.30 -0.55 -0.80 -0.90 -2.35 -0.90 -4 -0.05 -1.50 -0.15 -2.65 -0.30 -2.55 -0.15 0.05 -1.45 0.55 -2.85 1.05 -2.40 0.90 -2.55 1 -1.50 1.55 0.80 0.40 1.15 1.05 1.25 2.60 0.10 1.15 -0.10 2.55 -0.40 3.10 -0.50 1 -0.45 1 1.55 0.30 1.15 -0.40 2.50 -0.75 3 -0.75z m94.15 -0.15 c0.15 -0.65 1.05 -2.15 2.05 -3.40 1.55 -1.95 1.65 -2.25 0.95 -2.80 -1.55 -1.15 -4.80 1.45 -7.35 5.80 l-0.90 1.55 2.45 0 c2.20 0 2.55 -0.15 2.80 -1.15z m30.05 -1.45 c-2.25 -1.20 -9.85 -4.55 -13.30 -5.85 l-2.30 -0.90 1.80 2.50 c3.85 5.40 3.70 5.35 10.15 5.35 l5.65 -0.05 -2 -1.05z m-107.90 -3.85 c0.55 -1.25 0.65 -2.60 0.40 -4.80 l-0.30 -3.10 -2.15 0.50 -2.15 0.50 1.20 1.80 c1.10 1.55 1.20 2.25 1.05 5.20 -0.15 3 -0.10 3.30 0.50 2.50 0.40 -0.50 1.05 -1.70 1.45 -2.60z m74.15 -6.50 c1.50 -0.85 2.55 -1.55 2.25 -1.55 -0.25 0 -3.05 -0.55 -6.15 -1.20 -5.25 -1.10 -5.60 -1.15 -4.85 -0.30 1.15 1.25 2.20 4.35 2.25 6.50 l0 1.70 1.90 -1.85 c1 -1 3.10 -2.50 4.60 -3.30z m-25.30 -2.75 c0.70 -0.95 1.80 -1.90 2.40 -2.10 1.10 -0.40 1.10 -0.40 -0.35 -0.75 -0.80 -0.20 -3 -0.35 -4.85 -0.40 l-3.35 -0.05 1.85 5.35 1.80 5.35 0.60 -2.85 c0.30 -1.55 1.15 -3.60 1.90 -4.55z m-38.10 2.95 c-0.20 -4.20 -0.05 -4.05 -4.10 -3.20 l-2.50 0.55 3.35 3.15 c1.90 1.75 3.40 3.20 3.40 3.25 0 0 -0.05 -1.70 -0.15 -3.75z"/>
  <path d="M564.65 123.75 c-0.70 -0.75 -0.85 -3.20 -0.25 -4.05 0.20 -0.30 0.70 -0.70 1.10 -0.85 0.45 -0.15 0.25 -0.30 -0.55 -0.30 -0.70 -0.05 -1.85 -0.35 -2.60 -0.65 -1.30 -0.60 -1.35 -0.80 -1.35 -4.50 0 -2.15 -0.20 -3.90 -0.40 -3.90 -0.25 0 -0.85 -0.85 -1.30 -1.85 -0.75 -1.65 -2.60 -3.15 -3.95 -3.15 -0.85 0 -1.85 -1.45 -1.85 -2.70 0 -0.95 -0.25 -1.30 -1 -1.30 -0.85 0 -1 -0.35 -1 -2 0 -1.45 -0.20 -2 -0.75 -2 -0.50 0 -0.75 -0.50 -0.75 -1.60 0 -1.55 -0.95 -4.90 -1.55 -5.40 -0.15 -0.15 -0.55 -1.15 -0.80 -2.25 -0.95 -3.45 -2.50 -7.20 -3.40 -8.10 -0.65 -0.65 -2.20 -0.90 -6.95 -1.20 -3.30 -0.20 -6.10 -0.35 -6.15 -0.40 -0.10 -0.05 -0.15 -0.80 -0.15 -1.75 l0 -1.70 3.50 -0.35 3.55 -0.35 -0.35 -2.35 c-0.20 -1.25 -0.65 -2.45 -1 -2.70 -0.35 -0.20 -1 -0.70 -1.40 -1.10 -0.40 -0.40 -0.85 -0.75 -1.05 -0.75 -0.45 0 -2.55 -2.20 -3.20 -3.40 -0.35 -0.60 -0.55 -2 -0.45 -3.10 0.10 -1.65 -0.15 -2.30 -1.25 -3.30 -1.40 -1.30 -1.95 -4.40 -0.80 -4.80 0.25 -0.10 0.55 -1.40 0.65 -2.90 0.10 -1.50 0.35 -4.50 0.55 -6.60 0.30 -3.25 0.25 -3.90 -0.35 -3.90 -0.75 0 -2.40 -2.95 -2.40 -4.25 0 -0.40 -0.20 -0.75 -0.45 -0.75 -0.25 0 -0.60 -0.90 -0.80 -2 -0.20 -1.10 -0.75 -2.30 -1.25 -2.65 -0.70 -0.50 -1.05 -1.55 -1.30 -4.15 -0.25 -2.80 -0.55 -3.65 -1.55 -4.55 -1.05 -0.95 -1.30 -1.70 -1.70 -6.20 -0.25 -2.85 -0.65 -5.30 -0.85 -5.45 -0.20 -0.15 -0.90 -1.10 -1.60 -2.10 -0.70 -1.05 -1.70 -1.95 -2.25 -2 -0.80 -0.10 -1.05 -0.60 -1.15 -2.25 l-0.15 -2.15 28 0 28.05 0 0 62.25 0 62.25 -2.35 0 c-1.45 -0.05 -2.65 -0.35 -3 -0.75z"/>
 </g>
 <g fill="#a2a1a0">
  <path d="M0 182.50 l0 -182.50 260.40 0 c229 0.05 260.25 0.10 259.40 0.75 -0.55 0.40 -1.75 0.75 -2.70 0.75 -1.80 0 -2.05 1.15 -0.30 1.40 0.50 0.05 1.50 0.95 2.20 2 0.70 1 1.45 2 1.70 2.15 0.40 0.35 0.80 2.30 0.95 5.30 0.05 0.90 0.25 1.65 0.40 1.65 0.15 0 0.30 0.35 0.30 0.75 0 0.40 -0.20 0.75 -0.45 0.75 -0.25 0 -0.20 0.45 0.10 1 0.30 0.55 0.40 1 0.20 1 -0.20 0 0.30 0.55 1.10 1.25 0.80 0.70 1.60 1.25 1.85 1.25 0.20 0 0.35 0.55 0.35 1.25 0 0.70 -0.25 1.25 -0.55 1.25 -0.35 0 -0.45 0.45 -0.25 1.10 0.20 0.65 0.40 1.60 0.45 2.15 0.05 0.55 0.50 1.35 1 1.75 0.80 0.70 1.35 2.15 1.45 3.90 0.05 0.30 0.25 0.60 0.50 0.60 0.20 0 0.40 0.35 0.40 0.75 0 1.25 1.65 4.25 2.35 4.25 0.65 0 0.80 0.50 0.70 2.25 -0.05 0.55 0.30 1.45 0.85 2 0.90 0.95 0.90 1 -0.30 2.20 -0.75 0.75 -1.05 1.30 -0.65 1.45 0.30 0.10 0.45 0.40 0.25 0.65 -0.75 1.25 -0.90 3.05 -0.40 5.10 0.25 1.05 0.05 1.60 -0.80 2.35 l-1.10 0.95 1.10 0.90 c1.60 1.30 2.40 3.20 2 4.65 -0.20 0.70 -0.10 1.70 0.15 2.20 0.55 1.10 2.65 3.30 3.10 3.30 0.20 0 0.65 0.35 1.05 0.75 0.40 0.40 1.10 0.95 1.60 1.20 0.70 0.40 0.90 1.05 1.05 4.05 0.05 0.80 2.20 2 3.50 2 0.60 0 0.60 0.15 0.15 0.60 -0.75 0.75 -1.30 0.85 -6.50 1.50 -2.30 0.30 -4 0.65 -3.85 0.80 0.15 0.20 2.95 0.45 6.20 0.60 5.40 0.30 6 0.45 7.15 1.55 1.30 1.30 1.40 1.50 1.40 2.90 0 0.55 0.35 1.30 0.75 1.75 0.45 0.40 0.75 0.90 0.70 1.05 -0.05 0.15 0.05 0.95 0.25 1.75 0.15 0.85 0.25 1.65 0.25 1.80 0 0.20 0.20 0.50 0.50 0.70 0.30 0.15 0.65 0.80 0.75 1.35 0.15 0.60 0.60 1.75 1 2.55 0.50 1 0.60 1.65 0.30 1.85 -0.80 0.50 -0.60 1.25 0.40 1.25 1.90 0.05 3.25 2.50 1.30 2.50 -0.40 0 -0.70 0.35 -0.70 0.75 0 0.45 0.45 0.75 1.25 0.75 0.70 0 1.25 0.15 1.30 0.40 0 0.20 0.10 0.75 0.20 1.25 0.10 0.45 -0.05 0.85 -0.35 0.85 -0.25 0 -0.15 0.35 0.30 0.75 0.40 0.40 0.95 0.75 1.25 0.75 1.25 0 4.20 2.15 3.70 2.70 -0.20 0.15 -0.05 0.30 0.30 0.30 0.35 0 0.45 0.25 0.30 0.50 -0.15 0.25 -0.05 0.50 0.30 0.50 0.35 0 0.45 0.15 0.30 0.30 -0.20 0.20 0.15 0.75 0.75 1.25 0.55 0.55 0.80 0.95 0.50 0.95 -0.70 0 -0.60 1.10 0.15 1.60 0.30 0.25 0.20 0.40 -0.25 0.40 -0.45 0.05 -0.25 0.30 0.50 0.75 0.70 0.40 2.45 0.70 3.90 0.75 1.40 0 2.60 0.25 2.60 0.50 0 0.30 -1 0.50 -2.20 0.50 -3 0 -5.30 0.50 -5.30 1.20 0 0.80 2.40 1.80 4.40 1.80 0.95 0 1.55 0.20 1.35 0.50 -0.15 0.30 0.15 0.50 0.75 0.50 1.80 0 0.95 1.60 -1.15 2.20 -1.10 0.30 -1.75 0.70 -1.55 0.95 0.20 0.20 0.10 0.35 -0.25 0.35 -1.25 0 0.75 1.40 2.25 1.60 l1.45 0.15 0.15 120.90 0.10 120.85 -285 0 -285 0 0 -182.50z m301 166.45 c57.30 -5.20 108.75 -40.35 134.50 -91.95 9.50 -18.95 15.20 -39.05 17.05 -60 0.85 -9.75 0.35 -29.25 -1.05 -38.25 -6.65 -43.90 -29.10 -82.10 -64 -108.80 -24.60 -18.85 -53.60 -30.40 -84.75 -33.75 -8.30 -0.85 -25.75 -1 -33.50 -0.20 -39.65 3.95 -75 20.60 -103.25 48.55 -18.30 18.05 -31.95 40.10 -40.60 65.40 -5.25 15.45 -7.75 30.05 -8.25 48.30 -0.30 12.40 0.25 21.10 2.10 32 10.25 60.50 53.25 110.85 111.50 130.60 22.25 7.55 46.10 10.30 70.25 8.10z"/>
  <path d="M270.25 340.65 c-18.70 -2.20 -34.60 -6.20 -47.75 -12 l-2.75 -1.20 2 -0.90 c7.15 -3.20 7.35 -12.45 0.40 -15.85 -2.15 -1.10 -3.05 -1.25 -4.80 -1 -3.05 0.50 -5.55 2.35 -6.85 5.10 -1.05 2.15 -1.10 2.60 -0.60 5.15 0.35 1.50 0.50 2.80 0.45 2.90 -0.10 0.05 -3.15 -1.65 -6.85 -3.85 -12.40 -7.45 -21.75 -14.70 -31.55 -24.50 -5.40 -5.40 -14.45 -15.80 -14.45 -16.60 0 -0.45 0.90 0 39.65 19.25 15.35 7.60 28.10 13.85 28.30 13.85 0.20 0 6.65 -11.65 14.30 -25.95 7.60 -14.25 14.05 -26.20 14.25 -26.55 0.25 -0.45 0.85 -0.35 2.30 0.25 2.80 1.15 12.30 3.60 16.95 4.30 2.20 0.35 7.85 0.65 12.50 0.65 7.20 -0.05 9.50 -0.25 15 -1.40 3.60 -0.75 8.40 -2 10.75 -2.80 2.30 -0.80 4.25 -1.40 4.30 -1.35 0.15 0.15 9.50 17.60 19.20 35.75 5 9.40 9.30 17.10 9.50 17.10 0.25 0 66.20 -32.50 67.65 -33.35 2.95 -1.75 -11.45 14.65 -18.40 20.95 -5.10 4.65 -14.70 12.40 -17.25 14.05 l-1.45 0.90 0.30 -2.50 c0.25 -2.30 0.15 -2.60 -1.25 -4 -2.35 -2.40 -6.65 -1.95 -8.15 0.80 -1.20 2.25 -0.85 4.60 0.95 6.20 0.90 0.80 2.15 1.45 2.85 1.45 1.90 0 1.50 0.60 -1.85 2.85 -4.35 2.80 -22.30 11.65 -23.75 11.65 -0.05 0 0 -0.65 0.15 -1.50 0.95 -4.55 -4.40 -7.80 -8.30 -5 -2.55 1.85 -2.50 6.40 0.15 8.25 0.60 0.40 0.95 0.80 0.80 0.95 -0.10 0.10 -3.35 1.10 -7.20 2.20 -11.70 3.35 -23.10 5.35 -33.50 5.90 l-6 0.35 1.30 -1.45 c2 -2.20 2.55 -3.55 2.55 -6.40 0.10 -8.75 -10.60 -12.55 -16.25 -5.80 -1.15 1.35 -2.35 4.30 -2.35 5.75 0 1.60 1.25 4.50 2.60 6 l1.50 1.75 -3.90 -0.05 c-2.20 -0.05 -4.60 -0.20 -5.45 -0.30z m-3.80 -5.85 c2 -1.05 1.95 -2.25 -0.05 -4.30 -6.50 -6.35 -30.85 -10.80 -33.40 -6.05 -1.75 3.30 9 8.95 20.70 10.85 4.90 0.80 10.65 0.55 12.75 -0.50z m86.05 -9.05 c1.85 -0.95 2.50 -2.15 2.50 -4.50 0 -4.30 -5.65 -6.45 -8.65 -3.35 -1.95 2.05 -1.90 5.15 0.10 7.15 1.70 1.65 3.75 1.90 6.05 0.70z m-14.50 -4 c5.05 -2.60 2 -10.70 -3.55 -9.50 -1.40 0.30 -1.40 0.30 -0.85 -1.25 0.70 -2.05 -0.05 -5.60 -2.10 -9.95 -0.90 -1.90 -1.50 -3.95 -1.50 -5.20 0 -2.55 -1.65 -6.35 -2.70 -6.35 -0.45 0 -4.45 0.75 -8.90 1.70 -18.20 3.80 -23.40 4.50 -33.40 4.50 -10 0.05 -12.80 -0.35 -31 -4.05 -12.95 -2.65 -11.80 -2.65 -13 -0.10 -0.55 1.20 -1 3.15 -1 4.25 0 1.35 -0.65 3.45 -1.80 5.95 -2.50 5.15 -2.65 8.95 -0.50 11.20 1.95 2.05 4.25 3.05 7.05 3.05 3.95 0 7.25 -2.60 9.40 -7.45 l1.20 -2.75 0.30 4.80 c0.35 5.85 1.50 8.55 3.95 9.35 4.50 1.40 7.95 1.10 10.60 -1 1.65 -1.30 3.30 -4.40 4.05 -7.70 l0.60 -2.50 0.40 2 c1.35 7.80 4.40 11.25 9.75 11.25 5.35 0 8.40 -3.50 9.75 -11.25 l0.35 -2 0.70 2.60 c2.20 8.40 6.60 11 14.65 8.55 2.35 -0.70 3.60 -3.75 3.95 -9.50 l0.25 -4.40 1.20 2.65 c1.35 2.90 3.65 5.55 5.85 6.70 1.85 0.95 5.35 0.95 7.35 -0.05 0.90 -0.45 1.65 -0.80 1.70 -0.80 0 0 -0.05 0.80 -0.15 1.75 -0.30 2.65 0.25 4.20 2.05 5.25 1.90 1.20 3.40 1.25 5.35 0.25z m25 -1 c1.85 -0.95 2.50 -2.15 2.50 -4.50 0 -2.50 -0.75 -3.70 -2.85 -4.55 -3.50 -1.50 -7.15 0.75 -7.15 4.40 0 2.45 0.65 3.65 2.40 4.60 1.75 1 3.30 1 5.10 0.05z m-80 -40.75 l0 -13.50 -1.10 -0.20 c-0.65 -0.15 -2.90 -0.35 -5 -0.50 -4.65 -0.35 -12.20 -1.85 -17.70 -3.55 -2.15 -0.65 -4.10 -1.05 -4.25 -0.85 -0.50 0.50 -8.45 23.95 -8.45 24.85 0 1.25 5.85 2.65 21.75 5.20 8.55 1.35 11 1.70 13.90 1.95 0.80 0.10 0.85 -0.85 0.85 -13.40z m15.35 12 c7.85 -1.20 15.70 -2.65 23.55 -4.40 0.65 -0.10 1.30 -0.55 1.45 -0.95 0.25 -0.65 -7.55 -24.45 -8.30 -25.25 -0.15 -0.20 -2.20 0.20 -4.55 0.90 -6.25 1.85 -12.70 3.15 -17.25 3.45 -2.20 0.20 -4.50 0.40 -5.10 0.55 l-1.15 0.20 0 13.50 c0 12.55 0.05 13.50 0.90 13.50 0.45 0 5.15 -0.65 10.45 -1.50z"/>
  <path d="M251.05 333.45 c-7.45 -1.45 -14.75 -5.45 -13.90 -7.65 0.50 -1.20 4.20 -1.95 8.05 -1.55 11.05 1.05 21.85 6.85 17.35 9.25 -1.15 0.60 -8.35 0.60 -11.50 -0.05z"/>
  <path d="M349 324.65 c-2.75 -1 -3.35 -3.90 -1.20 -5.60 0.75 -0.60 1.70 -1.05 2.20 -1.05 1.40 0 3.50 1.95 3.50 3.25 0 2.10 -2.60 4.10 -4.50 3.40z m2.90 -3 c0.20 -1.90 -1.25 -3 -2.85 -2.20 -2.35 1.25 -1.50 4.20 1.10 3.95 1.40 -0.15 1.60 -0.35 1.75 -1.75z"/>
  <path d="M332.80 319.40 c-1.05 -1.50 -1 -2.50 0.25 -4.10 1.30 -1.65 3.50 -1.75 4.95 -0.20 2.10 2.30 0.70 5.40 -2.50 5.40 -1.45 0 -2.15 -0.30 -2.70 -1.10z m4 -0.30 c1.80 -1.25 0.40 -4.55 -1.70 -3.90 -1.65 0.55 -2.20 1.95 -1.30 3.20 0.75 1.10 2 1.40 3 0.70z"/>
  <path d="M283.05 319.15 c-1.30 -1.10 -2.55 -5.95 -2.50 -9.65 l0.05 -2.75 0.90 3.60 c1.25 4.70 2.25 6.65 3.55 6.65 1.20 0 2.55 -2.80 3.45 -7.10 0.30 -1.60 0.70 -2.90 0.85 -2.90 0.60 0 -0.35 7.95 -1.15 9.95 -1.20 3.05 -3.15 3.85 -5.15 2.20z"/>
  <path d="M263.25 316.90 c-1 -0.90 -1.40 -1.85 -1.70 -4.15 -0.40 -2.65 0 -8.50 0.60 -9.05 0.10 -0.15 0.35 1.65 0.45 3.90 0.15 2.30 0.60 4.80 0.95 5.55 1.30 2.80 3.70 0.75 5.25 -4.55 l0.70 -2.35 -0.25 3.15 c-0.30 3.70 -1.70 7.25 -3.15 8.05 -1.35 0.70 -1.35 0.75 -2.85 -0.55z"/>
  <path d="M302.90 316.65 c-1.30 -1.60 -1.95 -3.80 -2.20 -7.40 l-0.25 -3.50 0.95 3.35 c0.95 3.45 2.70 6 3.85 5.60 1.05 -0.45 1.80 -2.70 2.10 -6.80 0.15 -2.15 0.40 -3.80 0.55 -3.65 0.15 0.15 0.45 1.45 0.65 2.90 0.40 3.35 -0.25 8.20 -1.35 9.40 -1.05 1.20 -3.30 1.25 -4.30 0.10z"/>
  <path d="M240.95 312.80 c-1.60 -0.80 -1.85 -4.45 -0.55 -8.55 l1 -3 -0.25 3.50 c-0.25 3.05 -0.15 3.60 0.75 4.40 0.65 0.60 1.40 0.80 2.25 0.55 1.25 -0.30 4.35 -3.30 5.70 -5.50 0.35 -0.55 0.30 -0.10 -0.10 1.25 -1.95 5.70 -5.75 8.90 -8.80 7.35z"/>
  <path d="M326.30 312.95 c-2.15 -0.60 -4.05 -2.65 -5.55 -6.05 -1.35 -3.05 -1.45 -4.65 -0.10 -2.05 1 1.85 3.30 4.15 4.80 4.70 0.85 0.35 1.55 0.25 2.45 -0.35 1.15 -0.75 1.20 -1 1 -4.40 l-0.30 -3.55 0.95 2.75 c1.05 3.25 1.25 7.65 0.35 8.35 -1.10 0.85 -2.10 1 -3.60 0.60z"/>
  <path d="M358.05 318.85 c-0.30 -0.40 -0.65 -1.35 -0.85 -2.15 -0.60 -3.05 3.35 -4.90 5.70 -2.70 2.30 2.15 0.80 5.50 -2.35 5.50 -1.05 0 -2.20 -0.30 -2.50 -0.65z m4.15 -1.45 c0.90 -1.25 0.35 -2.65 -1.20 -3.15 -1.30 -0.40 -2.50 0.55 -2.50 1.95 0 2.30 2.40 3.10 3.70 1.20z"/>
  <path d="M268.75 287.25 c-6.85 -1.10 -14.65 -2.55 -16.35 -3.05 -0.70 -0.20 -0.45 -1.30 1.95 -8.60 2.85 -8.45 3.85 -10.75 3.30 -7.45 -0.80 4.90 5.30 6.50 6.95 1.80 0.25 -0.80 0.80 -1.45 1.10 -1.45 0.70 0 6.45 1.10 6.70 1.25 0.05 0.05 -0.10 0.70 -0.45 1.40 -0.85 1.85 -0.20 3.70 1.60 4.60 1.35 0.70 1.65 0.75 3.05 0 0.85 -0.40 1.65 -0.75 1.75 -0.75 0.05 0 0.15 3.05 0.15 6.75 l0 6.75 -1.35 -0.05 c-0.80 -0.05 -4.55 -0.55 -8.40 -1.20z m8 -1 c0.70 -0.65 1.25 -1.80 1.25 -2.50 0 -0.70 -0.55 -1.85 -1.25 -2.50 -0.65 -0.70 -1.80 -1.25 -2.50 -1.25 -0.70 0 -1.85 0.55 -2.50 1.25 -0.70 0.65 -1.25 1.80 -1.25 2.50 0 0.70 0.55 1.85 1.25 2.50 0.65 0.70 1.80 1.25 2.50 1.25 0.70 0 1.85 -0.55 2.50 -1.25z m-17.55 -2.80 c0.95 -0.75 1.30 -1.50 1.30 -2.70 0 -1.20 -0.35 -1.95 -1.30 -2.70 -1.55 -1.20 -2.15 -1.30 -3.90 -0.50 -1.75 0.80 -2.50 3.15 -1.55 4.95 1.15 2.25 3.30 2.65 5.45 0.95z m9.35 -3.90 c1.75 -1.80 1.85 -3.20 0.20 -4.80 -3.05 -3.10 -7.80 0.45 -5.70 4.30 0.50 1 2.05 1.85 3.35 1.90 0.40 0.05 1.35 -0.60 2.15 -1.40z"/>
  <path d="M291.50 281.75 c0 -3.70 0.10 -6.75 0.25 -6.75 0.20 0 0.95 0.35 1.75 0.75 1.15 0.60 1.70 0.65 2.65 0.20 2.20 -1 2.75 -2.85 1.65 -5.50 -0.30 -0.60 0.25 -0.90 2.85 -1.35 4.10 -0.75 4.35 -0.75 4.35 0.10 0 0.40 0.55 1.35 1.15 2.10 2.60 3 6.70 1 6.20 -3 -0.45 -3.25 0.40 -1.40 3.30 7.30 2.40 7.30 2.65 8.40 1.95 8.60 -2.70 0.75 -23.40 4.30 -25.20 4.30 -0.80 0 -0.90 -0.60 -0.90 -6.75z m6.75 4.50 c0.70 -0.65 1.25 -1.80 1.25 -2.50 0 -0.70 -0.55 -1.85 -1.25 -2.50 -0.65 -0.70 -1.80 -1.25 -2.50 -1.25 -0.70 0 -1.85 0.55 -2.50 1.25 -0.70 0.65 -1.25 1.80 -1.25 2.50 0 0.70 0.55 1.85 1.25 2.50 0.65 0.70 1.80 1.25 2.50 1.25 0.70 0 1.85 -0.55 2.50 -1.25z m17.15 -2.75 c1.25 -1.15 1.50 -3.80 0.50 -5.15 -0.35 -0.45 -1.35 -0.95 -2.15 -1.15 -3.60 -0.70 -5.80 4 -2.95 6.25 1.70 1.35 3.20 1.35 4.60 0.05z m-8.75 -4.05 c2.65 -3.20 -1.55 -7.60 -5 -5.20 -2 1.40 -1.85 4.40 0.30 6.15 1.10 0.85 3.60 0.35 4.70 -0.95z"/>
  <path d="M282.10 338.65 c-4.20 -2.05 -4.15 -8.80 0.10 -10.85 0.95 -0.45 2.20 -0.80 2.80 -0.80 1.80 0 4.50 1.55 5.25 3.05 1.65 3.20 0.50 7.25 -2.45 8.65 -2.15 1 -3.60 1 -5.70 -0.05z m5.65 -2.90 c2.45 -2.45 0.80 -6.25 -2.75 -6.25 -1.50 0 -2.15 0.30 -2.95 1.30 -3.10 3.95 2.15 8.50 5.70 4.95z"/>
  <path d="M337.35 330.45 c-2.20 -1.30 -2.10 -4.55 0.20 -5.70 1.90 -1 2.75 -0.95 3.95 0.25 2.80 2.80 -0.70 7.45 -4.15 5.45z m4.05 -2.65 c0.25 -1.15 -0.80 -2.30 -2.10 -2.30 -2.30 0 -3.10 2.40 -1.20 3.70 0.95 0.65 1.25 0.70 2.15 0.10 0.55 -0.35 1.05 -1.05 1.15 -1.50z"/>
  <path d="M216.15 323.75 c-3.80 -1.65 -4.65 -6.45 -1.70 -9.45 1.35 -1.30 1.95 -1.55 4.05 -1.55 2 0 2.70 0.25 3.95 1.45 4.70 4.50 -0.40 12.15 -6.30 9.55z m4.85 -2.75 c1.30 -1.30 1.30 -4.05 0 -5.25 -2.35 -2.10 -6.15 -0.35 -6.15 2.80 0 3.05 4 4.60 6.15 2.45z"/>
  <path d="M368.35 313 c-1.80 -1.45 -1.80 -3.55 -0.05 -4.95 1.65 -1.30 2.75 -1.30 4.25 -0.15 1.30 1.10 1.55 3.75 0.40 4.85 -1.30 1.30 -3.15 1.40 -4.60 0.25z m3.65 -1.20 c0.30 -0.40 0.50 -1.25 0.40 -1.90 -0.20 -1.60 -3.10 -1.95 -3.90 -0.45 -1.15 2.20 1.90 4.25 3.50 2.35z"/>
  <path d="M210.55 297.45 c-5.60 -2.75 -10.10 -5.05 -10 -5.15 0.10 -0.10 1.65 -0.55 3.45 -1 1.75 -0.45 4.60 -1.60 6.30 -2.55 5.25 -2.95 11.95 -11.10 11.05 -13.45 -0.15 -0.40 -1.25 -1.40 -2.40 -2.15 -1.85 -1.20 -2.50 -1.35 -4.90 -1.20 -4.95 0.40 -7.90 0.25 -9.50 -0.45 -2.60 -1.05 -0.95 -1.95 4.75 -2.65 4.60 -0.60 4.95 -0.75 5.10 -1.80 0.60 -4 -1.45 -5.10 -8.95 -5 -6.95 0.10 -6.60 0.35 -13.50 -8.60 l-1.30 -1.70 -0.85 1.60 c-1.65 3.25 -1.10 4.80 3.55 9.75 1.45 1.55 2.65 3.05 2.65 3.35 0 1.75 -7.30 -1.30 -10.30 -4.30 -1.35 -1.30 -1.70 -2.10 -1.70 -3.60 0 -2.85 1.25 -6.50 2.85 -8.15 1.10 -1.15 1.25 -1.60 0.85 -2.25 -0.75 -1.15 -5.95 -3.95 -8.80 -4.70 -2.85 -0.80 -2.95 -0.70 -5.85 5.30 -4.40 9.10 -4.45 18 -0.10 27.05 1.10 2.30 1.95 4.20 1.85 4.20 -0.30 0 -20 -9.55 -20.25 -9.80 -0.15 -0.10 0.25 -1.05 0.80 -2.10 0.60 -1 6.05 -11.30 12.15 -22.85 19.75 -37.25 18.95 -35.55 18.30 -38.95 -0.60 -3.05 -1.75 -2.90 -10.70 1.35 -11.50 5.55 -18.10 7.45 -26.35 7.55 -6.10 0.05 -8.70 -0.75 -12.10 -3.85 -3.10 -2.90 -4.80 -5.85 -6.25 -11.25 -0.95 -3.45 -1.05 -5.25 -1.05 -17.35 -0.05 -11.15 0.10 -14.10 0.85 -17 1.85 -7.70 4.75 -11.95 9.75 -14.40 3.10 -1.50 3.55 -1.60 8.55 -1.50 8.90 0.10 14.60 1.75 26.60 7.50 8.95 4.30 10.10 4.40 10.70 1.35 0.50 -2.80 -0.70 -5.85 -7.20 -17.95 -8.30 -15.45 -18.30 -34.35 -18.55 -35 -0.10 -0.25 0.35 0.05 0.95 0.70 1.30 1.35 3.95 2.55 5.60 2.55 0.65 0 2.05 -0.45 3.20 -0.95 2.70 -1.20 4.20 -3.70 4.20 -6.80 0 -6.50 -7.40 -9.95 -12.25 -5.70 -2.15 1.90 -2.95 3.95 -2.60 6.75 0.25 2.30 0.25 2.30 -2.20 -2.30 -1.35 -2.55 -2.45 -4.80 -2.45 -5 0 -0.15 3.75 -2.15 8.40 -4.40 4.60 -2.20 19.55 -9.45 33.25 -16.05 13.70 -6.65 25.10 -12.05 25.35 -12.05 0.40 0 2 2.55 2 3.20 0 0.10 -0.90 0.10 -2 -0.05 -1.70 -0.25 -2.15 -0.10 -3.50 1.25 -1.60 1.60 -1.85 3 -0.90 4.75 0.85 1.65 1.95 2.30 3.95 2.35 1.85 0 3.45 -1.25 4.15 -3.20 0.15 -0.50 0.40 -0.85 0.50 -0.75 0.10 0.10 2.50 4.70 5.30 10.20 2.80 5.50 6.70 13 8.60 16.65 l3.45 6.60 -1.50 0 c-2.10 0 -4.55 2.20 -4.55 4.10 0 2.10 0.85 3.40 2.80 4.20 1.50 0.65 1.90 0.65 3.20 -0.05 0.80 -0.40 1.65 -1.15 1.95 -1.60 0.35 -0.65 0.65 -0.75 1.05 -0.35 0.40 0.40 -1.25 1.75 -6.10 4.95 -16.35 10.90 -28.15 26.80 -33.35 44.95 -2.40 8.50 -3.15 13.60 -3.15 22.80 0 18.90 5.65 35.30 17.30 50.20 6.10 7.85 16.25 16.50 24.10 20.60 2.05 1.10 3.70 2.15 3.70 2.40 0 0.25 -0.55 1.40 -1.20 2.50 -0.60 1.15 -6.60 11.55 -13.30 23.20 -6.65 11.60 -12.40 21.10 -12.70 21.05 -0.30 0 -5.15 -2.25 -10.75 -5z m11.25 0.35 c1.35 -1.35 1.70 -2.10 1.70 -3.70 0 -5.50 -7.20 -7.55 -10.05 -2.90 -1.15 1.90 -1.20 3.35 -0.20 5.30 0.95 1.80 2.95 2.95 5.20 3 1.25 0 2.10 -0.45 3.35 -1.70z m-57 -25.60 c2.95 -1.40 4.05 -4.90 2.35 -7.70 -1 -1.75 -2.60 -2.50 -5.10 -2.50 -1.60 0 -2.25 0.30 -3.50 1.75 -2.60 2.95 -1.80 7.05 1.70 8.55 2 0.85 2.50 0.85 4.55 -0.10z m57.70 -2.70 c1.65 -1.20 3.50 -4.70 3.50 -6.75 0 -1.75 -1.30 -3.25 -2.75 -3.25 -3.70 0 -7.30 7.45 -4.90 10.10 1.05 1.15 2.40 1.15 4.15 -0.10z m17.15 -5.55 c3.50 -1.80 4.95 -4.90 3.85 -8.15 -0.90 -2.70 -3.10 -4.30 -5.95 -4.30 -7.10 0 -9.45 8.35 -3.40 12 1.80 1.10 3.90 1.25 5.50 0.45z m-22.10 -2.40 c0.80 -0.80 1.45 -1.95 1.45 -2.55 0 -1.45 -2.20 -3.50 -3.75 -3.50 -1.65 0 -3.75 2.05 -3.75 3.70 0 1.30 2.50 3.80 3.85 3.80 0.40 0 1.40 -0.65 2.20 -1.45z m-7.05 -4.15 c1.40 -1.55 1.30 -3.60 -0.30 -4.85 -2.40 -1.85 -5.30 -0.85 -6 2.05 -0.70 3.05 4.05 5.20 6.30 2.80z m17.25 0.80 c1.30 -0.55 2.30 -2.95 1.75 -4.40 -0.90 -2.40 -4.25 -3.10 -6 -1.20 -2.60 2.80 0.55 7 4.25 5.60z m-24.75 -4.30 c2.10 -2.25 0.60 -5.90 -2.50 -5.90 -3.10 0 -4.60 3.55 -2.40 5.85 1.35 1.45 3.55 1.50 4.90 0.05z m18.75 -0.15 c2.35 -2.30 0.85 -5.75 -2.50 -5.75 -1.85 0 -3.75 1.80 -3.75 3.60 0 1.35 2.25 3.40 3.75 3.40 0.70 0 1.85 -0.55 2.50 -1.25z m-26.40 -3.35 c2.35 -2.20 0.75 -5.90 -2.65 -5.90 -1.40 0 -1.90 0.30 -2.70 1.65 -1.30 2.10 -1.25 2.65 0.25 4.10 1.50 1.55 3.55 1.60 5.10 0.15z m18.60 -0.70 c1.40 -1.80 1.30 -3.40 -0.25 -4.65 -1.85 -1.45 -3.90 -1.35 -5.15 0.25 -1.35 1.75 -1.30 2.95 0.20 4.45 1.65 1.70 3.85 1.65 5.20 -0.05z m-7.50 -3.50 c0.60 -0.75 1.05 -1.70 1.05 -2.20 0 -1.70 -1.95 -3.50 -3.75 -3.50 -1.80 0 -3.75 1.80 -3.75 3.50 0 1.70 1.95 3.50 3.75 3.50 1.20 0 1.95 -0.35 2.70 -1.30z m-7.90 -3.65 c0.80 -0.80 1.45 -1.95 1.45 -2.55 0 -1.45 -2.20 -3.50 -3.75 -3.50 -0.70 0 -1.85 0.55 -2.50 1.25 -1.95 1.90 -1.50 4.30 1 5.65 1.55 0.85 2.20 0.70 3.80 -0.85z m-7.20 -12.75 c2.05 -2.25 2.50 -4.60 1.35 -7.05 -2.45 -5.20 -10.30 -4.90 -12.10 0.50 -2.15 6.60 6.10 11.65 10.75 6.55z m13.70 -10.45 c3.25 -2.20 3.75 -6.85 1.05 -9.90 -3.60 -4 -10.40 -2.05 -11.40 3.30 -1.05 5.70 5.50 9.90 10.35 6.60z m-36.05 -13.55 c1.25 -0.45 3.60 -1.75 5.30 -2.80 1.85 -1.25 3.60 -2 4.55 -2 2.35 0 4.65 -2.50 4.65 -5.05 0 -1.10 -0.20 -2.40 -0.50 -2.90 -0.25 -0.55 -0.30 -1.55 0 -2.60 1.40 -5.35 1.40 -5.40 1.45 1.15 0.05 5.95 0.10 6.40 1.15 7.10 1.70 1.20 3.65 1 4.85 -0.50 1 -1.25 1.05 -1.95 1.05 -13.70 0 -11.05 -0.10 -12.50 -0.85 -13.40 -1.35 -1.60 -3.20 -1.85 -4.80 -0.60 -1.30 1.05 -1.35 1.25 -1.35 5.65 0 3.85 -0.10 4.45 -0.65 3.85 -1.50 -1.65 -2.35 -5.20 -2.05 -8.30 0.30 -2.85 0.25 -3.15 -1.10 -4.65 -1.05 -1.15 -2.05 -1.70 -3.50 -1.90 -1.70 -0.20 -2.85 -0.95 -6 -3.75 l-3.90 -3.55 -7.50 0.30 c-8.05 0.30 -11.40 0.95 -16.55 3.30 -6.60 3.05 -10.30 7.50 -10.95 13.30 -0.35 2.75 -0.35 2.80 2.50 -1.90 1 -1.60 1.90 -2.80 2.05 -2.65 0.15 0.15 -0.25 0.95 -0.80 1.75 -0.60 0.85 -1.80 3.05 -2.60 4.85 -1.20 2.60 -1.45 3.75 -1.20 5.15 0.55 3.15 1.75 6.40 2.75 7.30 0.90 0.80 0.95 0.75 1.25 -2.10 0.15 -1.60 0.55 -4 0.85 -5.40 0.65 -2.90 2.80 -8.05 3.20 -7.60 0.15 0.15 -0.05 0.90 -0.45 1.70 -0.85 1.60 -2.15 7.60 -2.55 11.55 -0.25 2.45 -0.15 2.65 0.95 3.10 0.75 0.30 1.70 0.30 2.40 0.05 1.05 -0.40 1.25 -0.85 1.50 -4.20 0.15 -2.30 0.65 -4.50 1.30 -5.75 1.45 -2.80 2.25 -3.15 1.05 -0.45 -1.10 2.45 -2.20 9 -1.75 10.35 0.30 0.95 1.95 1.60 2.95 1.20 0.30 -0.10 1.10 -1.25 1.80 -2.55 1.75 -3.25 6.35 -8.10 8.75 -9.20 5.40 -2.50 12.65 0.75 14.20 6.30 1.55 5.60 0.05 9.95 -4.20 12.15 -2.30 1.15 -3.20 1.30 -10.30 1.55 -6.75 0.25 -8 0.45 -8.90 1.25 -2.10 1.90 -0.80 3.95 3.30 5.10 3.45 1 15.65 0.65 18.65 -0.50z m34.20 -44.50 c1.95 -0.80 3.15 -2.30 3.85 -4.95 0.65 -2.45 -0.55 -5.10 -3 -6.70 -4.30 -2.90 -10.05 0.25 -10.05 5.50 0 5 4.60 8.05 9.20 6.15z m-11.95 -12 c4.95 -2.10 4.95 -9.65 0 -12 -6.45 -3.05 -12.50 4.80 -7.90 10.25 2.10 2.50 4.70 3.05 7.90 1.75z m10.60 -7.90 c0.65 -0.60 1.15 -1.50 1.15 -2 0 -0.70 0.40 -0.90 1.95 -0.90 2.45 0 3.45 -0.35 4.10 -1.55 0.80 -1.55 -0.65 -4.05 -4.45 -7.45 -3.40 -3.05 -4.45 -4.35 -3.85 -4.90 0.15 -0.15 0.65 0.10 1.10 0.50 0.50 0.45 1.70 1.05 2.65 1.40 1.55 0.55 2.35 0.45 7.15 -1 6.80 -2 14.75 -5.10 18.35 -7.10 6.05 -3.35 8.20 -7 5.05 -8.65 -0.80 -0.40 -1.60 -1.15 -1.75 -1.65 -0.20 -0.50 -0.90 -1.50 -1.60 -2.15 -1.05 -1 -1.35 -1.05 -1.70 -0.45 -0.25 0.40 -0.50 1.35 -0.50 2.10 0 1.85 -0.75 2.15 -1.75 0.60 -0.95 -1.50 -1.35 -1.30 -1.60 0.90 -0.20 2 -0.45 2.25 -1.65 1.50 -1.45 -0.90 -1.85 -0.75 -2.60 0.75 -0.40 0.85 -2.20 2.25 -4.90 3.80 -2.35 1.40 -5.35 3.15 -6.70 3.95 -2.65 1.60 -3.30 1.35 -3.30 -1.10 0 -1.25 2.40 -3.70 5.95 -6.10 1.25 -0.85 1.30 -0.85 2.70 0.50 l1.45 1.35 -0.20 -3.15 c-0.20 -2.95 -0.15 -3.15 1 -3.45 0.65 -0.15 2.10 0 3.20 0.30 1.10 0.35 2.10 0.50 2.25 0.35 0.50 -0.50 -0.45 -5.75 -1.35 -7.60 -0.55 -1.05 -0.90 -1.95 -0.80 -2.05 0.60 -0.60 3.05 0.75 4.50 2.40 0.90 1.05 1.80 1.80 1.95 1.60 0.50 -0.50 0.40 -4.15 -0.15 -6.10 -0.25 -0.95 -1.05 -2.55 -1.80 -3.65 -1.10 -1.55 -1.20 -2.05 -0.70 -2.65 1.25 -1.50 4.10 1.80 5.50 6.50 1.10 3.70 1 3.60 1.50 2.70 0.70 -1.20 1.20 -6.10 0.80 -8.05 -0.15 -0.90 -1.05 -2.90 -1.95 -4.40 -1.05 -1.85 -1.60 -3.40 -1.60 -4.75 0 -1.80 -0.15 -2.05 -1.90 -2.90 -1.05 -0.50 -2.35 -0.75 -2.90 -0.60 -1.15 0.40 -5.50 5.70 -8.65 10.65 -2.05 3.20 -2.45 3.60 -3.85 3.60 -1.95 0 -4.80 2.70 -5.25 5 -0.25 1.05 -0.75 1.75 -1.55 2.05 -4.25 1.60 -8.60 6.60 -9.60 11 -0.60 2.75 0.30 5.10 2.40 6.20 1.30 0.65 1.55 1.05 1.55 2.55 l0 1.80 -1.70 -1.50 c-2.20 -1.90 -3.35 -2.30 -6.10 -1.85 -2.75 0.40 -5.50 2.65 -6.15 5 -0.65 2.40 0.25 6 1.80 7.25 0.70 0.55 2.05 1 2.95 1 1.40 0 1.75 0.20 2 1.40 1.05 4.25 5.40 10.10 7.55 10.10 0.45 0 1.35 -0.50 2 -1.10z m-11 -30.25 c21.15 -24.15 27.30 -31.15 28.65 -32.80 l1.20 -1.50 -3.65 -3.40 c-2.20 -2.05 -3.95 -3.25 -4.30 -3.05 -0.30 0.20 -4.50 4.85 -9.30 10.35 -4.80 5.50 -14.25 16.25 -20.95 23.95 -6.75 7.65 -12.45 14.25 -12.75 14.65 -0.40 0.55 0.30 1.50 3.10 4.20 2 1.90 3.75 3.45 3.85 3.45 0.15 0 6.50 -7.15 14.15 -15.85z m-4.40 -12.40 c2.05 -1.05 3.95 -3.50 4.35 -5.55 0.80 -4.25 -2.90 -8.70 -7.20 -8.70 -4.45 0 -7.30 2.30 -7.90 6.40 -0.85 5.80 5.60 10.55 10.75 7.85z"/>
  <path d="M216.65 297.25 c-2.45 -1.05 -2.95 -3.85 -1 -5.65 1.55 -1.45 3.60 -1.40 5.10 0.15 1.50 1.45 1.60 2.70 0.25 4.35 -1.25 1.60 -2.45 1.95 -4.35 1.15z m3.05 -1.55 c1.10 -1.10 1 -2.50 -0.30 -3.40 -0.60 -0.45 -1.30 -0.80 -1.50 -0.80 -0.55 0 -2.40 1.90 -2.40 2.50 0 0.75 1.90 2.50 2.70 2.50 0.40 0 1.10 -0.35 1.50 -0.80z"/>
  <path d="M160.30 269.95 c-1.80 -1.40 -1.80 -4 0 -5.40 0.75 -0.60 1.70 -1.05 2.20 -1.05 1.70 0 3.50 1.95 3.50 3.75 0 1.80 -1.80 3.75 -3.50 3.75 -0.50 0 -1.45 -0.45 -2.20 -1.05z m4.30 -1.70 c0.50 -1.10 0.45 -1.45 -0.45 -2.35 -2.05 -2 -5 0.10 -3.65 2.60 0.80 1.50 3.35 1.35 4.10 -0.25z"/>
  <path d="M234.25 260.75 c-2.70 -2.65 -0.75 -7.25 3.10 -7.25 3.70 0 5.65 4.90 3 7.40 -1.65 1.55 -4.50 1.50 -6.10 -0.15z m4.80 -0.75 c1.95 -1.05 0.60 -5 -1.70 -5 -1.40 0 -2.85 1.40 -2.85 2.80 0 2.25 2.35 3.35 4.55 2.20z"/>
  <path d="M183.75 228.25 c-1.70 -1.65 -1.70 -4.20 0.05 -5.95 1.50 -1.45 3.10 -1.65 5.15 -0.55 1.60 0.80 2.05 1.65 2.05 3.80 0 3.50 -4.70 5.30 -7.25 2.70z m5.45 -1.90 c0.55 -1.50 0.10 -2.65 -1.35 -3.55 -1.25 -0.80 -3.55 0.60 -3.75 2.30 -0.35 2.95 4.15 4.10 5.10 1.25z"/>
  <path d="M200 218.15 c-3.10 -1.15 -4.05 -5.15 -1.75 -7.40 2.75 -2.80 7.25 -0.80 7.25 3.20 0 1.60 -0.30 2.20 -1.55 3.25 -1.50 1.25 -2.45 1.50 -3.95 0.95z m3.45 -2.35 c1 -1.20 0.45 -3.45 -1 -4.25 -1.20 -0.65 -1.45 -0.65 -2.65 0.10 -1.40 0.95 -1.80 3.15 -0.70 4.25 0.85 0.85 3.65 0.75 4.35 -0.10z"/>
  <path d="M176.25 197 c-1.35 -1.50 -0.35 -3.50 1.70 -3.50 2.05 0 2.95 1.60 1.80 3.30 -0.95 1.45 -2.30 1.55 -3.50 0.20z"/>
  <path d="M177.50 184.60 c-2.25 -1.80 -0.05 -4.95 2.50 -3.60 1.25 0.65 1.30 2.55 0.10 3.65 -1.15 1.05 -1.25 1.05 -2.60 -0.05z"/>
  <path d="M174.75 172 c-0.75 -0.85 -0.80 -1.20 -0.35 -2.25 0.70 -1.55 2.55 -1.65 3.85 -0.25 0.85 0.90 0.85 1.05 0.05 2.25 -1 1.50 -2.30 1.60 -3.55 0.25z"/>
  <path d="M163.75 165 c-1.35 -1.50 -0.35 -3.50 1.70 -3.50 2.05 0 2.95 1.60 1.80 3.30 -0.95 1.45 -2.30 1.55 -3.50 0.20z"/>
  <path d="M197.30 157.95 c-0.70 -0.85 -1.30 -1.95 -1.30 -2.50 0 -1.70 1.40 -3.80 2.90 -4.40 3.80 -1.60 7.45 2.45 5.50 6.10 -0.85 1.70 -1.95 2.30 -4 2.35 -1.40 0 -2.10 -0.35 -3.10 -1.55z m5.20 -0.95 c1.20 -1.20 1.25 -2.35 0.15 -3.60 -1.65 -1.80 -5.15 -0.50 -5.15 1.95 0 1 1.90 2.65 3 2.65 0.55 0 1.45 -0.45 2 -1z"/>
  <path d="M185.25 146.25 c-2.70 -2.65 -0.80 -7.25 2.90 -7.25 3.25 0 5.40 2.90 4.35 5.80 -0.75 1.90 -1.90 2.65 -4.15 2.70 -1.35 0 -2.25 -0.35 -3.10 -1.25z m4.80 -0.75 c0.65 -0.35 0.95 -1.05 0.95 -2.25 0 -2.55 -2.65 -3.65 -4.60 -1.90 -2.50 2.25 0.55 5.80 3.65 4.15z"/>
  <path d="M199.80 114 c-1.05 -2.60 -1 -3.40 0.20 -5.40 1.30 -2.10 3.80 -3.60 6.15 -3.60 1.90 0 2.30 0.55 1.40 1.95 -0.40 0.60 -0.70 0.65 -1.80 0.15 -1 -0.45 -1.55 -0.45 -2.40 -0.05 -2.10 1.10 -2.40 2.80 -1 5.65 0.65 1.45 0.70 1.90 0.15 2.55 -1.05 1.25 -1.85 0.85 -2.70 -1.25z"/>
  <path d="M180.65 96.40 c-1.15 -0.55 -2.65 -3.20 -2.65 -4.65 0 -1.40 1.40 -3.55 2.75 -4.15 2.85 -1.30 5.75 -0.40 7 2.25 2.10 4.35 -2.60 8.70 -7.10 6.55z m4.85 -2.40 c1.20 -1.20 1.25 -2.40 0.20 -3.90 -1.55 -2.25 -5.70 -0.95 -5.70 1.80 0 2.80 3.45 4.15 5.50 2.10z"/>
  <path d="M346.65 299.90 c-2.35 -4 -17.80 -30.85 -21.75 -37.85 -3.85 -6.90 -3.85 -6.45 -0.25 -8.35 l1.40 -0.75 -0.30 1.70 c-0.70 3.75 2.45 7.35 6.45 7.35 1.55 0 2.25 -0.35 3.85 -1.95 2.15 -2.15 2.55 -4.40 1.25 -7 -0.80 -1.50 -2.80 -3.05 -4 -3.05 -1.75 0 -1.05 -1.05 2.65 -3.95 17.50 -13.75 28.65 -34.65 30.55 -57 0.55 -6.40 0.10 -16.20 -1 -20.80 -0.75 -3.15 -0.65 -3.40 0.75 -2.45 4.95 3.20 11.25 0.10 11.25 -5.55 0 -4 -2.95 -6.75 -7.30 -6.75 -2 0 -2.55 0.25 -4.20 1.90 -1 1 -1.95 2.20 -2.10 2.60 -0.35 1.05 -0.45 0.90 -2.65 -4.75 -1.10 -2.75 -2.05 -5.15 -2.15 -5.35 -0.10 -0.25 0.85 -0.40 2.15 -0.40 2 0 2.40 0.20 3.15 1.45 0.90 1.55 3.65 3.20 4.70 2.75 0.35 -0.10 2.90 -4.65 5.65 -10.10 4.40 -8.65 5.40 -10.20 8.20 -13 1.75 -1.75 3.20 -3.10 3.25 -3 0.10 0.10 0.45 0.90 0.80 1.85 0.80 2 2.35 3.55 3.55 3.55 1.70 0 3.90 -2.45 4.80 -5.40 0.45 -1.60 1.55 -3.60 2.40 -4.60 2.75 -3 3.30 -5.85 1.95 -9.80 -0.75 -2.25 -0.75 -2.35 0.35 -3.50 1.35 -1.45 4.30 -1.65 4.80 -0.40 0.15 0.45 0.95 1.10 1.70 1.40 l1.40 0.60 -4.85 9.20 c-2.70 5.10 -6.40 12.15 -8.30 15.65 l-3.40 6.45 -1.50 -1.80 c-2.80 -3.45 -7.55 -3.55 -10.65 -0.30 -1.30 1.40 -1.50 1.95 -1.50 4.50 0 2.75 0.15 3.10 1.85 4.80 1.45 1.50 2.25 1.90 4.25 2.05 l2.50 0.25 -1.15 2.85 c-1.90 4.55 -1.35 8.05 1.25 8.05 0.50 0 4.35 -1.65 8.60 -3.70 12.15 -5.85 18.90 -7.60 27.95 -7.20 4.10 0.15 5.70 0.45 7.25 1.25 4.50 2.40 8 7.85 9.55 14.90 1.15 5.45 1.20 27.35 0 32.30 -1.30 5.70 -2.75 8.80 -5.35 11.65 -3.50 3.85 -6.35 4.95 -12.45 4.95 -8.95 -0.05 -15.75 -1.95 -27.05 -7.45 -4.15 -2.05 -8.10 -3.70 -8.75 -3.70 -2.15 0 -2.85 3.30 -1.50 7.15 0.60 1.60 14.40 28.10 18.40 35.15 l1.40 2.55 -2.55 -1.25 c-2.40 -1.20 -2.65 -1.25 -4.60 -0.55 -6.80 2.35 -5.10 11.95 2.10 11.95 1.65 0 2.45 -0.35 3.95 -1.70 1.65 -1.55 1.85 -2 1.85 -4.20 l0 -2.45 1.40 2.55 c3.75 6.75 8.95 16.90 8.80 17 -0.40 0.35 -66.60 32.30 -66.90 32.30 -0.15 0 -1 -1.20 -1.90 -2.60z m7.35 -1.50 c5.10 -2.65 5.30 -9.40 0.40 -12.40 -4.15 -2.55 -10.05 0.15 -10.45 4.75 -0.40 5 2.40 8.45 7.05 8.70 0.45 0.05 1.80 -0.45 3 -1.05z m19.20 -10.90 c0.65 0 1.90 -0.55 2.70 -1.25 0.85 -0.70 1.75 -1.25 2.05 -1.25 0.35 0 1.05 -0.80 1.60 -1.75 0.55 -0.95 2.55 -2.80 4.35 -4.05 1.85 -1.30 3.40 -2.40 3.50 -2.45 0.10 -0.10 -1.20 -2.30 -2.90 -4.95 -2.20 -3.60 -3 -5.35 -3 -6.65 0 -1.25 -1.15 -4 -3.85 -9.25 l-3.90 -7.45 -1.75 0.25 c-0.95 0.10 -2.45 0.40 -3.35 0.55 -1.50 0.35 -1.70 0.20 -3.30 -2.30 -1 -1.50 -1.60 -2.85 -1.45 -3 0.20 -0.20 1.75 -1.05 3.50 -1.95 l3.20 -1.65 3.70 3.70 3.70 3.65 2.25 -2.20 c1.25 -1.20 2.25 -2.45 2.25 -2.75 0 -0.95 -6 -7.70 -7.55 -8.55 -1.50 -0.75 -1.75 -0.75 -4.65 0.30 -4.30 1.55 -14.20 6.15 -19.75 9.20 -5.80 3.15 -6 3.55 -6.40 12.40 l-0.30 6.40 2.55 0 c2.95 0 2.75 0.40 3.65 -6.90 l0.60 -5.20 4.35 -2.15 4.35 -2.20 2.35 2.35 c1.25 1.30 2.30 2.65 2.30 3 0 0.80 -3.80 2.55 -5.60 2.60 -1.15 0 -1.60 0.45 -2.60 2.40 -0.65 1.30 -1.70 2.65 -2.30 3 -0.80 0.50 -0.95 0.90 -0.70 1.75 0.20 0.60 0.35 1.90 0.40 2.85 0.05 1.45 0.35 1.90 2 2.80 l1.95 1.10 -1.35 0.85 c-0.75 0.50 -1.65 1.50 -2.05 2.25 -0.70 1.30 -0.65 1.50 0.75 3.20 0.80 1.05 1.60 2.55 1.75 3.45 0.70 3.40 1.85 6.25 2.90 7.30 1.15 1.05 4.65 2.05 7.60 2.20 0.85 0.05 1.95 0.35 2.50 0.70 0.60 0.35 1.30 0.40 1.85 0.10 0.45 -0.25 1.40 -0.45 2.10 -0.45z m-25.45 -3.10 c3.45 -3.20 2.70 -8.10 -1.50 -9.95 -2.80 -1.25 -4.70 -0.95 -6.75 1.10 -3.90 3.90 -1.20 10.45 4.30 10.45 1.80 0 2.55 -0.30 3.95 -1.60z m48 -8.45 c2.05 -1.10 3.75 -2.20 3.75 -2.40 0 -0.25 -1.65 -4.80 -3.70 -10.15 -2.05 -5.35 -3.90 -10.30 -4.05 -11.05 -0.45 -1.65 -1.20 -2.20 -1.80 -1.30 -0.20 0.35 -0.65 2.20 -1 4.10 l-0.60 3.40 -2.15 -4.05 c-2.25 -4.40 -3.50 -6 -4.55 -6 -2.10 0 1.30 13.90 5.50 22.25 1.40 2.80 4.30 7.25 4.70 7.25 0.10 0 1.85 -0.90 3.90 -2.05z m-55.40 -1.80 c3.95 -1.85 4.80 -6.75 1.70 -9.85 -1.40 -1.35 -1.90 -1.55 -4.35 -1.55 -2.50 0 -2.95 0.15 -4.20 1.60 -2.95 3.30 -2.25 7.90 1.50 9.75 2.20 1.10 3.15 1.10 5.35 0.05z m67.75 -2.65 c1.95 -0.80 2.95 -1.85 3.65 -3.80 1.80 -5.30 -4.20 -10.15 -8.90 -7.25 -4.35 2.65 -4.15 8.90 0.30 10.80 1.90 0.85 3.40 0.90 4.95 0.25z m-24.95 -39.70 c2.75 -1.15 4.35 -3.45 4.35 -6.40 0 -3.20 -1.15 -5.15 -3.75 -6.40 -2.50 -1.20 -3.60 -1.25 -6.25 -0.20 -5.35 2.15 -5.35 10.15 0 12.80 2.10 1.10 3.50 1.10 5.65 0.20z m-12.25 -12.30 c3.25 -2 3.85 -6.30 1.20 -9.10 -2.75 -2.95 -6.80 -2.85 -9.35 0.15 -2.20 2.70 -1.55 7.20 1.35 8.95 2.10 1.25 4.70 1.25 6.80 0z m44.05 -12.50 c8 -0.85 10.75 -2.85 7.95 -5.85 -1 -1.10 -1.45 -1.15 -7.60 -1.15 -11.85 0 -16.30 -2.60 -16.30 -9.65 0 -7.65 6.35 -12.75 13.40 -10.80 2.90 0.80 7.60 5.30 10 9.60 1.75 3.15 3 3.65 4.35 1.75 0.95 -1.40 0.60 -5.90 -0.80 -9.60 -1.20 -3.25 -0.75 -3.65 0.60 -0.50 0.65 1.35 1.20 3.95 1.35 5.85 0.20 3 0.40 3.50 1.40 3.95 0.85 0.40 1.55 0.40 2.45 0 1.25 -0.55 1.25 -0.70 0.95 -3.95 -0.30 -3.05 -1.45 -8.20 -2.40 -10.90 -0.20 -0.55 0.10 -0.20 0.65 0.75 1 1.80 2.30 6.85 2.80 11.15 0.20 1.30 0.50 2.35 0.75 2.35 0.70 0 2.45 -4.10 3.05 -7.15 0.60 -2.85 0.60 -2.85 -1.65 -7.35 -1.25 -2.45 -2.20 -4.50 -2.10 -4.50 0.05 0 0.95 1.35 2 3 1 1.65 1.95 2.90 2.10 2.80 0.10 -0.15 -0.05 -1.75 -0.40 -3.60 -0.80 -4.20 -3.35 -7.50 -8 -10.30 -5.70 -3.40 -10.05 -4.50 -19.05 -4.80 l-7.80 -0.20 -4 3.55 c-3.10 2.75 -4.40 3.55 -5.55 3.55 -1.95 0 -4.45 2.10 -5 4.15 -0.25 0.90 -0.20 2.50 0.05 3.65 0.45 1.80 0.30 2.40 -0.95 5 l-1.45 2.95 -0.15 -4.60 c-0.15 -4.30 -0.25 -4.70 -1.45 -5.65 -1.65 -1.25 -2.65 -1.25 -4.35 0.05 l-1.30 1 0 12.85 c0 12.45 0.05 12.80 1.10 13.95 1.35 1.45 3.55 1.50 4.90 0.15 0.90 -0.90 1 -1.70 1.05 -7.10 l0.05 -6.15 0.70 2.75 c0.45 1.80 0.60 3.90 0.40 6.10 -0.25 2.70 -0.15 3.65 0.55 4.70 0.90 1.40 3.95 2.90 5 2.50 0.35 -0.10 1.40 0.35 2.35 1 3.60 2.75 7.70 4.25 13.15 4.90 0.85 0.05 1.75 0.20 2 0.20 0.30 0.05 2.60 -0.15 5.20 -0.40z"/>
  <path d="M349.20 296.55 c-1.95 -0.85 -3.30 -3.10 -3 -5.05 0.60 -3.90 5.05 -5.30 7.85 -2.55 3.55 3.55 -0.30 9.50 -4.85 7.60z m4.10 -2.80 c1 -1.55 0.75 -2.65 -0.90 -3.90 -1.15 -0.85 -1.55 -0.95 -2.65 -0.45 -2.20 1 -2.50 3.90 -0.55 5.20 1.20 0.80 3.30 0.40 4.10 -0.85z"/>
  <path d="M346.80 257.15 c0.20 -1.05 0.70 -3.70 1.15 -5.90 l0.80 -4 3.50 -1.85 c1.95 -1 7.15 -3.60 11.60 -5.70 l8.10 -3.85 3.75 3.40 c2.10 1.85 3.80 3.55 3.80 3.80 0 0.95 -1.10 0.30 -4.35 -2.55 -1.85 -1.65 -3.55 -3 -3.75 -3 -0.50 0 -20.45 9.95 -21.20 10.55 -0.30 0.25 -0.95 2.80 -1.45 5.70 -0.65 3.70 -1.10 5.25 -1.60 5.25 -0.55 0 -0.60 -0.45 -0.35 -1.85z"/>
  <path d="M340.95 282.55 c-1.65 -1.65 -1.75 -2.50 -0.70 -4.50 1.75 -3.40 6.80 -2.55 7.55 1.30 0.25 1.35 0.05 1.85 -1.20 3.15 -1.95 1.95 -3.70 1.95 -5.65 0.05z m4.80 -1.05 c1.10 -1.20 0.65 -3.30 -0.80 -3.75 -2.75 -0.90 -4.75 1.25 -3.25 3.50 1 1.50 2.80 1.60 4.05 0.25z"/>
  <path d="M334.75 271.50 c-1.45 -1.60 -1.25 -4.40 0.45 -5.80 1.85 -1.60 3.55 -1.50 5.35 0.25 1.70 1.75 1.85 3.40 0.40 5.25 -1.35 1.70 -4.80 1.85 -6.20 0.30z m4.75 -1 c1.35 -1.35 1.25 -2.80 -0.30 -3.85 -1.20 -0.75 -1.45 -0.75 -2.65 -0.10 -1.65 0.95 -1.90 2.60 -0.60 3.90 1.30 1.30 2.30 1.30 3.55 0.05z"/>
  <path d="M404.25 269.40 c-1.55 -0.85 -2.25 -1.95 -2.25 -3.70 0 -2.35 1.50 -3.90 3.65 -3.90 4.70 0 6.10 6.15 1.80 7.65 -1.90 0.65 -1.95 0.65 -3.20 -0.05z m3.15 -1.70 c1.35 -0.95 1.40 -2.75 0.10 -3.95 -2 -1.80 -5.10 0.55 -3.85 3 0.95 1.90 2.05 2.15 3.75 0.95z"/>
  <path d="M377.45 228.60 c-1.25 -1.10 -1.55 -1.80 -1.55 -3.35 0 -1.55 0.30 -2.25 1.55 -3.35 0.85 -0.75 2.15 -1.40 2.85 -1.40 4.60 0 6.60 5.30 3.10 8.25 -1.95 1.65 -4 1.60 -5.95 -0.15z m5.25 -1.40 c2.20 -2.20 -0.45 -5.85 -3.40 -4.70 -1.50 0.55 -2.15 2.55 -1.35 4.30 0.40 0.95 0.90 1.20 2.25 1.20 0.95 0 2.10 -0.35 2.50 -0.80z"/>
  <path d="M364.75 217.25 c-2.55 -2.50 -0.85 -6.75 2.70 -6.75 2.35 0 4.05 1.65 4.05 3.95 0 2.10 -1.90 4.05 -4 4.05 -0.95 0 -2 -0.45 -2.75 -1.25z m5.10 -1.70 c0.70 -1.45 0.20 -2.75 -1.40 -3.55 -1.40 -0.75 -3.45 0.55 -3.45 2.25 0 2.75 3.65 3.70 4.85 1.30z"/>
  <path d="M391.10 197.65 c-1.10 -0.45 -1.70 -2.05 -1.10 -3.15 0.75 -1.35 3.30 -1.35 4 0.05 0.45 0.80 0.40 1.30 -0.25 2.25 -0.75 1.15 -1.35 1.40 -2.65 0.85z"/>
  <path d="M389.60 184.40 c-1.95 -1.95 0.85 -5 2.90 -3.15 1.70 1.55 1 3.75 -1.25 3.75 -0.60 0 -1.30 -0.25 -1.65 -0.60z"/>
  <path d="M392.10 172.40 c-0.85 -0.85 -0.75 -3.25 0.20 -3.60 2.55 -1 4.40 0.85 2.95 3 -0.85 1.30 -2.20 1.55 -3.15 0.60z"/>
  <path d="M402.80 164.90 c-1 -1.40 -1 -1.65 0 -2.60 2.10 -2.15 5.45 0.50 3.45 2.70 -1.20 1.30 -2.50 1.25 -3.45 -0.10z"/>
  <path d="M202 288.95 c-0.95 -0.30 -2.05 -0.60 -2.45 -0.75 -0.35 -0.10 0.90 -1 2.80 -1.95 3.40 -1.70 7.55 -5.50 11.40 -10.45 1.25 -1.60 1.70 -1.90 2.70 -1.55 1.15 0.35 1.15 0.35 -0.40 1.30 -1.75 1.05 -1.90 1.90 -0.75 3.70 0.90 1.35 0.65 2.75 -0.50 2.75 -0.40 0 -0.95 -0.35 -1.20 -0.80 -0.25 -0.45 -0.75 -0.75 -1.05 -0.65 -0.45 0.15 -0.30 0.65 0.40 1.55 1.40 1.75 1.35 2.60 -0.05 2.15 -2.45 -0.75 -3.80 -0.85 -4.15 -0.25 -0.25 0.40 0.05 0.95 0.70 1.45 1.60 1.20 0.75 1.60 -2.50 1.25 -3.15 -0.35 -4.45 0.45 -2.20 1.30 0.70 0.25 1.15 0.70 1 1 -0.35 0.60 -1.40 0.60 -3.75 -0.05z"/>
  <path d="M199.30 280.75 c-3.85 -1.35 -10.75 -5.35 -12.45 -7.20 l-1.10 -1.20 2.25 0.30 c4.75 0.60 19.25 9.40 15.40 9.35 -0.35 0 -2.20 -0.55 -4.10 -1.25z"/>
  <path d="M177.85 275.95 c-1.70 -1.40 -1.85 -1.70 -1.55 -3.45 0.30 -1.70 0.15 -2 -1.05 -2.80 -0.95 -0.60 -1.25 -1.15 -1.05 -1.90 0.20 -0.75 -0.15 -1.35 -1.10 -2.15 l-1.35 -1.10 1.50 -1.25 c1.25 -1.10 1.40 -1.35 0.75 -1.80 -0.40 -0.25 -1 -0.50 -1.30 -0.50 -0.70 0 -1.30 -1.25 -0.85 -1.70 0.20 -0.15 0.75 -0.30 1.25 -0.30 1.10 0 1.20 -1.15 0.15 -2 -1.25 -1.05 -0.85 -1.95 0.85 -2.10 1.95 -0.20 2.45 -1.50 1.10 -2.95 -0.90 -1 -0.90 -1 0.55 -0.65 2.30 0.50 2.50 0.50 2.35 -0.25 -0.80 -3.60 -0.80 -3.55 0.60 -3.55 0.75 0 1.55 -0.40 1.90 -1 0.35 -0.55 0.80 -1 1.05 -1 0.75 0 3.35 3.20 3.35 4.15 0 0.50 -1 2.10 -2.20 3.50 -5.30 6.30 -6.55 13.15 -3.80 21.15 0.55 1.55 0.95 2.95 0.85 3 -0.10 0.10 -1 -0.50 -2 -1.35z"/>
  <path d="M147.50 263.20 c-1.60 -2.40 -10.50 -20.30 -10.50 -21 0 -0.20 0.80 0.55 1.75 1.65 5.80 6.80 16.85 5.45 20.55 -2.60 2.45 -5.20 1.25 -10.85 -3.05 -14.65 -5.05 -4.45 -11.65 -4.15 -16.60 0.65 -2.95 2.85 -4.35 6.45 -3.85 9.95 l0.25 2.05 -0.80 -1.70 c-1.65 -3.65 -6.75 -21.65 -6.75 -23.95 0 -0.35 1.10 0.50 2.50 1.90 1.50 1.55 3.80 3.15 5.85 4.15 l3.40 1.60 8.75 -0.05 c10.05 -0.05 13.80 -0.80 20.90 -4.20 2.30 -1.10 4.30 -2 4.40 -2 0.20 0 -24.70 50.05 -25.05 50.45 -0.10 0.10 -0.90 -0.95 -1.75 -2.25z"/>
  <path d="M412 248.10 c-9.85 -19.75 -16 -32.45 -16 -32.85 0 -0.15 0.95 0.25 2.15 0.95 8.40 4.80 25.10 7.05 32.80 4.35 3.80 -1.35 6.90 -3.35 9 -5.90 0.85 -1.05 1.55 -1.65 1.55 -1.40 0 1.30 -3.15 13.20 -4.85 18.30 l-1.85 5.70 -0.35 -2.50 c-1.65 -12.40 -17.80 -15.45 -23.60 -4.50 -1.40 2.65 -1.50 8.20 -0.20 10.80 2.25 4.50 6.40 7.15 11.35 7.15 3.40 0 5.25 -0.70 8.40 -3.05 0.85 -0.65 1.60 -1.05 1.60 -0.90 0 1.35 -9.95 20.35 -11 21 -0.20 0.15 -4.30 -7.55 -9 -17.15z"/>
  <path d="M329.45 259.05 c-3.35 -2.65 -1 -7.70 3.30 -7.10 0.55 0.05 1.55 0.70 2.20 1.40 0.90 1.05 1.10 1.70 0.85 3.10 -0.35 2.20 -1.15 3 -3.35 3.35 -1.25 0.20 -2.05 0.05 -3 -0.75z m4.30 -1.35 c1.95 -2 -0.70 -5.50 -3 -4 -1.15 0.80 -1.60 3.05 -0.70 4.10 0.75 0.95 2.70 0.90 3.70 -0.10z"/>
  <path d="M396.95 256.35 c-3.30 -2.50 -1.75 -7.40 2.30 -7.35 1.70 0.05 2.80 0.75 3.70 2.35 1.70 3.25 -3.10 7.25 -6 5z m4.30 -2.05 c0.90 -1.35 0.45 -2.85 -1.10 -3.75 -1.30 -0.70 -3.65 0.65 -3.65 2.20 0 2.65 3.30 3.75 4.75 1.55z"/>
  <path d="M276.70 254.95 c-15.35 -1.60 -30.80 -8.85 -42.40 -19.95 -3.15 -2.95 -9.30 -10.05 -9.30 -10.70 0 -0.10 1.05 -0.40 2.40 -0.55 4.90 -0.65 4.70 -0.35 4.55 -8.05 l-0.20 -6.75 1.60 -1 c4.95 -3.15 6.55 -10.85 3.40 -16.25 -2.10 -3.55 -6.05 -5.70 -10.55 -5.70 -6.80 0 -11.90 5.15 -11.90 12 0 3.70 0.85 5.75 3.55 8.55 1.65 1.75 1.70 1.90 1.25 4.25 l-0.40 2.45 -0.80 -1.50 c-1.25 -2.40 -3.80 -10.20 -4.60 -14 -6.30 -30.15 6.65 -60.35 32.95 -77.05 l1.50 -0.95 -1.10 1.75 c-2.75 4.45 -2.30 9.65 1.10 13.15 0.95 1 1.75 1.90 1.75 2.10 0 0.15 -0.85 0.25 -1.85 0.25 -2.90 0 -18.50 2.35 -19.50 2.95 -0.65 0.35 2.75 0.55 11.60 0.55 6.90 0 32.55 0.15 57 0.30 28 0.20 44.95 0.10 45.75 -0.20 1.20 -0.45 1.15 -0.50 -0.75 -0.85 -1.10 -0.20 -2.75 -0.55 -3.70 -0.75 -0.90 -0.25 -5.25 -0.85 -9.60 -1.35 -4.40 -0.45 -7.95 -1.05 -7.95 -1.25 0 -0.20 0.55 -0.75 1.25 -1.20 3.75 -2.45 4.40 -10.60 1.15 -14.05 -1.70 -1.85 -0.55 -1.35 4.05 1.70 2.45 1.65 6.70 5.25 9.85 8.40 10.25 10.25 16.95 22.55 20.05 36.85 1.20 5.60 1.25 23.50 0.05 28.40 -0.70 2.80 -0.80 3 -0.85 1.45 -0.15 -4.60 -2.80 -8.75 -6.85 -10.75 -2.30 -1.10 -3.20 -1.30 -6.15 -1.10 -4.40 0.25 -7.60 2.10 -9.80 5.65 -1.30 2.15 -1.50 2.85 -1.50 6.20 0 3.25 0.20 4.15 1.40 6.15 0.75 1.30 2.20 2.95 3.25 3.65 l1.85 1.25 -0.20 6.70 c-0.10 5.05 0 6.80 0.50 7.10 0.35 0.20 2 0.60 3.60 0.90 l3 0.55 -3 3.75 c-11.10 13.85 -27.40 23.45 -44.65 26.25 -6.45 1.05 -9.50 1.30 -9.50 0.90 0 -0.20 0.80 -0.90 1.70 -1.50 1.90 -1.20 4.80 -6 5.85 -9.60 0.75 -2.45 0.60 -2.40 8.20 -4.25 12.50 -3 23.20 -10.40 27.80 -19.30 1.95 -3.75 1.60 -6.35 -2.25 -16.70 -1.85 -4.90 -3.50 -9.55 -3.65 -10.35 -0.15 -0.80 -0.50 -1.45 -0.80 -1.45 -0.80 0 -12.55 3.65 -13 4 -0.25 0.20 0.80 0.75 2.25 1.25 6.65 2.15 11.75 6.15 12.95 10.20 1.70 5.70 -3.45 13.95 -11.10 17.85 -3.15 1.55 -9.90 3.50 -13.90 3.95 l-3.20 0.35 0.30 -1.90 c0.20 -1.10 0.35 -2.35 0.35 -2.80 0 -0.80 0.65 -0.90 6.90 -0.90 3.75 0 7.70 -0.25 8.70 -0.50 3.95 -1.10 6.40 -4.45 6.40 -8.65 0 -4.25 -2.55 -7.80 -7 -9.80 -2.15 -1 -3.15 -1.05 -29.50 -1.05 l-27.25 0 -2.50 1.20 c-4.55 2.10 -6.75 5.25 -6.75 9.55 0 2.95 0.95 5.20 2.95 6.90 2.30 1.90 4.50 2.35 12.20 2.35 l6.85 0 0 1.20 c0 0.65 0.15 1.90 0.30 2.80 l0.35 1.60 -3.20 -0.35 c-4.40 -0.50 -11.10 -2.50 -14.55 -4.35 -7.75 -4.15 -12.40 -12.35 -10.20 -18.10 1.50 -3.85 7.35 -8.20 13.25 -9.80 1.20 -0.30 2 -0.75 1.75 -0.95 -0.55 -0.45 -13.20 -4.25 -13.35 -4 -0.05 0.10 -0.95 2.70 -2 5.70 -1.10 3.05 -2.85 8 -3.90 11 -2.25 6.25 -2.30 8.10 -0.25 12.15 4.25 8.40 15.35 16 27.55 18.95 7.60 1.80 7.45 1.75 8.20 4.20 1.40 4.70 3.90 8.45 7.05 10.55 1.45 1 1.45 1 -4.80 0.35z m-4 -3.75 c1.90 -1.90 0.60 -3.05 -5.90 -5.20 l-5 -1.65 -0.90 1.15 c-1.10 1.35 -1.10 1.70 -0.10 2.55 0.80 0.65 9.30 3.85 10.55 3.90 0.30 0.05 0.95 -0.30 1.35 -0.75z m30.55 -0.70 c4.50 -1.50 6.75 -2.65 6.75 -3.45 0 -0.25 -0.40 -0.95 -0.90 -1.55 l-0.90 -1.15 -5 1.65 c-6.50 2.15 -7.80 3.30 -5.90 5.20 1 1 0.75 1.05 5.95 -0.70z m-45.25 -5.20 c1.35 -1.65 0.40 -2.90 -4.50 -5.60 -2.60 -1.50 -5.15 -2.70 -5.65 -2.70 -0.45 0 -1.15 0.55 -1.45 1.25 -0.75 1.65 -0.25 2.15 5.20 5.30 4.45 2.60 5.45 2.85 6.40 1.75z m60.45 -1.80 c5 -2.80 5.75 -3.55 5.30 -4.95 -0.60 -2 -2.10 -1.75 -7.15 1.05 -5 2.80 -5.95 4 -4.60 5.70 0.95 1.10 1.70 0.90 6.45 -1.80z m-74.05 -6.60 c1.20 -1.20 0.50 -2.45 -3.45 -5.85 -4.05 -3.50 -5.60 -4.20 -6.85 -2.95 -1.25 1.25 -0.50 2.45 3.70 5.85 4.25 3.55 5.45 4.10 6.60 2.95z m87.50 -2.65 c4.65 -3.75 4.80 -3.90 4.40 -5.55 -0.65 -2.55 -3.70 -1.15 -9.40 4.25 -1.95 1.80 -2.35 2.90 -1.30 3.95 1.10 1.10 2.30 0.60 6.30 -2.65z m-44.45 -33.70 c0.70 -0.75 1.75 -2.20 2.25 -3.15 l0.95 -1.75 2.05 1.15 c2.35 1.35 5.85 1.60 6.80 0.45 1.35 -1.65 -0.80 -7.15 -4.80 -12.05 -3.30 -4.05 -3.85 -5.65 -3.90 -11.20 0 -6.50 1.05 -9.85 3.80 -12.25 2.95 -2.50 6.45 -3.40 12.10 -3.15 5.10 0.25 9.05 1.60 13.70 4.65 1.40 1 2.60 1.55 2.60 1.30 0 -1.15 -2.40 -3.20 -5.65 -4.80 -7.30 -3.55 -19.10 -5.05 -36.80 -4.60 -16.85 0.40 -27.20 2.70 -31.80 7.10 -2.60 2.40 -2.10 3 0.90 1 4.60 -3.05 8.55 -4.40 13.70 -4.65 8.20 -0.40 13.35 2.25 15 7.80 1 3.40 1.15 11 0.20 13.75 -0.35 1 -1.65 3.05 -2.90 4.50 -3.80 4.45 -6.30 10.25 -5.20 12.30 0.75 1.40 3.85 1.40 6.55 0.05 1.10 -0.55 2.05 -1 2.20 -1 0.10 0 0.90 1.15 1.80 2.50 2.50 3.90 4.20 4.45 6.45 2.05z m-24.20 -12.55 l0 -4.25 -4.50 -0.30 c-6.95 -0.45 -11.50 -3.05 -13.95 -7.90 -1.55 -3.05 -1.85 -4.60 -1.85 -8.65 0 -9.45 7.55 -14.70 23.65 -16.40 3.20 -0.35 11.50 -0.45 21.90 -0.35 14.40 0.20 17.40 0.40 21.40 1.25 6.45 1.40 11.15 3.70 13.85 6.70 2.85 3.15 3.40 5.05 3.15 10.15 -0.50 9.65 -6.65 15.25 -16.75 15.25 l-3.70 0 0.15 4.40 0.15 4.35 3.60 -0.10 c6.50 -0.25 12.75 -3 16.45 -7.30 5.30 -6.25 7.20 -18.05 4.15 -26.10 -1.55 -4.15 -6.05 -8.65 -11.05 -11 -8.05 -3.80 -14.95 -4.75 -35.15 -4.75 -24 0 -33.75 2.15 -41.10 9.15 -4 3.75 -5.75 7.65 -6 13.50 -0.70 13.80 5.90 23.45 17.90 26.10 1.75 0.35 4.20 0.65 5.45 0.60 l2.25 -0.10 0 -4.25z m-30.25 -7.90 c0 -10.75 3.80 -24.30 9.45 -33.95 0.95 -1.55 1.30 -2.65 0.95 -2.65 -1 0 -4.30 2.50 -5.70 4.35 -5.90 7.70 -9.70 28.50 -6.45 35.30 0.45 1 1.05 1.85 1.30 1.85 0.25 0 0.45 -2.20 0.45 -4.90z m105.80 3.05 c0.75 -1.55 0.95 -3.05 0.95 -7.90 -0.05 -10.65 -3.20 -22 -7.85 -27.85 -1.40 -1.80 -4.25 -3.90 -5.30 -3.90 -0.30 0 0.60 2.15 1.95 4.75 5.10 9.65 7.80 19.45 8.30 30.15 0.15 3.60 0.45 6.60 0.65 6.60 0.20 0 0.80 -0.85 1.30 -1.85z m-110.75 -3.30 c-0.45 -9.50 3 -23.85 7.70 -32.25 0.70 -1.25 1.15 -2.35 1 -2.50 -0.10 -0.15 -1.10 0.35 -2.15 1.05 -3.80 2.50 -6.75 9.05 -8.35 18.50 -1.10 6.25 -0.85 14.30 0.45 16.75 1.15 2.15 1.50 1.75 1.35 -1.55z m115.25 1.55 c0.60 -1.15 0.95 -3.30 1.10 -6.90 0.50 -12 -3.90 -25.50 -9.30 -28.65 -0.90 -0.55 -1.75 -0.85 -1.90 -0.75 -0.10 0.15 0.65 2.05 1.75 4.20 4.25 8.60 6.40 17.15 6.80 27.25 0.10 3.40 0.25 6.25 0.25 6.35 0.05 0.50 0.60 -0.15 1.30 -1.50z m-120.30 -4.85 c0 -5.85 1.20 -13.45 3.05 -19.10 0.80 -2.45 3.90 -9.40 5.85 -13.05 0.10 -0.15 -0.35 -0.20 -0.95 -0.05 -1.60 0.45 -4.75 3.75 -6.15 6.50 -4.05 8.10 -6 23.65 -3.60 29.40 1.30 3.10 1.80 2.10 1.80 -3.70z m125.90 3.60 c0.65 -1.50 0.85 -3.25 0.80 -8.15 -0.10 -12.15 -3.90 -23.20 -9.15 -26.80 -0.95 -0.65 -1.95 -1.20 -2.15 -1.20 -0.25 0 0.45 1.75 1.55 3.90 4.45 8.90 6.45 16.70 6.90 27 0.15 3.90 0.50 7.10 0.75 7.10 0.25 0 0.85 -0.85 1.30 -1.85z m-82.65 -1.90 c5.75 -1.50 8.75 -4.20 8.75 -7.90 0 -2.15 -1.75 -4.45 -4.70 -6 -2.75 -1.45 -8.40 -1.45 -12.15 0 -2.45 1 -7.90 4.55 -7.50 4.95 0.10 0.10 2 -0.65 4.30 -1.60 7.10 -3.10 12.85 -2.75 15.75 0.95 l1.25 1.55 -1 1.40 c-0.55 0.75 -2.05 2 -3.30 2.75 -3.20 1.85 -9.45 2.20 -14 0.75 -1.75 -0.55 -3.15 -0.80 -3.15 -0.60 0 0.55 4.65 3.50 6.35 4 2.25 0.65 6.20 0.55 9.40 -0.25z m47.15 0.05 c2.20 -0.80 6.10 -3.20 6.10 -3.80 0 -0.20 -1.35 0.05 -3.05 0.55 -3.80 1.20 -9.20 1.25 -12.05 0.10 -2.75 -1.05 -5.25 -2.95 -5.65 -4.20 -0.80 -2.45 3.50 -5.40 7.80 -5.45 2.65 0 6.75 1.15 10.05 2.80 2.90 1.45 3.55 1.50 1.90 0.15 -7.80 -6.30 -16.15 -7.15 -21.30 -2.20 -1.85 1.75 -2.20 2.40 -2.20 4 0 1.05 0.45 2.60 1 3.45 2.45 4 11.95 6.50 17.40 4.60z m-50.15 -5.05 c2.55 -2.50 0.90 -6.75 -2.60 -6.75 -1.95 0 -4.15 1.85 -4.15 3.45 0 3.85 4.20 5.90 6.75 3.30z m48.80 -0.20 c1.70 -1.75 1.85 -3.40 0.40 -5.25 -0.80 -1 -1.45 -1.30 -2.95 -1.30 -3.85 0 -5.60 4.65 -2.60 7 1.75 1.40 3.45 1.25 5.15 -0.45z"/>
  <path d="M282.25 249.80 c-3.05 -3.10 -6.15 -13.20 -7.45 -24.60 l-0.30 -2.60 1.95 -0.80 c3.45 -1.35 8.20 -1.90 11.85 -1.30 3.40 0.55 6.35 1.55 6.85 2.30 0.85 1.45 -2.40 17.20 -4.55 22.25 -2.35 5.40 -5.75 7.35 -8.35 4.75z"/>
  <path d="M143.70 242.75 c-2.70 -1.60 -3.90 -4.30 -3.60 -7.75 0.30 -3.15 1.55 -4.90 4.40 -6.35 2.75 -1.45 4.60 -1.45 7.35 -0.10 7.75 3.75 5.05 15.45 -3.55 15.45 -1.80 0 -3.15 -0.35 -4.60 -1.25z m7.25 -2.50 c3.25 -1.65 3.25 -6.50 0.05 -8.65 -2.30 -1.55 -4.70 -1.25 -6.60 0.90 -4 4.40 1.20 10.55 6.55 7.75z"/>
  <path d="M418.20 243.30 c-3.30 -1.45 -5.25 -5.90 -4.20 -9.50 0.90 -3 3.75 -5.65 6.60 -6.05 2.65 -0.40 5.90 0.80 7.75 2.80 2.40 2.70 2.50 7.60 0.15 10.55 -2.05 2.65 -6.85 3.70 -10.30 2.20z m6.95 -3.30 c2 -1.55 2.60 -4.05 1.55 -6.25 -2 -4.25 -7.40 -4.25 -9.45 0 -1.05 2.25 -0.70 3.90 1.25 5.80 1.75 1.80 4.70 2 6.65 0.45z"/>
  <path d="M223.60 221.20 c-2.15 -1.50 -0.85 -5.20 1.80 -5.20 1.25 0 3.10 1.65 3.10 2.75 0 0.95 -2.20 3.25 -3.10 3.25 -0.40 0 -1.20 -0.35 -1.80 -0.80z"/>
  <path d="M343.40 221.45 c-2.70 -1.55 -1.70 -5.40 1.40 -5.45 2.50 0 3.65 3.80 1.60 5.20 -1.30 0.90 -1.80 0.95 -3 0.25z"/>
  <path d="M254.15 218.30 c-2.65 -2.30 -1.45 -6.75 2.40 -9.05 1.65 -0.95 2.75 -1 27.35 -1.15 17.80 -0.10 26.25 0.05 27.70 0.45 1.15 0.30 2.85 1.30 3.75 2.20 1.45 1.45 1.65 2 1.65 4.15 0 2.15 -0.20 2.70 -1.30 3.55 -1.20 0.95 -2 1.05 -8.60 1.05 -6.90 0 -7.45 -0.10 -11.80 -1.60 -4.15 -1.50 -5.10 -1.65 -10.30 -1.65 -5.20 0 -6.15 0.15 -10.30 1.65 -4.35 1.55 -4.90 1.60 -11.85 1.60 -7 0 -7.35 -0.05 -8.70 -1.20z m9.05 -4.60 c0.55 -1.40 0.30 -3.55 -0.40 -4.15 -0.40 -0.35 -1.70 -0.55 -2.90 -0.45 -2.10 0.15 -2.15 0.20 -2.30 2.10 -0.25 2.95 0.05 3.30 2.85 3.30 1.75 0 2.55 -0.20 2.75 -0.80z m7.20 -0.90 c0.10 -0.75 0.05 -1.95 -0.15 -2.65 -0.25 -1.10 -0.50 -1.20 -2.90 -1.05 l-2.60 0.15 -0.15 1.95 c-0.25 3.05 0.05 3.35 3 3.20 2.50 -0.15 2.65 -0.25 2.80 -1.60z m6.85 -1.05 l0 -2.50 -2.75 0 -2.75 0 -0.15 1.95 c-0.25 3.05 0.05 3.35 3 3.20 l2.65 -0.15 0 -2.50z m7.15 1.05 c0.10 -0.75 0.05 -1.95 -0.15 -2.65 -0.25 -1.10 -0.50 -1.20 -2.90 -1.05 l-2.60 0.15 -0.15 1.95 c-0.25 3.05 0.05 3.35 3 3.20 2.50 -0.15 2.65 -0.25 2.80 -1.60z m6.85 -1.05 l0 -2.50 -2.75 0 -2.75 0 -0.15 1.95 c-0.25 3.05 0.05 3.35 3 3.20 l2.65 -0.15 0 -2.50z m7 0 c0 -2.50 0 -2.50 -1.70 -2.65 -0.95 -0.10 -2.20 -0.05 -2.85 0.10 -1.05 0.30 -1.20 0.65 -1.20 2.50 0 1.15 0.15 2.30 0.35 2.50 0.20 0.20 1.50 0.30 2.90 0.20 l2.50 -0.15 0 -2.50z m7 0 l0 -2.50 -2.45 -0.15 c-2.70 -0.20 -3.30 0.25 -3.30 2.50 0 2.60 0.40 2.95 3.20 2.80 l2.55 -0.15 0 -2.50z m7 0 c0 -2.50 0 -2.50 -1.70 -2.65 -0.95 -0.10 -2.20 -0.05 -2.85 0.10 -1.05 0.30 -1.20 0.65 -1.20 2.50 0 1.15 0.15 2.30 0.35 2.50 0.20 0.20 1.50 0.30 2.90 0.20 l2.50 -0.15 0 -2.50z"/>
  <path d="M350.75 210.70 c-0.30 -2.20 -0.20 -2.45 1.40 -4.15 1.90 -1.95 3.35 -4.45 3.40 -5.90 0 -0.50 0.15 -0.65 0.30 -0.30 0.30 0.80 -3.95 12.65 -4.55 12.65 -0.10 0 -0.35 -1.05 -0.55 -2.30z"/>
  <path d="M336.35 204.55 c-1.60 -1.80 -2.85 -4.60 -2.85 -6.55 0 -1.85 1.20 -4.70 2.65 -6.35 4.35 -4.90 11.40 -4.70 15.55 0.50 2.70 3.40 2.25 10.20 -0.90 12.80 -1.35 1.15 -1.55 -0.75 -0.35 -3.15 1.90 -3.80 1.10 -7.60 -2.15 -10.05 -3.65 -2.75 -9.65 -1.45 -11.55 2.50 -1.45 3.15 -1 6.45 1.30 9.30 0.75 1 0.95 1.55 0.60 2.20 -0.40 0.70 -0.70 0.55 -2.30 -1.20z"/>
  <path d="M231.15 205.20 c-0.15 -0.40 0.15 -1.25 0.70 -1.85 3.40 -3.70 2.75 -8.90 -1.40 -12 -0.90 -0.65 -2.20 -1 -3.80 -1 -6.35 -0.10 -10.15 6.20 -7.05 11.60 1.25 2.15 1 4.15 -0.40 3 -1.55 -1.25 -2.70 -4.35 -2.70 -7.20 0 -3.25 0.80 -5 3.20 -7.10 6.50 -5.75 16.55 -1.25 16.50 7.35 0 2.85 -0.95 5.25 -2.75 7.05 -1.15 1.15 -1.90 1.20 -2.30 0.15z"/>
  <path d="M229.75 198.90 c-0.50 -1.90 -2.45 -3.55 -3.70 -3.15 -0.55 0.15 -1.70 1.10 -2.50 2.05 l-1.55 1.75 0 -2 c0 -2.50 1.75 -4.05 4.50 -4.05 3.05 0 5.50 3.65 4.05 5.95 -0.40 0.60 -0.55 0.45 -0.80 -0.55z"/>
  <path d="M339.30 199.15 c-0.75 -0.75 -0.20 -2.85 1.15 -4.20 2.50 -2.45 6.05 -1.85 7.35 1.35 1.10 2.60 0.35 2.95 -1.85 0.95 -1.05 -0.95 -2.15 -1.75 -2.40 -1.75 -0.75 0 -3.05 2.05 -3.05 2.75 0 0.80 -0.70 1.35 -1.20 0.90z"/>
  <path d="M368.65 164.30 c-2.60 -1.15 -3.35 -3.55 -1.90 -6.25 2.15 -4.20 8.25 -2.40 8.25 2.45 0 3.20 -3.25 5.15 -6.35 3.80z m4.25 -2.20 c0.85 -1.10 0.75 -2.85 -0.20 -3.80 -1.15 -1.20 -3.50 -1 -4.40 0.30 -1.10 1.55 -1 2.25 0.45 3.70 1.35 1.35 2.95 1.30 4.15 -0.20z"/>
  <path d="M128.75 149.95 c0.45 -2.60 3.90 -15.55 4.75 -17.70 l0.60 -1.50 0.95 2.50 c1 2.70 3.75 5.85 6.15 7.10 0.85 0.45 3.05 0.90 4.90 1.05 5.40 0.40 9.40 -2 12.10 -7.30 1 -1.90 1.15 -7.10 0.30 -9.30 -2.45 -6.55 -10.95 -9.75 -17.25 -6.55 -1.35 0.65 -2.50 1.15 -2.60 1.05 -0.30 -0.30 8.30 -17 9.50 -18.45 l1.10 -1.40 12.55 25.15 c6.95 13.85 12.55 25.20 12.45 25.30 -0.05 0.05 -2 -0.80 -4.35 -1.90 -7.10 -3.30 -11.75 -4.25 -21.40 -4.25 l-8.25 0 -3.40 1.60 c-2.10 1 -4.35 2.60 -5.90 4.20 l-2.55 2.65 0.35 -2.25z"/>
  <path d="M439.80 150.20 c-1.90 -2.40 -5.95 -4.95 -9.55 -6 -7.80 -2.35 -24.75 0.15 -32.55 4.75 -0.95 0.55 -1.70 0.80 -1.70 0.60 0 -0.25 5.60 -11.65 12.40 -25.30 l12.40 -24.85 1.30 1.95 c1.90 2.90 7.15 12.95 8.35 16 l1 2.60 -1.75 -1.20 c-6.45 -4.35 -15.85 -1.15 -18.65 6.40 -0.85 2.25 -0.65 6.85 0.40 9.10 1.20 2.60 3.75 5.15 6.30 6.30 2.85 1.30 7.80 1.25 10.60 -0.10 2.75 -1.35 5.55 -4.60 6.30 -7.30 0.30 -1.20 0.75 -2.15 0.95 -2.15 0.70 0 6.35 20.20 5.80 20.75 -0.10 0.10 -0.80 -0.60 -1.60 -1.55z"/>
  <path d="M381.35 146.10 c-1.85 -1.95 -1.80 -4.20 0.10 -6.15 1 -1 1.95 -1.45 3.05 -1.45 2.15 0 4.50 2.35 4.50 4.50 0 1.10 -0.45 2.05 -1.45 3.05 -2 1.95 -4.35 2 -6.20 0.05z m5.35 -1.20 c0.45 -0.60 0.80 -1.50 0.80 -2 0 -1.20 -1.75 -2.90 -3 -2.90 -1.30 0 -3 1.70 -3 3.10 0 2.65 3.70 3.95 5.20 1.80z"/>
  <path d="M356.50 143.05 c0 -0.30 -1.25 -2.35 -2.75 -4.60 -1.50 -2.25 -2.75 -4.10 -2.75 -4.15 0 -0.05 1.10 -0.05 2.50 -0.10 3.90 -0.10 6.35 -2.25 6.80 -6.05 0.30 -2.40 -1 -5 -3.25 -6.50 -4.30 -2.90 -10.55 0.45 -10.55 5.60 0 1.25 -0.35 1 -4.75 -3.20 -2.65 -2.50 -5.35 -4.95 -6.05 -5.40 l-1.25 -0.80 1.90 -1.05 c1.25 -0.70 2.30 -1.85 3.05 -3.40 1 -2 1.10 -2.60 0.65 -4.25 -0.65 -2.30 -2.75 -4.50 -4.95 -5.10 -3.95 -1.15 -8.60 2.05 -8.60 5.95 0 1.10 -0.15 2 -0.30 2 -0.80 0 -2.20 -1.15 -2.20 -1.80 0 -0.40 2.05 -4.75 4.55 -9.60 2.50 -4.85 6.70 -13 9.35 -18.10 5.25 -10.25 10.15 -19.65 10.45 -19.95 0.10 -0.15 1.35 0.35 2.80 1.05 l2.60 1.35 -1.95 0 c-6.40 0.10 -9.35 7.80 -4.55 12 2.40 2.10 4.80 2.45 7.55 1.15 4.20 -2.05 5.30 -7.55 2.10 -10.95 -0.80 -0.90 1.30 -0.05 7.60 3 40.60 19.55 49.85 24.05 50.35 24.45 0.45 0.40 0.30 1.10 -0.70 3.05 -0.70 1.45 -1.35 2.65 -1.40 2.75 -0.05 0.10 -0.95 -0.35 -1.95 -0.95 -1.60 -0.95 -2.40 -1.05 -6.55 -0.85 l-4.75 0.20 0 -1.45 c0 -2 -0.70 -3.10 -2.50 -3.85 -1.75 -0.70 -4.85 -0.35 -7.10 0.80 -1.45 0.75 -1.50 0.75 -4.05 -1.65 -6.05 -5.70 -8.15 -6.50 -18.10 -6.95 -5.55 -0.25 -7.30 -0.50 -8.55 -1.25 -0.95 -0.60 -2.50 -0.95 -3.95 -0.95 -2 0 -2.60 0.25 -4.05 1.70 -0.95 0.95 -1.70 1.95 -1.70 2.25 0 1.05 2.70 1.65 6.25 1.40 3.45 -0.25 3.45 -0.20 2.30 0.70 -2.50 2 -6.45 2.10 -9.30 0.25 -1.20 -0.80 -1.30 -0.80 -1.70 0.25 -0.20 0.65 -0.20 2.15 0.05 3.40 0.25 1.40 0.20 2.85 -0.05 3.70 -0.30 0.75 -0.40 1.70 -0.25 2.10 0.45 1.10 2.10 0.90 2.80 -0.25 0.95 -1.50 2 -1.25 1.85 0.40 -0.20 1.70 0.35 2.60 1.55 2.60 0.65 0 1.10 -0.45 1.30 -1.30 0.45 -1.85 1.90 -1.35 2.20 0.80 0.35 2.30 1.75 2.60 3.30 0.65 l1.15 -1.40 0.05 1.85 c0 1.45 0.25 1.90 1.05 2.15 0.70 0.25 1.25 0.10 1.50 -0.30 1.10 -1.85 1.40 -2.05 2.30 -1.75 2 0.65 2.85 4.55 1.30 5.90 -2.10 1.85 -5.15 1.65 -5.15 -0.30 0 -2.35 -2.15 -3.10 -3.10 -1.05 -0.75 1.65 -1.40 1.60 -1.40 -0.20 0 -1.95 -1.45 -2.50 -2.65 -1 -1 1.25 -0.95 1.25 -1.65 -0.80 -0.65 -2.05 -2.55 -2.35 -3 -0.50 -0.40 1.55 -1.40 1.40 -1.60 -0.30 -0.40 -2.55 -2.30 -3.30 -3.10 -1.20 -0.35 0.90 -0.85 1.25 -1.75 1.25 -2.20 0 -3.25 0.85 -3.25 2.65 0 2.40 5.50 7.45 11.55 10.60 6.60 3.40 9 3.25 14.30 -1.05 l2.10 -1.70 0.75 2.70 0.80 2.75 -3.05 5.65 c-7.25 13.35 -9.55 17.40 -10 17.40 -0.25 0 -0.45 -0.20 -0.45 -0.45z"/>
  <path d="M143.15 136.75 c-0.85 -0.40 -2.20 -1.55 -3 -2.55 -1.20 -1.60 -1.40 -2.35 -1.40 -5 0 -3.50 0.85 -5.10 3.75 -7.05 2.30 -1.60 6.20 -1.60 8.55 0 5.20 3.50 5.40 10.30 0.35 14 -1.75 1.30 -6.05 1.60 -8.25 0.60z m7.15 -3.95 c4.85 -4.85 -1.80 -11.90 -6.90 -7.35 -1.40 1.25 -1.65 1.80 -1.65 3.70 0 4.90 5.10 7.10 8.55 3.65z"/>
  <path d="M419.15 136.50 c-5.75 -2.95 -6 -11.20 -0.40 -14.40 1.55 -0.90 2.55 -1.10 4.65 -0.95 7.90 0.55 10.45 10.20 4 15 -2 1.50 -5.70 1.65 -8.25 0.35z m7.40 -3.45 c1.20 -1.20 1.45 -1.90 1.45 -3.80 0 -4.80 -5 -7 -8.60 -3.80 -1.40 1.25 -1.65 1.80 -1.65 3.80 0 2 0.25 2.55 1.65 3.80 2.25 2.05 5.10 2.05 7.15 0z"/>
  <path d="M263.55 133.75 c1.30 -1.80 1.70 -2.90 1.85 -5.25 0.30 -4 -0.10 -5.20 -2.45 -7.75 -2.45 -2.70 -5.60 -4 -8.55 -3.60 l-2.15 0.25 2.40 -1.20 c5.90 -3.05 15.90 -5.55 25.50 -6.45 l3.40 -0.30 -1.60 1.45 c-1.30 1.20 -1.65 1.85 -1.65 3.40 0 1.10 0.15 2.30 0.35 2.75 0.35 0.65 -0.05 0.95 -1.75 1.35 -3.10 0.80 -5.30 2.35 -5.70 3.95 -0.40 1.60 0.40 6.95 1.60 10.40 0.65 2 0.65 2.45 0.10 2.80 -0.35 0.25 -3.40 0.45 -6.80 0.45 l-6.15 0 1.60 -2.25z"/>
  <path d="M294.65 134.90 c0.15 -0.65 0.70 -2.95 1.30 -5.10 1.50 -5.65 1.40 -7.55 -0.45 -9.30 -0.85 -0.80 -2.60 -1.65 -4.05 -2 -2 -0.50 -2.45 -0.75 -2.15 -1.45 1.15 -2.80 0.50 -5.10 -1.90 -6.55 -1.90 -1.15 -2.05 -1.15 4.65 -0.50 8.25 0.85 15.50 2.75 22.45 5.95 l2.25 1.05 -2.05 0 c-2.85 0 -7 2.20 -8.55 4.55 -2.65 4 -2.50 8.20 0.40 12.35 l1.50 2.10 -6.85 0 c-6.80 0 -6.80 0 -6.55 -1.10z"/>
  <path d="M252.50 134.45 c-6.20 -2.60 -6.30 -10.75 -0.15 -13.90 4.40 -2.25 10.30 1.70 10.35 6.90 0.05 2.65 -0.90 4.40 -3.30 6.20 -1.50 1.15 -5.15 1.55 -6.90 0.80z m4.85 -4.25 c1.35 -0.85 1.85 -2.30 1.45 -4.50 -0.40 -2 -1.95 -3.20 -4.10 -3.20 -2.30 0 -3.15 0.45 -3.95 2.05 -1 1.90 -0.95 3.10 0.30 4.65 1.85 2.35 3.70 2.65 6.30 1z"/>
  <path d="M311.75 134.30 c-4.75 -2.10 -6.05 -8.50 -2.40 -11.90 1.95 -1.80 3.30 -2.40 5.40 -2.40 4.85 0 8.65 4.95 7.20 9.40 -1.45 4.50 -6.05 6.75 -10.20 4.90z m5.45 -3.50 c4.45 -1.85 3.05 -8.30 -1.80 -8.30 -4.80 0 -6.15 6.35 -1.75 8.25 2 0.90 1.60 0.85 3.55 0.05z"/>
  <path d="M350.55 130.70 c-3.15 -2.65 -1.30 -7.70 2.80 -7.70 2.30 0 4.65 2.30 4.65 4.50 0 1.10 -0.45 2.05 -1.45 3.05 -1.85 1.85 -3.95 1.90 -6 0.15z m4.95 -1.20 c0.55 -0.55 1 -1.45 1 -2 0 -1.30 -1.70 -3 -3.10 -3 -2.65 0 -3.95 3.70 -1.80 5.20 1.50 1.05 2.70 1 3.90 -0.20z"/>
  <path d="M374.15 122.95 l-1.10 -2.45 1.55 0 c0.95 0 2.05 -0.45 2.75 -1.10 1.05 -0.95 1.15 -1 1.15 -0.20 0 0.50 -0.55 1.55 -1.25 2.40 -0.70 0.80 -1.25 1.90 -1.25 2.40 0 1.80 -0.75 1.35 -1.85 -1.05z"/>
  <path d="M386.75 120.05 c-2.60 -1.15 -5.10 -4.05 -5.55 -6.30 -0.45 -2.40 0.95 -5.45 3.05 -6.75 2.30 -1.45 2.55 -1.25 0.85 0.70 -2.25 2.60 -2.45 4.85 -0.75 8.25 1.10 2.20 1.75 2.95 3.20 3.45 2.50 0.95 5.40 0.10 7.95 -2.35 1.60 -1.50 1.95 -1.70 1.70 -0.85 -0.45 1.60 -1.90 3.50 -3.25 4.15 -1.70 0.90 -4.90 0.75 -7.20 -0.30z"/>
  <path d="M283.25 116.80 c-0.55 -0.40 -0.90 -1.30 -0.90 -2.30 0 -2.80 2.70 -3.95 4.65 -2 1.25 1.25 1.25 2.05 -0.05 3.70 -1.15 1.45 -2.30 1.65 -3.70 0.60z m2.95 -1.10 c0.95 -0.90 0.95 -1 0.30 -2.25 -0.65 -1.15 -1.45 -1.20 -2.75 -0.25 -0.85 0.60 -0.90 0.90 -0.35 2 0.65 1.50 1.65 1.65 2.80 0.50z"/>
  <path d="M330.10 113.90 c-2.30 -2.50 -1.65 -6.15 1.35 -7.40 3.35 -1.35 7.10 1.80 6.25 5.25 -0.75 3.05 -5.50 4.35 -7.60 2.15z m5.40 -1.40 c1.15 -1.15 1.20 -1.65 0.45 -3.05 -1.20 -2.30 -4.50 -2.15 -5.40 0.20 -1.15 2.95 2.65 5.15 4.95 2.85z"/>
  <path d="M387.55 114.30 c-0.35 -0.40 -0.55 -1.25 -0.45 -1.90 0.15 -1.15 0.20 -1.15 1.95 0.70 l1.80 1.90 -1.35 0 c-0.75 0 -1.65 -0.30 -1.95 -0.70z"/>
  <path d="M370.70 110.55 c2.05 -3.90 6.55 -7.05 10.20 -7.05 1.30 0 2.30 -0.65 5.35 -3.45 2.20 -2.05 4.35 -3.60 5.25 -3.80 1.80 -0.40 4.50 0.55 4.50 1.50 0 0.90 -7.80 5.95 -10.35 6.70 -1.50 0.40 -3.05 1.50 -5.10 3.55 -2.60 2.65 -3.10 2.95 -4.40 2.70 -0.85 -0.15 -2.25 0.05 -3.35 0.50 -2.65 1.10 -2.95 1 -2.10 -0.65z"/>
  <path d="M239 109.55 c-0.85 -1.60 -0.55 -3 0.75 -3.85 2.60 -1.70 5.35 0.70 3.95 3.45 -0.60 1.05 -1.10 1.35 -2.45 1.35 -1.20 0 -1.85 -0.30 -2.25 -0.95z m3.75 -1.80 c0 -1.25 -0.20 -1.50 -1.20 -1.50 -1.40 0 -2.35 1.25 -1.90 2.45 0.25 0.60 0.80 0.80 1.70 0.70 1.20 -0.15 1.40 -0.40 1.40 -1.65z"/>
  <path d="M395.50 106.50 c5.70 -5.20 10.45 -7.35 12.95 -5.95 1.45 0.80 2.35 2.90 1.85 4.20 -0.25 0.75 -0.55 0.65 -2.10 -0.75 -1.50 -1.30 -2.05 -1.50 -3.40 -1.20 -2.35 0.50 -4.65 1.50 -8.25 3.75 l-3.30 2 2.25 -2.05z"/>
  <path d="M251.30 106.90 c-0.40 -0.65 -2.40 -4.75 -4.50 -9.15 -2.05 -4.40 -5.15 -10.90 -6.90 -14.50 -1.80 -3.55 -5.65 -11.60 -8.65 -17.85 -3 -6.30 -5.60 -11.40 -5.80 -11.40 -0.20 0 -15.50 7.55 -34 16.75 -18.50 9.20 -33.70 16.65 -33.80 16.55 -0.30 -0.30 4.80 -6.60 9.80 -12.15 13.80 -15.30 33 -29.05 52.80 -37.80 4.30 -1.90 6.70 -2.85 14.50 -5.60 0.55 -0.20 0.15 0.25 -0.85 0.95 -1.05 0.75 -2 1.85 -2.15 2.45 -0.70 3.40 -0.40 4.80 1.45 6.65 1.40 1.40 2.10 1.70 3.80 1.70 2.60 0 4.75 -1.25 5.75 -3.30 1.05 -2.20 0.95 -3.75 -0.40 -5.75 -1.30 -1.95 -3 -2.95 -5.05 -2.95 -0.80 0 -1.35 -0.10 -1.25 -0.20 0.85 -0.90 26.45 -6.60 26.45 -5.95 0 0.10 -0.80 0.85 -1.75 1.70 -2.40 2.15 -2.40 4.65 0.05 9.50 1.45 2.95 1.75 4.10 1.80 6.85 0 3.10 -0.75 6.85 -2.05 10.25 -0.35 0.95 -0.90 1.35 -1.70 1.35 -0.65 0 -1.95 0.50 -2.90 1.15 -1.45 1 -2 1.90 -2.75 4.75 -0.10 0.30 -0.70 0.60 -1.40 0.60 -1.70 0 -4.10 2.15 -4.50 4 -0.60 3.20 2.10 6.50 5.35 6.50 2 0 4.55 -2.05 5.05 -4.10 0.40 -1.50 0.75 -1.90 2.35 -2.35 2.25 -0.70 3.95 -2.65 3.95 -4.55 0 -0.75 0.60 -2.45 1.35 -3.75 2 -3.55 2.65 -7.20 2.65 -14.75 0 -7.40 0.50 -9 2.75 -9 1.40 0 4 -2.05 4.40 -3.45 0.30 -1.20 -1.10 -3.35 -2.90 -4.55 -1.85 -1.20 -0.85 -1.50 5.50 -1.50 l5.20 0 -1.75 5.15 c-1 2.80 -2.65 7.60 -3.70 10.60 -1.05 3.05 -6.70 19.25 -12.50 36 -5.85 16.80 -10.95 30.90 -11.40 31.40 -1 1.15 -1.45 1.10 -2.30 -0.25z m-15 -53.60 c0.70 -0.55 0.95 -1.30 0.95 -3.05 0 -2 -0.25 -2.55 -1.65 -3.80 -1.90 -1.70 -3.20 -1.80 -7.50 -0.45 -3.35 1.05 -6.60 1.30 -6.60 0.55 0 -0.25 0.80 -1.40 1.75 -2.55 1.90 -2.25 2.10 -3.05 1.05 -3.95 -0.50 -0.40 -1.25 -0.25 -3.10 0.75 -3.05 1.60 -4.45 2.90 -5.20 4.75 -0.90 2.20 0.15 4.35 2.70 5.50 2.50 1.10 4 1.15 8.55 0.20 4.05 -0.85 5.35 -0.65 5.20 0.90 0 0.60 -0.05 1.25 0 1.50 0.10 0.60 2.80 0.40 3.85 -0.35z m11.10 -1.05 c11.60 -1.90 14.90 -5.45 11.15 -12.05 -1.30 -2.20 -8.60 -9.70 -9.50 -9.70 -0.15 0 -0.25 1.70 -0.15 3.75 0.15 3.05 0 4.10 -0.90 5.95 -1.20 2.50 -3.70 4.95 -6.30 6.20 -2.25 1.05 -2.15 1.60 0.20 1.25 2.45 -0.35 6.05 -1.95 7.45 -3.25 1.85 -1.70 1.80 -0.75 -0.05 1.65 -0.95 1.20 -3.15 3.10 -5 4.20 -4.90 3 -4.55 3.25 3.10 2z"/>
  <path d="M316.05 106.70 c-0.60 -0.75 -1.05 -1.50 -1.05 -1.75 0 -0.20 -2.80 -8.45 -6.20 -18.30 -10.10 -29 -21.20 -60.85 -21.55 -61.75 -0.30 -0.80 0.05 -0.90 4.10 -0.90 9.35 0 23.35 2.05 34.65 5.05 27 7.25 50.05 20.35 70.80 40.30 5.15 4.90 13.90 14.95 15.40 17.50 0.15 0.30 -13.45 -6.20 -30.25 -14.50 l-30.55 -15.10 3.15 -0.60 c8 -1.65 11.55 -5.65 8.05 -9.15 -2 -2 -4.35 -2.55 -12.30 -2.90 l-6.95 -0.35 -1.15 -1.50 c-0.65 -0.80 -2.25 -2.95 -3.55 -4.75 -5.90 -7.95 -14.70 -8.30 -21.40 -0.90 -10.35 11.50 -12.35 43.40 -3.25 51.10 2.55 2.10 5.95 1.50 10.05 -1.75 4.45 -3.50 10.85 -15.70 14.50 -27.45 0.95 -3.05 1.95 -5.50 2.25 -5.50 0.35 0 1.05 0.40 1.65 0.90 l1.10 0.85 -12.25 25.50 c-6.75 14.05 -12.50 25.90 -12.80 26.40 -0.70 1.15 -1.25 1.10 -2.45 -0.45z m-8.25 -63.15 c6.45 -2.95 6.75 -11.85 0.45 -15.40 -5.80 -3.30 -12.90 0.90 -12.90 7.55 0 6.55 6.40 10.60 12.45 7.85z"/>
  <path d="M300.65 40.50 c-1.40 -0.85 -2.65 -3.25 -2.65 -5.15 0 -1.25 1.80 -4 3.05 -4.60 4.10 -2.15 8.95 0.75 8.95 5.25 0 4.30 -5.40 6.90 -9.35 4.50z m5.10 -1.30 c1.30 -0.50 2.20 -3.10 1.65 -4.70 -0.45 -1.30 -2.20 -2.50 -3.60 -2.50 -0.35 0 -1.25 0.45 -2 1.05 -3.25 2.60 0 7.65 3.95 6.15z"/>
  <path d="M164.70 106 c-1.65 -0.65 -3.20 -2.95 -3.20 -4.80 0 -1 0.50 -2.20 1.30 -3.15 1.10 -1.35 1.60 -1.55 3.75 -1.55 3.20 0 4.95 1.60 4.95 4.60 0 2.60 -0.75 3.85 -2.75 4.70 -1.95 0.80 -2.55 0.80 -4.05 0.20z m3.90 -2.35 c1.50 -1.70 1.55 -3.05 0.20 -4.40 -1.45 -1.45 -2.60 -1.55 -4.20 -0.45 -2.25 1.55 -0.75 5.70 2.05 5.70 0.65 0 1.55 -0.40 1.95 -0.85z"/>
  <path d="M256.75 105.15 c0.15 -0.50 4.40 -11.80 9.35 -25.15 4.95 -13.35 9.35 -25.10 9.75 -26.10 0.75 -1.90 0.75 -1.90 3.70 -1.90 l2.90 0 -1.15 3.15 c-0.65 1.70 -2.25 6.25 -3.60 10.10 -1.30 3.85 -4.90 14.10 -8 22.75 l-5.55 15.70 -3.70 1.15 c-4.45 1.35 -4.15 1.35 -3.70 0.30z"/>
  <path d="M309.25 104.80 l-3.45 -1.05 -3.95 -11.25 c-2.15 -6.20 -5.15 -14.60 -6.60 -18.75 -5.60 -15.70 -7.25 -20.55 -7.25 -21.15 0 -0.40 0.90 -0.60 2.70 -0.60 2.10 0 2.75 0.20 3.05 0.90 0.80 2.05 17.95 48.10 18.80 50.50 0.50 1.40 0.75 2.60 0.55 2.55 -0.20 0 -1.90 -0.55 -3.85 -1.15z"/>
  <path d="M274.50 101.20 c0 -0.05 7.10 -19.35 9.15 -24.80 0.55 -1.60 1.20 -2.90 1.35 -2.90 0.20 0 8.40 21.55 10.35 27.25 0.10 0.35 -3.45 0.50 -10.35 0.50 -5.75 0 -10.50 0 -10.50 -0.05z"/>
  <path d="M375.65 100.40 c-2.05 -2.25 -2.90 -4.75 -1 -3 1.45 1.40 3.30 2 4.85 1.60 2.70 -0.65 1.40 -2.55 -3.40 -5.10 -1.45 -0.75 -1.55 -0.90 -0.55 -0.70 3.35 0.70 8.95 4.15 8.95 5.55 0 1.25 -3 2.75 -5.55 2.75 -1.75 0 -2.50 -0.25 -3.30 -1.10z"/>
  <path d="M315.85 84.50 c-2.35 -2.80 -3.90 -9.60 -3.80 -17 0.05 -3.90 0.10 -4.05 0.45 -1.85 0.40 2.15 1.65 4.85 2.25 4.85 0.10 0 0.65 -0.45 1.20 -1.05 0.80 -0.90 1.10 -0.95 2 -0.40 0.90 0.60 1.20 0.50 2.45 -0.70 1.80 -1.70 2.10 -1.70 2.10 0.10 0 1.60 1.10 3.05 2.30 3.05 0.40 0 0.95 0.55 1.20 1.25 0.25 0.70 0.80 1.25 1.25 1.25 1.25 0 0.85 1.65 -1.10 4.85 -4.45 7.15 -7.60 8.90 -10.30 5.65z"/>
  <path d="M349.35 75.95 c-1.40 -0.80 -2.45 -3.35 -2.10 -5 1 -4.50 8 -4.50 9 0.05 0.80 3.60 -3.65 6.85 -6.90 4.95z m4.05 -1.75 c2.15 -1.50 1 -5.20 -1.65 -5.20 -2.65 0 -3.80 3.70 -1.65 5.20 0.60 0.45 1.35 0.80 1.65 0.80 0.30 0 1.05 -0.35 1.65 -0.80z"/>
  <path d="M218.85 71.60 c-1.10 -1.25 -1.05 -2.75 0.10 -3.80 1.35 -1.25 3.60 -0.85 4.50 0.75 0.65 1.20 0.65 1.45 -0.10 2.65 -1.05 1.55 -3.30 1.75 -4.50 0.40z m3.60 -0.80 c0.45 -0.55 0.50 -1 0.05 -1.80 -0.65 -1.25 -2.35 -1.20 -3.15 0.10 -1.10 1.70 1.80 3.30 3.10 1.70z"/>
  <path d="M326.35 56.15 c-1.55 -0.85 -2.30 -1.60 -2.10 -2.05 0.15 -0.35 0.40 -1.90 0.55 -3.35 0.30 -2.25 0.15 -2.80 -0.75 -3.70 -1.60 -1.60 -3.80 -1.40 -5.85 0.65 -1.35 1.35 -1.70 2.10 -1.70 3.70 0 1.65 -0.20 2.05 -1.10 2.30 -2.25 0.60 -2.35 0.40 -1.15 -2.65 5.10 -13.05 10.85 -18.60 15.45 -15 1.70 1.35 1.65 2 -0.30 4 -4.10 4.40 -4.45 7.10 -1.40 9.95 1.90 1.75 2 2 2 4.65 0 3.30 -0.20 3.40 -3.65 1.50z"/>
  <path d="M263.05 55.90 c-0.05 -0.20 0.30 -1.85 0.75 -3.75 0.55 -2.35 0.75 -5.10 0.60 -8.90 -0.15 -5.10 -0.25 -5.70 -1.80 -8.35 -2 -3.60 -2.05 -4.95 -0.10 -6.55 1.75 -1.50 3.90 -2.05 6.15 -1.60 3.50 0.75 3.75 2 0.45 2.45 -1.30 0.15 -2.90 0.65 -3.55 1.10 -1 0.75 -1.10 1.10 -0.85 3.40 0.75 6.65 0.90 14.20 0.35 16.80 -0.55 2.55 -1.90 6.20 -2 5.40z"/>
  <path d="M347.50 54.05 c-1.70 -0.55 -4.35 -1.95 -4.75 -2.50 -0.15 -0.30 0.35 -0.30 1.35 0 2.20 0.60 8.70 0.55 11 -0.05 3.55 -1 4.50 -3.25 1.05 -2.45 -2.80 0.65 -4.45 0.55 -7.55 -0.40 l-2.85 -0.90 3 -0.30 c9.75 -1.05 10.25 -1.10 11 -0.45 0.40 0.35 0.75 1.30 0.75 2.10 0 2.15 -2 3.70 -6 4.60 -3.75 0.85 -5.05 0.90 -7 0.35z"/>
  <path d="M331 45.20 c0 -0.90 1.30 -2.35 1.95 -2.15 0.40 0.15 0.15 0.65 -0.65 1.40 -0.70 0.70 -1.30 1 -1.30 0.75z"/>
  <path d="M234.85 40.90 c-1.20 -0.95 -1.90 -3.20 -1.35 -4.60 0.55 -1.50 2.35 -2.80 3.90 -2.80 1.60 0 4.10 2.60 4.10 4.25 0 2.85 -4.30 4.90 -6.65 3.15z m4.25 -1.75 c1.10 -1 1.15 -2.05 0.05 -3.25 -1.15 -1.30 -2.95 -1.15 -3.95 0.35 -0.75 1.15 -0.75 1.35 0 2.50 0.95 1.45 2.55 1.60 3.90 0.40z"/>
 </g>
</svg>